<mxfile host="65bd71144e">
    <diagram id="YmspkxCW1E-z0GKFYM8U" name="第 1 页">
        <mxGraphModel dx="1320" dy="782" grid="1" gridSize="10" guides="1" tooltips="1" connect="1" arrows="1" fold="1" page="1" pageScale="1" pageWidth="827" pageHeight="1169" math="0" shadow="0">
            <root>
                <mxCell id="0"/>
                <mxCell id="1" parent="0"/>
                <mxCell id="5" style="edgeStyle=none;html=1;exitX=1;exitY=0.5;exitDx=0;exitDy=0;entryX=0;entryY=0.5;entryDx=0;entryDy=0;sketch=1;" parent="1" source="2" target="3" edge="1">
                    <mxGeometry relative="1" as="geometry"/>
                </mxCell>
                <mxCell id="16" style="edgeStyle=none;sketch=1;html=1;exitX=1;exitY=0.5;exitDx=0;exitDy=0;entryX=0;entryY=0.5;entryDx=0;entryDy=0;" parent="1" source="2" target="15" edge="1">
                    <mxGeometry relative="1" as="geometry"/>
                </mxCell>
                <mxCell id="2" value="ConditionObject" style="rounded=0;whiteSpace=wrap;html=1;fillColor=#ffe6cc;strokeColor=#d79b00;comic=1;" parent="1" vertex="1">
                    <mxGeometry x="40" y="119.4" width="100" height="30" as="geometry"/>
                </mxCell>
                <mxCell id="7" style="edgeStyle=none;sketch=1;html=1;exitX=1;exitY=0.5;exitDx=0;exitDy=0;entryX=0;entryY=0.5;entryDx=0;entryDy=0;" parent="1" source="3" target="6" edge="1">
                    <mxGeometry relative="1" as="geometry"/>
                </mxCell>
                <mxCell id="3" value="&lt;span&gt;维护的属性&lt;/span&gt;" style="rounded=0;whiteSpace=wrap;html=1;fillColor=#b0e3e6;strokeColor=#0e8088;comic=1;" parent="1" vertex="1">
                    <mxGeometry x="200" y="30" width="90" height="30" as="geometry"/>
                </mxCell>
                <mxCell id="9" style="edgeStyle=none;sketch=1;html=1;exitX=1;exitY=0.5;exitDx=0;exitDy=0;entryX=0;entryY=0.5;entryDx=0;entryDy=0;" parent="1" source="6" target="8" edge="1">
                    <mxGeometry relative="1" as="geometry"/>
                </mxCell>
                <mxCell id="13" style="edgeStyle=none;sketch=1;html=1;exitX=0.5;exitY=1;exitDx=0;exitDy=0;entryX=0.5;entryY=0;entryDx=0;entryDy=0;" parent="1" source="6" target="11" edge="1">
                    <mxGeometry relative="1" as="geometry"/>
                </mxCell>
                <mxCell id="6" value="" style="shape=image;imageAspect=0;aspect=fixed;verticalLabelPosition=bottom;verticalAlign=top;image=https://codereaper-image-bed.oss-cn-shenzhen.aliyuncs.com/img/image-20220811202037139.png;imageBorder=default;sketch=1;" parent="1" vertex="1">
                    <mxGeometry x="320" y="30" width="121.38" height="32" as="geometry"/>
                </mxCell>
                <mxCell id="8" value="即一个条件队列&lt;br&gt;Node单向链表" style="rounded=0;whiteSpace=wrap;html=1;fillColor=#ffe6cc;strokeColor=#d79b00;comic=1;sketch=1;" parent="1" vertex="1">
                    <mxGeometry x="480" y="29" width="100" height="34" as="geometry"/>
                </mxCell>
                <mxCell id="10" style="edgeStyle=none;sketch=1;html=1;exitX=1;exitY=0.5;exitDx=0;exitDy=0;entryX=0;entryY=0.5;entryDx=0;entryDy=0;" parent="1" source="11" target="12" edge="1">
                    <mxGeometry relative="1" as="geometry"/>
                </mxCell>
                <mxCell id="11" value="Node结构" style="rounded=0;whiteSpace=wrap;html=1;fillColor=#dae8fc;strokeColor=#6c8ebf;comic=1;" parent="1" vertex="1">
                    <mxGeometry x="345.69" y="119.39999999999999" width="70" height="30" as="geometry"/>
                </mxCell>
                <mxCell id="12" value="" style="shape=image;imageAspect=0;aspect=fixed;verticalLabelPosition=bottom;verticalAlign=top;comic=1;sketch=1;image=https://codereaper-image-bed.oss-cn-shenzhen.aliyuncs.com/img/image-20220811142510793.png;imageBorder=default;" parent="1" vertex="1">
                    <mxGeometry x="459.83" y="90" width="131.99" height="88.79" as="geometry"/>
                </mxCell>
                <mxCell id="14" value="单链表是由node的nextWaiter指针进行连接的" style="rounded=0;whiteSpace=wrap;html=1;fillColor=#ffe6cc;strokeColor=#d79b00;comic=1;sketch=1;" parent="1" vertex="1">
                    <mxGeometry x="610" y="130" width="160" height="40.6" as="geometry"/>
                </mxCell>
                <mxCell id="19" style="edgeStyle=none;sketch=1;html=1;exitX=1;exitY=0.5;exitDx=0;exitDy=0;entryX=0;entryY=0.5;entryDx=0;entryDy=0;" parent="1" source="15" target="20" edge="1">
                    <mxGeometry relative="1" as="geometry">
                        <mxPoint x="290" y="217.5" as="targetPoint"/>
                    </mxGeometry>
                </mxCell>
                <mxCell id="15" value="作用" style="rounded=0;whiteSpace=wrap;html=1;fillColor=#dae8fc;strokeColor=#6c8ebf;comic=1;" parent="1" vertex="1">
                    <mxGeometry x="200" y="202.5" width="50" height="30" as="geometry"/>
                </mxCell>
                <mxCell id="17" value="某线程执行Condition#await时会：&lt;br&gt;① 线程封装成节点，并添加到条件队列&lt;br&gt;② 线程阻塞等待条件满足" style="rounded=0;whiteSpace=wrap;html=1;fillColor=#dae8fc;strokeColor=#6c8ebf;comic=1;align=left;sketch=1;" parent="1" vertex="1">
                    <mxGeometry x="300" y="262.5" width="220" height="60" as="geometry"/>
                </mxCell>
                <mxCell id="21" style="edgeStyle=none;sketch=1;html=1;exitX=0.5;exitY=1;exitDx=0;exitDy=0;entryX=0.5;entryY=0;entryDx=0;entryDy=0;" parent="1" source="20" target="17" edge="1">
                    <mxGeometry relative="1" as="geometry"/>
                </mxCell>
                <mxCell id="20" value="本质是维护一个&lt;b&gt;给线程等待条件成立的队列&lt;/b&gt;" style="rounded=0;whiteSpace=wrap;html=1;fillColor=#ffe6cc;strokeColor=#d79b00;comic=1;align=left;sketch=1;" parent="1" vertex="1">
                    <mxGeometry x="290" y="200" width="240" height="35" as="geometry"/>
                </mxCell>
                <mxCell id="22" value="" style="shape=image;verticalLabelPosition=bottom;labelBackgroundColor=#ffffff;verticalAlign=top;aspect=fixed;imageAspect=0;image=data:image/svg+xml,PHN2ZyB4bWxucz0iaHR0cDovL3d3dy53My5vcmcvMjAwMC9zdmciIHhtbG5zOnhsaW5rPSJodHRwOi8vd3d3LnczLm9yZy8xOTk5L3hsaW5rIiB4bWxuczpzdmdqcz0iaHR0cDovL3N2Z2pzLmNvbS9zdmdqcyIgaWQ9IlN2Z2pzU3ZnMTAwNiIgd2lkdGg9IjkyMi4wNTIwOTM1MDU4NTk0IiBoZWlnaHQ9IjY0Ny4wMzEyODA1MTc1NzgxIiB2ZXJzaW9uPSIxLjEiIHZpZXdCb3g9IjAgMCA5MjIuMDUyMDkzNTA1ODU5NCA2NDcuMDMxMjgwNTE3NTc4MSI+PGRlZnMgaWQ9IlN2Z2pzRGVmczEwMDciPjxtYXJrZXIgaWQ9IlN2Z2pzTWFya2VyMTA0NCIgbWFya2VyV2lkdGg9IjE0IiBtYXJrZXJIZWlnaHQ9IjEwIiByZWZYPSIxMCIgcmVmWT0iNSIgdmlld0JveD0iMCAwIDE0IDEwIiBvcmllbnQ9ImF1dG8iIG1hcmtlclVuaXRzPSJ1c2VyU3BhY2VPblVzZSIgc3Ryb2tlLWRhc2hhcnJheT0iMCwwIj48cGF0aCBpZD0iU3ZnanNQYXRoMTA0NSIgZD0iTTAsMCBMMTQsNSBMMCwxMCBMMCwwIiBmaWxsPSIjMzIzMjMyIiBzdHJva2U9IiMzMjMyMzIiIHN0cm9rZS13aWR0aD0iMSIvPjwvbWFya2VyPjxtYXJrZXIgaWQ9IlN2Z2pzTWFya2VyMTA1OCIgbWFya2VyV2lkdGg9IjE0IiBtYXJrZXJIZWlnaHQ9IjEwIiByZWZYPSIxMCIgcmVmWT0iNSIgdmlld0JveD0iMCAwIDE0IDEwIiBvcmllbnQ9ImF1dG8iIG1hcmtlclVuaXRzPSJ1c2VyU3BhY2VPblVzZSIgc3Ryb2tlLWRhc2hhcnJheT0iMCwwIj48cGF0aCBpZD0iU3ZnanNQYXRoMTA1OSIgZD0iTTAsMCBMMTQsNSBMMCwxMCBMMCwwIiBmaWxsPSIjMzIzMjMyIiBzdHJva2U9IiMzMjMyMzIiIHN0cm9rZS13aWR0aD0iMSIvPjwvbWFya2VyPjxtYXJrZXIgaWQ9IlN2Z2pzTWFya2VyMTA3MiIgbWFya2VyV2lkdGg9IjE0IiBtYXJrZXJIZWlnaHQ9IjEwIiByZWZYPSIxMCIgcmVmWT0iNSIgdmlld0JveD0iMCAwIDE0IDEwIiBvcmllbnQ9ImF1dG8iIG1hcmtlclVuaXRzPSJ1c2VyU3BhY2VPblVzZSIgc3Ryb2tlLWRhc2hhcnJheT0iMCwwIj48cGF0aCBpZD0iU3ZnanNQYXRoMTA3MyIgZD0iTTAsMCBMMTQsNSBMMCwxMCBMMCwwIiBmaWxsPSIjMzIzMjMyIiBzdHJva2U9IiMzMjMyMzIiIHN0cm9rZS13aWR0aD0iMSIvPjwvbWFya2VyPjxtYXJrZXIgaWQ9IlN2Z2pzTWFya2VyMTA5MCIgbWFya2VyV2lkdGg9IjE0IiBtYXJrZXJIZWlnaHQ9IjEwIiByZWZYPSIxMCIgcmVmWT0iNSIgdmlld0JveD0iMCAwIDE0IDEwIiBvcmllbnQ9ImF1dG8iIG1hcmtlclVuaXRzPSJ1c2VyU3BhY2VPblVzZSIgc3Ryb2tlLWRhc2hhcnJheT0iMCwwIj48cGF0aCBpZD0iU3ZnanNQYXRoMTA5MSIgZD0iTTAsMCBMMTQsNSBMMCwxMCBMMCwwIiBmaWxsPSIjMzIzMjMyIiBzdHJva2U9IiMzMjMyMzIiIHN0cm9rZS13aWR0aD0iMSIvPjwvbWFya2VyPjxtYXJrZXIgaWQ9IlN2Z2pzTWFya2VyMTEwNiIgbWFya2VyV2lkdGg9IjE0IiBtYXJrZXJIZWlnaHQ9IjEwIiByZWZYPSIxMCIgcmVmWT0iNSIgdmlld0JveD0iMCAwIDE0IDEwIiBvcmllbnQ9ImF1dG8iIG1hcmtlclVuaXRzPSJ1c2VyU3BhY2VPblVzZSIgc3Ryb2tlLWRhc2hhcnJheT0iMCwwIj48cGF0aCBpZD0iU3ZnanNQYXRoMTEwNyIgZD0iTTAsMCBMMTQsNSBMMCwxMCBMMCwwIiBmaWxsPSIjMzIzMjMyIiBzdHJva2U9IiMzMjMyMzIiIHN0cm9rZS13aWR0aD0iMSIvPjwvbWFya2VyPjxtYXJrZXIgaWQ9IlN2Z2pzTWFya2VyMTEzOSIgbWFya2VyV2lkdGg9IjE0IiBtYXJrZXJIZWlnaHQ9IjEwIiByZWZYPSIxMCIgcmVmWT0iNSIgdmlld0JveD0iMCAwIDE0IDEwIiBvcmllbnQ9ImF1dG8iIG1hcmtlclVuaXRzPSJ1c2VyU3BhY2VPblVzZSIgc3Ryb2tlLWRhc2hhcnJheT0iMCwwIj48cGF0aCBpZD0iU3ZnanNQYXRoMTE0MCIgZD0iTTAsMCBMMTQsNSBMMCwxMCBMMCwwIiBmaWxsPSIjMTk3NmQyIiBzdHJva2U9IiMxOTc2ZDIiIHN0cm9rZS13aWR0aD0iMSIvPjwvbWFya2VyPjxtYXJrZXIgaWQ9IlN2Z2pzTWFya2VyMTE0MyIgbWFya2VyV2lkdGg9IjE0IiBtYXJrZXJIZWlnaHQ9IjEwIiByZWZYPSIxMCIgcmVmWT0iNSIgdmlld0JveD0iMCAwIDE0IDEwIiBvcmllbnQ9ImF1dG8iIG1hcmtlclVuaXRzPSJ1c2VyU3BhY2VPblVzZSIgc3Ryb2tlLWRhc2hhcnJheT0iMCwwIj48cGF0aCBpZD0iU3ZnanNQYXRoMTE0NCIgZD0iTTAsMCBMMTQsNSBMMCwxMCBMMCwwIiBmaWxsPSIjMTk3NmQyIiBzdHJva2U9IiMxOTc2ZDIiIHN0cm9rZS13aWR0aD0iMSIvPjwvbWFya2VyPjxtYXJrZXIgaWQ9IlN2Z2pzTWFya2VyMTE1OSIgbWFya2VyV2lkdGg9IjE0IiBtYXJrZXJIZWlnaHQ9IjEwIiByZWZYPSIxMCIgcmVmWT0iNSIgdmlld0JveD0iMCAwIDE0IDEwIiBvcmllbnQ9ImF1dG8iIG1hcmtlclVuaXRzPSJ1c2VyU3BhY2VPblVzZSIgc3Ryb2tlLWRhc2hhcnJheT0iMCwwIj48cGF0aCBpZD0iU3ZnanNQYXRoMTE2MCIgZD0iTTAsMCBMMTQsNSBMMCwxMCBMMCwwIiBmaWxsPSIjMTk3NmQyIiBzdHJva2U9IiMxOTc2ZDIiIHN0cm9rZS13aWR0aD0iMSIvPjwvbWFya2VyPjxtYXJrZXIgaWQ9IlN2Z2pzTWFya2VyMTE3NSIgbWFya2VyV2lkdGg9IjE0IiBtYXJrZXJIZWlnaHQ9IjEwIiByZWZYPSIxMCIgcmVmWT0iNSIgdmlld0JveD0iMCAwIDE0IDEwIiBvcmllbnQ9ImF1dG8iIG1hcmtlclVuaXRzPSJ1c2VyU3BhY2VPblVzZSIgc3Ryb2tlLWRhc2hhcnJheT0iMCwwIj48cGF0aCBpZD0iU3ZnanNQYXRoMTE3NiIgZD0iTTAsMCBMMTQsNSBMMCwxMCBMMCwwIiBmaWxsPSIjMTk3NmQyIiBzdHJva2U9IiMxOTc2ZDIiIHN0cm9rZS13aWR0aD0iMSIvPjwvbWFya2VyPjxtYXJrZXIgaWQ9IlN2Z2pzTWFya2VyMTE3OSIgbWFya2VyV2lkdGg9IjE0IiBtYXJrZXJIZWlnaHQ9IjEwIiByZWZYPSIxMCIgcmVmWT0iNSIgdmlld0JveD0iMCAwIDE0IDEwIiBvcmllbnQ9ImF1dG8iIG1hcmtlclVuaXRzPSJ1c2VyU3BhY2VPblVzZSIgc3Ryb2tlLWRhc2hhcnJheT0iMCwwIj48cGF0aCBpZD0iU3ZnanNQYXRoMTE4MCIgZD0iTTAsMCBMMTQsNSBMMCwxMCBMMCwwIiBmaWxsPSIjMzIzMjMyIiBzdHJva2U9IiMzMjMyMzIiIHN0cm9rZS13aWR0aD0iMSIvPjwvbWFya2VyPjxtYXJrZXIgaWQ9IlN2Z2pzTWFya2VyMTE5OSIgbWFya2VyV2lkdGg9IjE0IiBtYXJrZXJIZWlnaHQ9IjEwIiByZWZYPSIxMCIgcmVmWT0iNSIgdmlld0JveD0iMCAwIDE0IDEwIiBvcmllbnQ9ImF1dG8iIG1hcmtlclVuaXRzPSJ1c2VyU3BhY2VPblVzZSIgc3Ryb2tlLWRhc2hhcnJheT0iMCwwIj48cGF0aCBpZD0iU3ZnanNQYXRoMTIwMCIgZD0iTTAsMCBMMTQsNSBMMCwxMCBMMCwwIiBmaWxsPSIjMzIzMjMyIiBzdHJva2U9IiMzMjMyMzIiIHN0cm9rZS13aWR0aD0iMSIvPjwvbWFya2VyPjxtYXJrZXIgaWQ9IlN2Z2pzTWFya2VyMTIyMyIgbWFya2VyV2lkdGg9IjE0IiBtYXJrZXJIZWlnaHQ9IjEwIiByZWZYPSIxMCIgcmVmWT0iNSIgdmlld0JveD0iMCAwIDE0IDEwIiBvcmllbnQ9ImF1dG8iIG1hcmtlclVuaXRzPSJ1c2VyU3BhY2VPblVzZSIgc3Ryb2tlLWRhc2hhcnJheT0iMCwwIj48cGF0aCBpZD0iU3ZnanNQYXRoMTIyNCIgZD0iTTAsMCBMMTQsNSBMMCwxMCBMMCwwIiBmaWxsPSIjMzIzMjMyIiBzdHJva2U9IiMzMjMyMzIiIHN0cm9rZS13aWR0aD0iMSIvPjwvbWFya2VyPjwvZGVmcz48ZyBpZD0iU3ZnanNHMTAwOCIgdHJhbnNmb3JtPSJ0cmFuc2xhdGUoMzEuOTU0MTQ3MzM4ODY3MTg4LDEyNS4xMDQxNjAzMDg4Mzc4OSkiPjxwYXRoIGlkPSJTdmdqc1BhdGgxMDA5IiBkPSJNIDAgNFEgMCAwIDQgMEwgMTM2IDBRIDE0MCAwIDE0MCA0TCAxNDAgNTdRIDE0MCA2MSAxMzYgNjFMIDQgNjFRIDAgNjEgMCA1N1oiIHN0cm9rZT0icmdiYSg1MCw1MCw1MCwxKSIgc3Ryb2tlLXdpZHRoPSIyIiBmaWxsLW9wYWNpdHk9IjEiIGZpbGw9IiNmZmNkZDIiLz48ZyBpZD0iU3ZnanNHMTAxMCI+PHRleHQgaWQ9IlN2Z2pzVGV4dDEwMTEiIGZvbnQtZmFtaWx5PSLlvq7ova/pm4Xpu5EiIHRleHQtYW5jaG9yPSJtaWRkbGUiIGZvbnQtc2l6ZT0iMTNweCIgd2lkdGg9IjEyMHB4IiBmaWxsPSIjMzIzMjMyIiBmb250LXdlaWdodD0iNDAwIiBhbGlnbj0ibWlkZGxlIiBsaW5laGVpZ2h0PSIxMjUlIiBhbmNob3I9Im1pZGRsZSIgZmFtaWx5PSLlvq7ova/pm4Xpu5EiIHNpemU9IjEzcHgiIHdlaWdodD0iNDAwIiBmb250LXN0eWxlPSIiIG9wYWNpdHk9IjEiIHk9IjExLjM3NSIgdHJhbnNmb3JtPSJyb3RhdGUoMCkiPjx0c3BhbiBpZD0iU3ZnanNUc3BhbjEwMTIiIGR5PSIxNiIgeD0iNzAiPjx0c3BhbiBpZD0iU3ZnanNUc3BhbjEwMTMiIHN0eWxlPSJ0ZXh0LWRlY29yYXRpb246OyI+Q29uZGl0aW9uT2JqZWN0IDwvdHNwYW4+PC90c3Bhbj48dHNwYW4gaWQ9IlN2Z2pzVHNwYW4xMDE0IiBkeT0iMTYiIHg9IjcwIj48dHNwYW4gaWQ9IlN2Z2pzVHNwYW4xMDE1IiBzdHlsZT0idGV4dC1kZWNvcmF0aW9uOjsiPmF3YWl05Ye95pWwPC90c3Bhbj48L3RzcGFuPjwvdGV4dD48L2c+PC9nPjxnIGlkPSJTdmdqc0cxMDE2IiB0cmFuc2Zvcm09InRyYW5zbGF0ZSgyOS45NTQxNDczMzg4NjcxODgsMjUuMDA0MTc3MDkzNTA1ODYpIj48cGF0aCBpZD0iU3ZnanNQYXRoMTAxNyIgZD0iTSAwIDBMIDE3MCAwTCAxNzAgOTJMIDAgOTJaIiBzdHJva2U9Im5vbmUiIGZpbGw9Im5vbmUiLz48ZyBpZD0iU3ZnanNHMTAxOCI+PHRleHQgaWQ9IlN2Z2pzVGV4dDEwMTkiIGZvbnQtZmFtaWx5PSLlvq7ova/pm4Xpu5EiIHRleHQtYW5jaG9yPSJtaWRkbGUiIGZvbnQtc2l6ZT0iMTNweCIgd2lkdGg9IjE3MHB4IiBmaWxsPSIjN2IxZmEyIiBmb250LXdlaWdodD0iNDAwIiBhbGlnbj0ibWlkZGxlIiBsaW5laGVpZ2h0PSIxMjUlIiBhbmNob3I9Im1pZGRsZSIgZmFtaWx5PSLlvq7ova/pm4Xpu5EiIHNpemU9IjEzcHgiIHdlaWdodD0iNDAwIiBmb250LXN0eWxlPSIiIG9wYWNpdHk9IjEiIHk9IjEwLjg3NSIgdHJhbnNmb3JtPSJyb3RhdGUoMCkiPjx0c3BhbiBpZD0iU3ZnanNUc3BhbjEwMjAiIGR5PSIxNiIgeD0iODUiPjx0c3BhbiBpZD0iU3ZnanNUc3BhbjEwMjEiIHN0eWxlPSJ0ZXh0LWRlY29yYXRpb246OyI+Q29uZGl0aW9uT2JqZWN05Lit55u45b2T5LqO57u0PC90c3Bhbj48L3RzcGFuPjx0c3BhbiBpZD0iU3ZnanNUc3BhbjEwMjIiIGR5PSIxNiIgeD0iODUiPjx0c3BhbiBpZD0iU3ZnanNUc3BhbjEwMjMiIHN0eWxlPSJ0ZXh0LWRlY29yYXRpb246OyI+5oqk5LqG5LiA5LiqTm9kZeWNlemTvuihqO+8jOmAu+i+kTwvdHNwYW4+PC90c3Bhbj48dHNwYW4gaWQ9IlN2Z2pzVHNwYW4xMDI0IiBkeT0iMTYiIHg9Ijg1Ij48dHNwYW4gaWQ9IlN2Z2pzVHNwYW4xMDI1IiBzdHlsZT0idGV4dC1kZWNvcmF0aW9uOjsiPuS4iuihqOekuuadoeS7tumYn+WIl++8jOexu+S8vOS6jjwvdHNwYW4+PC90c3Bhbj48dHNwYW4gaWQ9IlN2Z2pzVHNwYW4xMDI2IiBkeT0iMTYiIHg9Ijg1Ij48dHNwYW4gaWQ9IlN2Z2pzVHNwYW4xMDI3IiBzdHlsZT0idGV4dC1kZWNvcmF0aW9uOjsiPnN5bmNocm9uaXpl6ZSB55qEd2FpdFNldDwvdHNwYW4+PC90c3Bhbj48L3RleHQ+PC9nPjwvZz48ZyBpZD0iU3ZnanNHMTAyOCIgdHJhbnNmb3JtPSJ0cmFuc2xhdGUoMjIyLjA1NDEzODE4MzU5Mzc1LDM1LjAwNDM4MTE3OTgwOTU3KSI+PHBhdGggaWQ9IlN2Z2pzUGF0aDEwMjkiIGQ9Ik0gMCAwTCA2NTguOTAwMDA5MTU1MjczNCAwTCA2NzQuOTAwMDA5MTU1MjczNCAxNkwgNjc0LjkwMDAwOTE1NTI3MzQgNTg2LjE5OTc1NDcxNDk2NThMIDAgNTg2LjE5OTc1NDcxNDk2NThMIDAgMFoiIHN0cm9rZT0ibm9uZSIgZmlsbC1vcGFjaXR5PSIxIiBmaWxsPSIjZmZmZmFhIi8+PHBhdGggaWQ9IlN2Z2pzUGF0aDEwMzAiIGQ9Ik0gNjU4LjkwMDAwOTE1NTI3MzQgMEwgNjU4LjkwMDAwOTE1NTI3MzQgMTZMIDY3NC45MDAwMDkxNTUyNzM0IDE2WiIgc3Ryb2tlPSJub25lIiBmaWxsLW9wYWNpdHk9IjEiIGZpbGw9IiNjZGNkY2QiLz48cGF0aCBpZD0iU3ZnanNQYXRoMTAzMSIgZD0iTSAwIDBMIDY1OC45MDAwMDkxNTUyNzM0IDBMIDY3NC45MDAwMDkxNTUyNzM0IDE2TCA2NzQuOTAwMDA5MTU1MjczNCA1ODYuMTk5NzU0NzE0OTY1OEwgMCA1ODYuMTk5NzU0NzE0OTY1OEwgMCAwWiIgc3Ryb2tlPSJub25lIiBmaWxsPSJub25lIi8+PGcgaWQ9IlN2Z2pzRzEwMzIiPjx0ZXh0IGlkPSJTdmdqc1RleHQxMDMzIiBmb250LWZhbWlseT0i5b6u6L2v6ZuF6buRIiB0ZXh0LWFuY2hvcj0ibWlkZGxlIiBmb250LXNpemU9IjEzcHgiIHdpZHRoPSI2NTVweCIgZmlsbD0iIzMyMzIzMiIgZm9udC13ZWlnaHQ9IjQwMCIgYWxpZ249Im1pZGRsZSIgbGluZWhlaWdodD0iMTI1JSIgYW5jaG9yPSJtaWRkbGUiIGZhbWlseT0i5b6u6L2v6ZuF6buRIiBzaXplPSIxM3B4IiB3ZWlnaHQ9IjQwMCIgZm9udC1zdHlsZT0iIiBvcGFjaXR5PSIxIiB5PSIyODIuNDc0ODc3MzU3NDgyOSIgdHJhbnNmb3JtPSJyb3RhdGUoMCkiLz48L2c+PC9nPjxnIGlkPSJTdmdqc0cxMDM0IiB0cmFuc2Zvcm09InRyYW5zbGF0ZSgyOTcuOTU0MTQ3MzM4ODY3Miw1NC4xMDQxNjAzMDg4Mzc4OSkiPjxwYXRoIGlkPSJTdmdqc1BhdGgxMDM1IiBkPSJNIDAgMzAuNUwgNzAgMEwgMTQwIDMwLjVMIDcwIDYxWiIgc3Ryb2tlPSJyZ2JhKDUwLDUwLDUwLDEpIiBzdHJva2Utd2lkdGg9IjIiIGZpbGwtb3BhY2l0eT0iMSIgZmlsbD0iI2ZmYjc0ZCIvPjxnIGlkPSJTdmdqc0cxMDM2Ij48dGV4dCBpZD0iU3ZnanNUZXh0MTAzNyIgZm9udC1mYW1pbHk9IuW+rui9r+mbhem7kSIgdGV4dC1hbmNob3I9Im1pZGRsZSIgZm9udC1zaXplPSIxM3B4IiB3aWR0aD0iMTIwcHgiIGZpbGw9IiMzMjMyMzIiIGZvbnQtd2VpZ2h0PSI0MDAiIGFsaWduPSJtaWRkbGUiIGxpbmVoZWlnaHQ9IjEyNSUiIGFuY2hvcj0ibWlkZGxlIiBmYW1pbHk9IuW+rui9r+mbhem7kSIgc2l6ZT0iMTNweCIgd2VpZ2h0PSI0MDAiIGZvbnQtc3R5bGU9IiIgb3BhY2l0eT0iMSIgeT0iMTEuNjgiIHRyYW5zZm9ybT0icm90YXRlKDApIj48dHNwYW4gaWQ9IlN2Z2pzVHNwYW4xMDM4IiBkeT0iMTYiIHg9IjcwIj48dHNwYW4gaWQ9IlN2Z2pzVHNwYW4xMDM5IiBzdHlsZT0idGV4dC1kZWNvcmF0aW9uOjsiPuafpeeci+e6v+eoi+aYr+WQpuiiq+aJk+aWrTwvdHNwYW4+PC90c3Bhbj48dHNwYW4gaWQ9IlN2Z2pzVHNwYW4xMDQwIiBkeT0iMTYiIHg9IjcwIj48dHNwYW4gaWQ9IlN2Z2pzVHNwYW4xMDQxIiBzdHlsZT0idGV4dC1kZWNvcmF0aW9uOjsiPu+8iOWIpOaWreaJk+aWreagh+iusO+8iTwvdHNwYW4+PC90c3Bhbj48L3RleHQ+PC9nPjwvZz48ZyBpZD0iU3ZnanNHMTA0MiI+PHBhdGggaWQ9IlN2Z2pzUGF0aDEwNDMiIGQ9Ik00MzguOTU0MTQ3MzM4ODY3MiA4NC42MDQxNjAzMDg4Mzc4OUw0NzYuNTA0MTQyNzYxMjMwNDcgODQuNjA0MTYwMzA4ODM3ODlMNDc2LjUwNDE0Mjc2MTIzMDQ3IDg0LjYwNDE2MDMwODgzNzg5TDUxMi4zNTQxNDczMzg4NjcyIDg0LjYwNDE2MDMwODgzNzg5IiBzdHJva2U9IiMzMjMyMzIiIHN0cm9rZS13aWR0aD0iMiIgZmlsbD0ibm9uZSIgbWFya2VyLWVuZD0idXJsKCNTdmdqc01hcmtlcjEwNDQpIi8+PHJlY3QgaWQ9IlN2Z2pzUmVjdDEwNDYiIHdpZHRoPSIxMyIgaGVpZ2h0PSIxNiIgeD0iNDY5LjE1NDE0NzMzODg2NzIiIHk9Ijc2LjYwNDE2MDMwODgzNzg5IiBmaWxsPSIjZmZmZmZmIi8+PHRleHQgaWQ9IlN2Z2pzVGV4dDEwNDciIGZvbnQtZmFtaWx5PSLlvq7ova/pm4Xpu5EiIHRleHQtYW5jaG9yPSJtaWRkbGUiIGZvbnQtc2l6ZT0iMTNweCIgd2lkdGg9IjEzcHgiIGZpbGw9IiMzMjMyMzIiIGZvbnQtd2VpZ2h0PSI0MDAiIGFsaWduPSJ0b3AiIGxpbmVoZWlnaHQ9IjE2cHgiIGFuY2hvcj0ibWlkZGxlIiBmYW1pbHk9IuW+rui9r+mbhem7kSIgc2l6ZT0iMTNweCIgd2VpZ2h0PSI0MDAiIGZvbnQtc3R5bGU9IiIgb3BhY2l0eT0iMSIgeT0iNzMuOTc5MTYwMzA4ODM3ODkiIHRyYW5zZm9ybT0icm90YXRlKDApIj48dHNwYW4gaWQ9IlN2Z2pzVHNwYW4xMDQ4IiBkeT0iMTYiIHg9IjQ3NS42NTQxNDczMzg4NjcyIj48dHNwYW4gaWQ9IlN2Z2pzVHNwYW4xMDQ5IiBzdHlsZT0idGV4dC1kZWNvcmF0aW9uOjsiPuaYrzwvdHNwYW4+PC90c3Bhbj48L3RleHQ+PC9nPjxnIGlkPSJTdmdqc0cxMDUwIiB0cmFuc2Zvcm09InRyYW5zbGF0ZSg1MTUuOTU0MTQ3MzM4ODY3Miw2Mi42MDQxNjAzMDg4Mzc4OSkiPjxwYXRoIGlkPSJTdmdqc1BhdGgxMDUxIiBkPSJNIDAgMEwgMTAwIDBMIDEwMCA0NEwgMCA0NFoiIHN0cm9rZT0icmdiYSg1MCw1MCw1MCwxKSIgc3Ryb2tlLXdpZHRoPSIyIiBmaWxsLW9wYWNpdHk9IjEiIGZpbGw9IiMwMGJjZDQiLz48ZyBpZD0iU3ZnanNHMTA1MiI+PHRleHQgaWQ9IlN2Z2pzVGV4dDEwNTMiIGZvbnQtZmFtaWx5PSLlvq7ova/pm4Xpu5EiIHRleHQtYW5jaG9yPSJtaWRkbGUiIGZvbnQtc2l6ZT0iMTNweCIgd2lkdGg9IjgwcHgiIGZpbGw9IiMzMjMyMzIiIGZvbnQtd2VpZ2h0PSI0MDAiIGFsaWduPSJtaWRkbGUiIGxpbmVoZWlnaHQ9IjEyNSUiIGFuY2hvcj0ibWlkZGxlIiBmYW1pbHk9IuW+rui9r+mbhem7kSIgc2l6ZT0iMTNweCIgd2VpZ2h0PSI0MDAiIGZvbnQtc3R5bGU9IiIgb3BhY2l0eT0iMSIgeT0iMTEuMzc1IiB0cmFuc2Zvcm09InJvdGF0ZSgwKSI+PHRzcGFuIGlkPSJTdmdqc1RzcGFuMTA1NCIgZHk9IjE2IiB4PSI1MCI+PHRzcGFuIGlkPSJTdmdqc1RzcGFuMTA1NSIgc3R5bGU9InRleHQtZGVjb3JhdGlvbjo7Ij7mipvlh7rlvILluLg8L3RzcGFuPjwvdHNwYW4+PC90ZXh0PjwvZz48L2c+PGcgaWQ9IlN2Z2pzRzEwNTYiPjxwYXRoIGlkPSJTdmdqc1BhdGgxMDU3IiBkPSJNMzY3Ljk1NDE0NzMzODg2NzIgMTE2LjEwNDE2MDMwODgzNzg5TDM2Ny45NTQxNDczMzg4NjcyIDE0Ni4xNTQxNzQ4MDQ2ODc1TDM2Ny45NTQxNDczMzg4NjcyIDE0Ni4xNTQxNzQ4MDQ2ODc1TDM2Ny45NTQxNDczMzg4NjcyIDE3Ni4wMDQxNjAzMDg4Mzc5IiBzdHJva2U9IiMzMjMyMzIiIHN0cm9rZS13aWR0aD0iMiIgZmlsbD0ibm9uZSIgbWFya2VyLWVuZD0idXJsKCNTdmdqc01hcmtlcjEwNTgpIi8+PHJlY3QgaWQ9IlN2Z2pzUmVjdDEwNjAiIHdpZHRoPSIxMyIgaGVpZ2h0PSIxNiIgeD0iMzYxLjQ1NDE0NzMzODg2NzIiIHk9IjEzOC4wNTQxNjAzMDg4Mzc4OCIgZmlsbD0iI2ZmZmZmZiIvPjx0ZXh0IGlkPSJTdmdqc1RleHQxMDYxIiBmb250LWZhbWlseT0i5b6u6L2v6ZuF6buRIiB0ZXh0LWFuY2hvcj0ibWlkZGxlIiBmb250LXNpemU9IjEzcHgiIHdpZHRoPSIxM3B4IiBmaWxsPSIjMzIzMjMyIiBmb250LXdlaWdodD0iNDAwIiBhbGlnbj0idG9wIiBsaW5laGVpZ2h0PSIxNnB4IiBhbmNob3I9Im1pZGRsZSIgZmFtaWx5PSLlvq7ova/pm4Xpu5EiIHNpemU9IjEzcHgiIHdlaWdodD0iNDAwIiBmb250LXN0eWxlPSIiIG9wYWNpdHk9IjEiIHk9IjEzNS40MjkxNjAzMDg4Mzc4OCIgdHJhbnNmb3JtPSJyb3RhdGUoMCkiPjx0c3BhbiBpZD0iU3ZnanNUc3BhbjEwNjIiIGR5PSIxNiIgeD0iMzY3Ljk1NDE0NzMzODg2NzIiPjx0c3BhbiBpZD0iU3ZnanNUc3BhbjEwNjMiIHN0eWxlPSJ0ZXh0LWRlY29yYXRpb246OyI+5ZCmPC90c3Bhbj48L3RzcGFuPjwvdGV4dD48L2c+PGcgaWQ9IlN2Z2pzRzEwNjQiIHRyYW5zZm9ybT0idHJhbnNsYXRlKDI2Ny45NTQxNDczMzg4NjcyLDE3OS42MDQxNjAzMDg4Mzc5KSI+PHBhdGggaWQ9IlN2Z2pzUGF0aDEwNjUiIGQ9Ik0gMCA0USAwIDAgNCAwTCAxOTYgMFEgMjAwIDAgMjAwIDRMIDIwMCA0MFEgMjAwIDQ0IDE5NiA0NEwgNCA0NFEgMCA0NCAwIDQwWiIgc3Ryb2tlPSJyZ2JhKDUwLDUwLDUwLDEpIiBzdHJva2Utd2lkdGg9IjIiIGZpbGwtb3BhY2l0eT0iMSIgZmlsbD0iI2ZmZmZmZiIvPjxnIGlkPSJTdmdqc0cxMDY2Ij48dGV4dCBpZD0iU3ZnanNUZXh0MTA2NyIgZm9udC1mYW1pbHk9IuW+rui9r+mbhem7kSIgdGV4dC1hbmNob3I9Im1pZGRsZSIgZm9udC1zaXplPSIxM3B4IiB3aWR0aD0iMTgwcHgiIGZpbGw9IiMzMjMyMzIiIGZvbnQtd2VpZ2h0PSI0MDAiIGFsaWduPSJtaWRkbGUiIGxpbmVoZWlnaHQ9IjEyNSUiIGFuY2hvcj0ibWlkZGxlIiBmYW1pbHk9IuW+rui9r+mbhem7kSIgc2l6ZT0iMTNweCIgd2VpZ2h0PSI0MDAiIGZvbnQtc3R5bGU9IiIgb3BhY2l0eT0iMSIgeT0iMTEuMzc1IiB0cmFuc2Zvcm09InJvdGF0ZSgwKSI+PHRzcGFuIGlkPSJTdmdqc1RzcGFuMTA2OCIgZHk9IjE2IiB4PSIxMDAiPjx0c3BhbiBpZD0iU3ZnanNUc3BhbjEwNjkiIHN0eWxlPSJ0ZXh0LWRlY29yYXRpb246OyI+6LCD55SoYWRkQ29uZGl0aW9uV2FpdGVy5Ye95pWwPC90c3Bhbj48L3RzcGFuPjwvdGV4dD48L2c+PC9nPjxnIGlkPSJTdmdqc0cxMDcwIj48cGF0aCBpZD0iU3ZnanNQYXRoMTA3MSIgZD0iTTQ2OC45NTQxNDczMzg4NjcyIDIwMC4xMDQxNjAzMDg4Mzc5TDUwNS4yOTc4OTczMzg4NjcyIDIwMC4xMDQxNjAzMDg4Mzc5TDUwNS4yOTc4OTczMzg4NjcyIDIwMC4xMDQxNjAzMDg4Mzc5TDU0MS4wNDE2NDczMzg4NjcyIDIwMC4xMDQxNjAzMDg4Mzc5IiBzdHJva2UtZGFzaGFycmF5PSIzLDMiIHN0cm9rZT0iIzMyMzIzMiIgc3Ryb2tlLXdpZHRoPSIyIiBmaWxsPSJub25lIiBtYXJrZXItZW5kPSJ1cmwoI1N2Z2pzTWFya2VyMTA3MikiLz48L2c+PGcgaWQ9IlN2Z2pzRzEwNzQiIHRyYW5zZm9ybT0idHJhbnNsYXRlKDU0NC42NDE2NDczMzg4NjcyLDExOC4xMDQxNjAzMDg4Mzc4OSkiPjxwYXRoIGlkPSJTdmdqc1BhdGgxMDc1IiBkPSJNIDAgNFEgMCAwIDQgMEwgMTg2LjYyNSAwUSAxOTAuNjI1IDAgMTkwLjYyNSA0TCAxOTAuNjI1IDE2M1EgMTkwLjYyNSAxNjcgMTg2LjYyNSAxNjdMIDQgMTY3USAwIDE2NyAwIDE2M1oiIHN0cm9rZT0icmdiYSg1MCw1MCw1MCwxKSIgc3Ryb2tlLXdpZHRoPSIyIiBmaWxsLW9wYWNpdHk9IjEiIGZpbGw9IiMyMTk2ZjMiLz48ZyBpZD0iU3ZnanNHMTA3NiI+PHRleHQgaWQ9IlN2Z2pzVGV4dDEwNzciIGZvbnQtZmFtaWx5PSLlvq7ova/pm4Xpu5EiIHRleHQtYW5jaG9yPSJtaWRkbGUiIGZvbnQtc2l6ZT0iMTNweCIgd2lkdGg9IjE3MXB4IiBmaWxsPSIjMzIzMjMyIiBmb250LXdlaWdodD0iNDAwIiBhbGlnbj0ibWlkZGxlIiBsaW5laGVpZ2h0PSIxMjUlIiBhbmNob3I9Im1pZGRsZSIgZmFtaWx5PSLlvq7ova/pm4Xpu5EiIHNpemU9IjEzcHgiIHdlaWdodD0iNDAwIiBmb250LXN0eWxlPSIiIG9wYWNpdHk9IjEiIHk9IjcyLjg3NSIgdHJhbnNmb3JtPSJyb3RhdGUoMCkiLz48L2c+PC9nPjxnIGlkPSJTdmdqc0cxMDc4IiB0cmFuc2Zvcm09InRyYW5zbGF0ZSg1NjEuNDU0MTQ3MzM4ODY3MiwxMjUuMTA0MTYwMzA4ODM3ODkpIj48cGF0aCBpZD0iU3ZnanNQYXRoMTA3OSIgZD0iTSAwIDBMIDE1NyAwTCAxNTcgNjFMIDAgNjFaIiBzdHJva2U9InJnYmEoNTAsNTAsNTAsMSkiIHN0cm9rZS13aWR0aD0iMiIgZmlsbC1vcGFjaXR5PSIxIiBmaWxsPSIjZmZmZmZmIi8+PGcgaWQ9IlN2Z2pzRzEwODAiPjx0ZXh0IGlkPSJTdmdqc1RleHQxMDgxIiBmb250LWZhbWlseT0i5b6u6L2v6ZuF6buRIiB0ZXh0LWFuY2hvcj0ibWlkZGxlIiBmb250LXNpemU9IjEzcHgiIHdpZHRoPSIxMzdweCIgZmlsbD0iIzMyMzIzMiIgZm9udC13ZWlnaHQ9IjQwMCIgYWxpZ249Im1pZGRsZSIgbGluZWhlaWdodD0iMTI1JSIgYW5jaG9yPSJtaWRkbGUiIGZhbWlseT0i5b6u6L2v6ZuF6buRIiBzaXplPSIxM3B4IiB3ZWlnaHQ9IjQwMCIgZm9udC1zdHlsZT0iIiBvcGFjaXR5PSIxIiB5PSIzLjM3NSIgdHJhbnNmb3JtPSJyb3RhdGUoMCkiPjx0c3BhbiBpZD0iU3ZnanNUc3BhbjEwODIiIGR5PSIxNiIgeD0iNzguNSI+PHRzcGFuIGlkPSJTdmdqc1RzcGFuMTA4MyIgc3R5bGU9InRleHQtZGVjb3JhdGlvbjo7Ij7ku47pk77ooajkuK3liKDpmaTnirbmgIHkuI3kuLo8L3RzcGFuPjwvdHNwYW4+PHRzcGFuIGlkPSJTdmdqc1RzcGFuMTA4NCIgZHk9IjE2IiB4PSI3OC41Ij48dHNwYW4gaWQ9IlN2Z2pzVHNwYW4xMDg1IiBzdHlsZT0idGV4dC1kZWNvcmF0aW9uOjsiPmNvbmRpdGlvbueahOiKgueCuTwvdHNwYW4+PC90c3Bhbj48dHNwYW4gaWQ9IlN2Z2pzVHNwYW4xMDg2IiBkeT0iMTYiIHg9Ijc4LjUiPjx0c3BhbiBpZD0iU3ZnanNUc3BhbjEwODciIHN0eWxlPSJ0ZXh0LWRlY29yYXRpb246OyI+77yI6L+Z5Lqb6IqC54K55bey5Y+W5raI77yJPC90c3Bhbj48L3RzcGFuPjwvdGV4dD48L2c+PC9nPjxnIGlkPSJTdmdqc0cxMDg4Ij48cGF0aCBpZD0iU3ZnanNQYXRoMTA4OSIgZD0iTTYzOS44NjY2MzgxODM1OTM4IDE4Ny4xMDQxNjAzMDg4Mzc5TDYzOS44NjY2MzgxODM1OTM4IDE5My44NTQxOTA4MjY0MTYwMkw2MzkuODY2NjM4MTgzNTkzOCAxOTMuODU0MTkwODI2NDE2MDJMNjM5Ljg2NjYzODE4MzU5MzggMjAxLjI1NDIxNzA1MjQ1OTcyIiBzdHJva2U9IiMzMjMyMzIiIHN0cm9rZS13aWR0aD0iMiIgZmlsbD0ibm9uZSIgbWFya2VyLWVuZD0idXJsKCNTdmdqc01hcmtlcjEwOTApIi8+PC9nPjxnIGlkPSJTdmdqc0cxMDkyIiB0cmFuc2Zvcm09InRyYW5zbGF0ZSg1NjEuNDU0MTQ3MzM4ODY3MiwyMDQuODU0MjE3MDUyNDU5NzIpIj48cGF0aCBpZD0iU3ZnanNQYXRoMTA5MyIgZD0iTSAwIDBMIDE1NyAwTCAxNTcgNjhMIDAgNjhaIiBzdHJva2U9InJnYmEoNTAsNTAsNTAsMSkiIHN0cm9rZS13aWR0aD0iMiIgZmlsbC1vcGFjaXR5PSIxIiBmaWxsPSIjZmZmZmZmIi8+PGcgaWQ9IlN2Z2pzRzEwOTQiPjx0ZXh0IGlkPSJTdmdqc1RleHQxMDk1IiBmb250LWZhbWlseT0i5b6u6L2v6ZuF6buRIiB0ZXh0LWFuY2hvcj0ibWlkZGxlIiBmb250LXNpemU9IjEzcHgiIHdpZHRoPSIxMzdweCIgZmlsbD0iIzMyMzIzMiIgZm9udC13ZWlnaHQ9IjQwMCIgYWxpZ249Im1pZGRsZSIgbGluZWhlaWdodD0iMTI1JSIgYW5jaG9yPSJtaWRkbGUiIGZhbWlseT0i5b6u6L2v6ZuF6buRIiBzaXplPSIxM3B4IiB3ZWlnaHQ9IjQwMCIgZm9udC1zdHlsZT0iIiBvcGFjaXR5PSIxIiB5PSItMS4xMjUiIHRyYW5zZm9ybT0icm90YXRlKDApIj48dHNwYW4gaWQ9IlN2Z2pzVHNwYW4xMDk2IiBkeT0iMTYiIHg9Ijc4LjUiPjx0c3BhbiBpZD0iU3ZnanNUc3BhbjEwOTciIHN0eWxlPSJ0ZXh0LWRlY29yYXRpb246OyI+5b2T5YmN57q/56iL5bCB6KOF5YiwPC90c3Bhbj48L3RzcGFuPjx0c3BhbiBpZD0iU3ZnanNUc3BhbjEwOTgiIGR5PSIxNiIgeD0iNzguNSI+PHRzcGFuIGlkPSJTdmdqc1RzcGFuMTA5OSIgc3R5bGU9InRleHQtZGVjb3JhdGlvbjo7Ij5Ob2Rl77yM54q25oCB5Li6PC90c3Bhbj48L3RzcGFuPjx0c3BhbiBpZD0iU3ZnanNUc3BhbjExMDAiIGR5PSIxNiIgeD0iNzguNSI+PHRzcGFuIGlkPSJTdmdqc1RzcGFuMTEwMSIgc3R5bGU9InRleHQtZGVjb3JhdGlvbjo7Ij5Db25kaXRpb27vvIzliqDlhaXliLDljZU8L3RzcGFuPjwvdHNwYW4+PHRzcGFuIGlkPSJTdmdqc1RzcGFuMTEwMiIgZHk9IjE2IiB4PSI3OC41Ij48dHNwYW4gaWQ9IlN2Z2pzVHNwYW4xMTAzIiBzdHlsZT0idGV4dC1kZWNvcmF0aW9uOjsiPumTvuihqOS4re+8iFdhaXRTZXTvvIk8L3RzcGFuPjwvdHNwYW4+PC90ZXh0PjwvZz48L2c+PGcgaWQ9IlN2Z2pzRzExMDQiPjxwYXRoIGlkPSJTdmdqc1BhdGgxMTA1IiBkPSJNMzY3Ljk1NDE0NzMzODg2NzIgMjI0LjYwNDE2MDMwODgzNzlMMzY3Ljk1NDE0NzMzODg2NzIgMjYwLjE1NDIxNjI4OTUyMDI2TDM2Ny45NTQxNDczMzg4NjcyIDI2MC4xNTQyMTYyODk1MjAyNkwzNjcuOTU0MTQ3MzM4ODY3MiAyOTQuMDA0MjU4NTM3MjkyNDYiIHN0cm9rZT0iIzMyMzIzMiIgc3Ryb2tlLXdpZHRoPSIyIiBmaWxsPSJub25lIiBtYXJrZXItZW5kPSJ1cmwoI1N2Z2pzTWFya2VyMTEwNikiLz48L2c+PGcgaWQ9IlN2Z2pzRzExMDgiIHRyYW5zZm9ybT0idHJhbnNsYXRlKDI2Ny45NTQxNDczMzg4NjcyLDI5Ny42MDQyNTg1MzcyOTI1KSI+PHBhdGggaWQ9IlN2Z2pzUGF0aDExMDkiIGQ9Ik0gMCA0USAwIDAgNCAwTCAxOTYgMFEgMjAwIDAgMjAwIDRMIDIwMCA0MFEgMjAwIDQ0IDE5NiA0NEwgNCA0NFEgMCA0NCAwIDQwWiIgc3Ryb2tlPSJyZ2JhKDUwLDUwLDUwLDEpIiBzdHJva2Utd2lkdGg9IjIiIGZpbGwtb3BhY2l0eT0iMSIgZmlsbD0iI2ZmZmZmZiIvPjxnIGlkPSJTdmdqc0cxMTEwIj48dGV4dCBpZD0iU3ZnanNUZXh0MTExMSIgZm9udC1mYW1pbHk9IuW+rui9r+mbhem7kSIgdGV4dC1hbmNob3I9Im1pZGRsZSIgZm9udC1zaXplPSIxM3B4IiB3aWR0aD0iMTgwcHgiIGZpbGw9IiMzMjMyMzIiIGZvbnQtd2VpZ2h0PSI0MDAiIGFsaWduPSJtaWRkbGUiIGxpbmVoZWlnaHQ9IjEyNSUiIGFuY2hvcj0ibWlkZGxlIiBmYW1pbHk9IuW+rui9r+mbhem7kSIgc2l6ZT0iMTNweCIgd2VpZ2h0PSI0MDAiIGZvbnQtc3R5bGU9IiIgb3BhY2l0eT0iMSIgeT0iMTEuMzc1IiB0cmFuc2Zvcm09InJvdGF0ZSgwKSI+PHRzcGFuIGlkPSJTdmdqc1RzcGFuMTExMiIgZHk9IjE2IiB4PSIxMDAiPjx0c3BhbiBpZD0iU3ZnanNUc3BhbjExMTMiIHN0eWxlPSJ0ZXh0LWRlY29yYXRpb246OyI+6LCD55SoZnVsbHlSZWxlYXNl5Ye95pWwPC90c3Bhbj48L3RzcGFuPjwvdGV4dD48L2c+PC9nPjxnIGlkPSJTdmdqc0cxMTE0IiB0cmFuc2Zvcm09InRyYW5zbGF0ZSg0ODAuNTA0MTQyNzYxMjMwNDcsMjk3LjYwNDI1ODUzNzI5MjUpIj48cGF0aCBpZD0iU3ZnanNQYXRoMTExNSIgZD0iTSAwIDBMIDQxNSAwTCA0MTUgNjFMIDAgNjFaIiBzdHJva2U9Im5vbmUiIGZpbGw9Im5vbmUiLz48ZyBpZD0iU3ZnanNHMTExNiI+PHRleHQgaWQ9IlN2Z2pzVGV4dDExMTciIGZvbnQtZmFtaWx5PSLlvq7ova/pm4Xpu5EiIHRleHQtYW5jaG9yPSJzdGFydCIgZm9udC1zaXplPSIxM3B4IiB3aWR0aD0iNDE1cHgiIGZpbGw9IiM3YjFmYTIiIGZvbnQtd2VpZ2h0PSI0MDAiIGFsaWduPSJtaWRkbGUiIGxpbmVoZWlnaHQ9IjEyNSUiIGFuY2hvcj0ic3RhcnQiIGZhbWlseT0i5b6u6L2v6ZuF6buRIiBzaXplPSIxM3B4IiB3ZWlnaHQ9IjQwMCIgZm9udC1zdHlsZT0iIiBvcGFjaXR5PSIxIiB5PSItNC42MjUiIHRyYW5zZm9ybT0icm90YXRlKDApIj48dHNwYW4gaWQ9IlN2Z2pzVHNwYW4xMTE4IiBkeT0iMTYiIHg9IjAiPjx0c3BhbiBpZD0iU3ZnanNUc3BhbjExMTkiIHN0eWxlPSJ0ZXh0LWRlY29yYXRpb246OyI+6L+Z5Liq5Ye95pWw5Y+v5Lul5bCG5b2T5YmN57q/56iL5Y2g5pyJ55qE6ZSB5a6M5YWo6Kej6Zmk77yM5Y2z5ZCO6Z2i6LCD55SoPC90c3Bhbj48L3RzcGFuPjx0c3BhbiBpZD0iU3ZnanNUc3BhbjExMjAiIGR5PSIxNiIgeD0iMCI+PHRzcGFuIGlkPSJTdmdqc1RzcGFuMTEyMSIgc3R5bGU9InRleHQtZGVjb3JhdGlvbjo7Ij5yZWxlYXNlKGN1clN0YXRlKeOAgjwvdHNwYW4+PHRzcGFuIGlkPSJTdmdqc1RzcGFuMTEyMiIgc3R5bGU9InRleHQtZGVjb3JhdGlvbjo7Zm9udC1zaXplOiBpbmhlcml0OyI+55Sx5LqOcmVsZWFzZeiwg+eUqOeahHRyeVJlbGVhc2XkvJrmo4Dmn6Xop6PplIHnmoTmmK/lkKbmmK88L3RzcGFuPjwvdHNwYW4+PHRzcGFuIGlkPSJTdmdqc1RzcGFuMTEyMyIgZHk9IjE2IiB4PSIwIj48dHNwYW4gaWQ9IlN2Z2pzVHNwYW4xMTI0IiBzdHlsZT0idGV4dC1kZWNvcmF0aW9uOjtmb250LXNpemU6IGluaGVyaXQ7Ij5vd25lcu+8jOWboOiAjOWPr+S7peS/neivgei/meS4quWHveaVsOWujOWFqOaYr+WNlee6v+eoi+iwg+eUqOeahO+8jOS5n+WPr+S7peS/neivgeaYr+WcqDwvdHNwYW4+PC90c3Bhbj48dHNwYW4gaWQ9IlN2Z2pzVHNwYW4xMTI1IiBkeT0iMTYiIHg9IjAiPjx0c3BhbiBpZD0iU3ZnanNUc3BhbjExMjYiIHN0eWxlPSJ0ZXh0LWRlY29yYXRpb246O2ZvbnQtc2l6ZTogaW5oZXJpdDsiPmxvY2vkuYvlkI7lho3osIPnlKjnmoQ8L3RzcGFuPjwvdHNwYW4+PC90ZXh0PjwvZz48L2c+PGcgaWQ9IlN2Z2pzRzExMjciIHRyYW5zZm9ybT0idHJhbnNsYXRlKDI4Mi45NTQxNDczMzg4NjcyLDM4NC42MDQxNzU1Njc2MjY5NSkiPjxwYXRoIGlkPSJTdmdqc1BhdGgxMTI4IiBkPSJNIDAgMzAuNUwgODUgMEwgMTcwIDMwLjVMIDg1IDYxWiIgc3Ryb2tlPSJyZ2JhKDUwLDUwLDUwLDEpIiBzdHJva2Utd2lkdGg9IjIiIGZpbGwtb3BhY2l0eT0iMSIgZmlsbD0iI2ZmYjc0ZCIvPjxnIGlkPSJTdmdqc0cxMTI5Ij48dGV4dCBpZD0iU3ZnanNUZXh0MTEzMCIgZm9udC1mYW1pbHk9IuW+rui9r+mbhem7kSIgdGV4dC1hbmNob3I9Im1pZGRsZSIgZm9udC1zaXplPSIxM3B4IiB3aWR0aD0iMTUwcHgiIGZpbGw9IiMzMjMyMzIiIGZvbnQtd2VpZ2h0PSI0MDAiIGFsaWduPSJtaWRkbGUiIGxpbmVoZWlnaHQ9IjEyNSUiIGFuY2hvcj0ibWlkZGxlIiBmYW1pbHk9IuW+rui9r+mbhem7kSIgc2l6ZT0iMTNweCIgd2VpZ2h0PSI0MDAiIGZvbnQtc3R5bGU9IiIgb3BhY2l0eT0iMSIgeT0iMy42ODAwMDAwMDAwMDAwMDA2IiB0cmFuc2Zvcm09InJvdGF0ZSgwKSI+PHRzcGFuIGlkPSJTdmdqc1RzcGFuMTEzMSIgZHk9IjE2IiB4PSI4NSI+PHRzcGFuIGlkPSJTdmdqc1RzcGFuMTEzMiIgc3R5bGU9InRleHQtZGVjb3JhdGlvbjo7Ij5ub2Rl5piv5ZCm5Zyo5ZCM5q2l6Zif5YiX5LitPC90c3Bhbj48L3RzcGFuPjx0c3BhbiBpZD0iU3ZnanNUc3BhbjExMzMiIGR5PSIxNiIgeD0iODUiPjx0c3BhbiBpZD0iU3ZnanNUc3BhbjExMzQiIHN0eWxlPSJ0ZXh0LWRlY29yYXRpb246OyI+77yI5Y2z5piv5ZCm55Sxc2lnbmFs56e75Yqo5YiwPC90c3Bhbj48L3RzcGFuPjx0c3BhbiBpZD0iU3ZnanNUc3BhbjExMzUiIGR5PSIxNiIgeD0iODUiPjx0c3BhbiBpZD0iU3ZnanNUc3BhbjExMzYiIHN0eWxlPSJ0ZXh0LWRlY29yYXRpb246OyI+5LqG5ZCM5q2l6Zif5YiX77yJPC90c3Bhbj48L3RzcGFuPjwvdGV4dD48L2c+PC9nPjxnIGlkPSJTdmdqc0cxMTM3Ij48cGF0aCBpZD0iU3ZnanNQYXRoMTEzOCIgZD0iTTM2Ny45NTQxNDczMzg4NjcyIDM0Mi42MDQyNTg1MzcyOTI1TDM2Ny45NTQxNDczMzg4NjcyIDM2My4xMDQyMTcwNTI0NTk3TDM2Ny45NTQxNDczMzg4NjcyIDM2My4xMDQyMTcwNTI0NTk3TDM2Ny45NTQxNDczMzg4NjcyIDM4MS4wMDQxNzU1Njc2MjY5MyIgc3Ryb2tlPSIjMTk3NmQyIiBzdHJva2Utd2lkdGg9IjIiIGZpbGw9Im5vbmUiIG1hcmtlci1lbmQ9InVybCgjU3ZnanNNYXJrZXIxMTM5KSIvPjwvZz48ZyBpZD0iU3ZnanNHMTE0MSI+PHBhdGggaWQ9IlN2Z2pzUGF0aDExNDIiIGQ9Ik0zNjcuOTU0MTQ3MzM4ODY3MiA0NDYuNjA0MTc1NTY3NjI2OTVMMzY3Ljk1NDE0NzMzODg2NzIgNDY1LjA1MDkzMDcwMDc1ODdMMzY3Ljk1NDE0NzMzODg2NzIgNDY1LjA1MDkzMDcwMDc1ODdMMzY3Ljk1NDE0NzMzODg2NzIgNDc5LjUwNDE2MDMwODgzNzg3IiBzdHJva2U9IiMxOTc2ZDIiIHN0cm9rZS13aWR0aD0iMiIgZmlsbD0ibm9uZSIgbWFya2VyLWVuZD0idXJsKCNTdmdqc01hcmtlcjExNDMpIi8+PHJlY3QgaWQ9IlN2Z2pzUmVjdDExNDUiIHdpZHRoPSIxMyIgaGVpZ2h0PSIxNiIgeD0iMzYxLjQ1NDE0NzMzODg2NzIiIHk9IjQ1NS4wNTQxNjc5MzgyMzI0IiBmaWxsPSIjZmZmZmZmIi8+PHRleHQgaWQ9IlN2Z2pzVGV4dDExNDYiIGZvbnQtZmFtaWx5PSLlvq7ova/pm4Xpu5EiIHRleHQtYW5jaG9yPSJtaWRkbGUiIGZvbnQtc2l6ZT0iMTNweCIgd2lkdGg9IjEzcHgiIGZpbGw9IiMzMjMyMzIiIGZvbnQtd2VpZ2h0PSI0MDAiIGFsaWduPSJ0b3AiIGxpbmVoZWlnaHQ9IjE2cHgiIGFuY2hvcj0ibWlkZGxlIiBmYW1pbHk9IuW+rui9r+mbhem7kSIgc2l6ZT0iMTNweCIgd2VpZ2h0PSI0MDAiIGZvbnQtc3R5bGU9IiIgb3BhY2l0eT0iMSIgeT0iNDUyLjQyOTE2NzkzODIzMjQiIHRyYW5zZm9ybT0icm90YXRlKDApIj48dHNwYW4gaWQ9IlN2Z2pzVHNwYW4xMTQ3IiBkeT0iMTYiIHg9IjM2Ny45NTQxNDczMzg4NjcyIj48dHNwYW4gaWQ9IlN2Z2pzVHNwYW4xMTQ4IiBzdHlsZT0idGV4dC1kZWNvcmF0aW9uOjsiPuWQpjwvdHNwYW4+PC90c3Bhbj48L3RleHQ+PC9nPjxnIGlkPSJTdmdqc0cxMTQ5IiB0cmFuc2Zvcm09InRyYW5zbGF0ZSgyNzcuMjA0MTQ3MzM4ODY3Miw0ODMuMTA0MTYwMzA4ODM3OSkiPjxwYXRoIGlkPSJTdmdqc1BhdGgxMTUwIiBkPSJNIDIxLjc3OTk5OTk5OTk5OTk5OCA1MS4wOTk5OTk5OTk5OTk5OTRDIC0xOC4xNTAwMDAwMDAwMDAwMDIgMzYuNSA3LjI2IDI1LjU0OTk5OTk5OTk5OTk5NyAxNi4zMzUgMjEuOUMgMTIuNzA1MDAwMDAwMDAwMDAyIDMuNjUwMDAwMDAwMDAwMDAwNCA1OC4wOCAwIDc2LjIzIDcuMzAwMDAwMDAwMDAwMDAxQyA5MC43NSAtMy42NTAwMDAwMDAwMDAwMDA0IDEzNi4xMjUgMCAxMzYuMTI1IDEwLjk1QyAxNzIuNDI0OTk5OTk5OTk5OTggNy4zMDAwMDAwMDAwMDAwMDEgMTg2Ljk0NSAyMS45IDE3Mi40MjQ5OTk5OTk5OTk5OCA0MC4xNTAwMDAwMDAwMDAwMDZDIDE4NS4xMyA1NC43NSAxNzIuNDI0OTk5OTk5OTk5OTggNzMgMTMwLjY4IDY1LjdDIDEyMS42MDUgNzUuMTkgODUuMzA0OTk5OTk5OTk5OTkgNzUuMTkgNzYuMjMgNjUuN0MgNTguMDggNzMgMjEuNzc5OTk5OTk5OTk5OTk4IDY5LjM1IDIxLjc3OTk5OTk5OTk5OTk5OCA1MS4wOTk5OTk5OTk5OTk5OTRaIiBzdHJva2U9InJnYmEoNTAsNTAsNTAsMSkiIHN0cm9rZS13aWR0aD0iMiIgZmlsbC1vcGFjaXR5PSIxIiBmaWxsPSIjZmZmZmZmIi8+PGcgaWQ9IlN2Z2pzRzExNTEiPjx0ZXh0IGlkPSJTdmdqc1RleHQxMTUyIiBmb250LWZhbWlseT0i5b6u6L2v6ZuF6buRIiB0ZXh0LWFuY2hvcj0ibWlkZGxlIiBmb250LXNpemU9IjEzcHgiIHdpZHRoPSIxNjJweCIgZmlsbD0iIzMyMzIzMiIgZm9udC13ZWlnaHQ9IjQwMCIgYWxpZ249Im1pZGRsZSIgbGluZWhlaWdodD0iMTI1JSIgYW5jaG9yPSJtaWRkbGUiIGZhbWlseT0i5b6u6L2v6ZuF6buRIiBzaXplPSIxM3B4IiB3ZWlnaHQ9IjQwMCIgZm9udC1zdHlsZT0iIiBvcGFjaXR5PSIxIiB5PSIxNy4zNzUiIHRyYW5zZm9ybT0icm90YXRlKDApIj48dHNwYW4gaWQ9IlN2Z2pzVHNwYW4xMTUzIiBkeT0iMTYiIHg9IjkxIj48dHNwYW4gaWQ9IlN2Z2pzVHNwYW4xMTU0IiBzdHlsZT0idGV4dC1kZWNvcmF0aW9uOjsiPkxvY2tTdXBwb3J0LnBhcmsodGhpcyk8L3RzcGFuPjwvdHNwYW4+PHRzcGFuIGlkPSJTdmdqc1RzcGFuMTE1NSIgZHk9IjE2IiB4PSI5MSI+PHRzcGFuIGlkPSJTdmdqc1RzcGFuMTE1NiIgc3R5bGU9InRleHQtZGVjb3JhdGlvbjo7Ij7lj6/ku6XorqTkuLrmmK/lnKjmnaHku7bpmJ/liJfpmLvloZ48L3RzcGFuPjwvdHNwYW4+PC90ZXh0PjwvZz48L2c+PGcgaWQ9IlN2Z2pzRzExNTciPjxwYXRoIGlkPSJTdmdqc1BhdGgxMTU4IiBkPSJNNDUzLjk1NDE0NzMzODg2NzIgNDE1LjEwNDE3NTU2NzYyNjk1TDYyNy4xNjMyMzE3ODk1NzE3IDQxNS4xMDQxNzU1Njc2MjY5NUw2MjcuMTYzMjMxNzg5NTcxNyA0NjguMDU5MjA5NTc5OTEyMTQiIHN0cm9rZT0iIzE5NzZkMiIgc3Ryb2tlLXdpZHRoPSIyIiBmaWxsPSJub25lIiBtYXJrZXItZW5kPSJ1cmwoI1N2Z2pzTWFya2VyMTE1OSkiLz48cmVjdCBpZD0iU3ZnanNSZWN0MTE2MSIgd2lkdGg9IjEwMSIgaGVpZ2h0PSIzMiIgeD0iNTE2LjUzNjIwNjU3MDM2MjEiIHk9IjM5OS4xMDQxNzU1Njc2MjY5NSIgZmlsbD0iI2ZmZmZmZiIvPjx0ZXh0IGlkPSJTdmdqc1RleHQxMTYyIiBmb250LWZhbWlseT0i5b6u6L2v6ZuF6buRIiB0ZXh0LWFuY2hvcj0ibWlkZGxlIiBmb250LXNpemU9IjEzcHgiIHdpZHRoPSIxMDFweCIgZmlsbD0iIzMyMzIzMiIgZm9udC13ZWlnaHQ9IjQwMCIgYWxpZ249InRvcCIgbGluZWhlaWdodD0iMTZweCIgYW5jaG9yPSJtaWRkbGUiIGZhbWlseT0i5b6u6L2v6ZuF6buRIiBzaXplPSIxM3B4IiB3ZWlnaHQ9IjQwMCIgZm9udC1zdHlsZT0iIiBvcGFjaXR5PSIxIiB5PSIzOTYuNDc5MTc1NTY3NjI2OTUiIHRyYW5zZm9ybT0icm90YXRlKDApIj48dHNwYW4gaWQ9IlN2Z2pzVHNwYW4xMTYzIiBkeT0iMTYiIHg9IjU2Ny4wMzYyMDY1NzAzNjIxIj48dHNwYW4gaWQ9IlN2Z2pzVHNwYW4xMTY0IiBzdHlsZT0idGV4dC1kZWNvcmF0aW9uOjsiPuaYr++8jOWNs3NpZ25hbOenu+WKqDwvdHNwYW4+PC90c3Bhbj48dHNwYW4gaWQ9IlN2Z2pzVHNwYW4xMTY1IiBkeT0iMTYiIHg9IjU2Ny4wMzYyMDY1NzAzNjIxIj48dHNwYW4gaWQ9IlN2Z2pzVHNwYW4xMTY2IiBzdHlsZT0idGV4dC1kZWNvcmF0aW9uOjsiPuWIsOWQjOatpemYn+WIl+WQjjwvdHNwYW4+PC90c3Bhbj48L3RleHQ+PC9nPjxnIGlkPSJTdmdqc0cxMTY3IiB0cmFuc2Zvcm09InRyYW5zbGF0ZSg1MDIuNDU0MTQ3MzM4ODY3Miw0NzAuMTA0MzU2NzY1NzQ3MDcpIj48cGF0aCBpZD0iU3ZnanNQYXRoMTE2OCIgZD0iTSAzMC4xNjE5OTg5MDEzNjcxODggNDUuNTY5ODQ1MzkwMzE5ODJDIC0yNS4xMzQ5OTkwODQ0NzI2NTcgMzIuNTQ5ODg5NTY0NTE0MTYgMTAuMDUzOTk5NjMzNzg5MDYzIDIyLjc4NDkyMjY5NTE1OTkxIDIyLjYyMTQ5OTE3NjAyNTM4OCAxOS41Mjk5MzM3Mzg3MDg0OTdDIDE3LjU5NDQ5OTM1OTEzMDg2IDMuMjU0OTg4OTU2NDUxNDE2MyA4MC40MzE5OTcwNzAzMTI1IDAgMTA1LjU2Njk5NjE1NDc4NTE2IDYuNTA5OTc3OTEyOTAyODMzQyAxMjUuNjc0OTk1NDIyMzYzMjggLTMuMjU0OTg4OTU2NDUxNDE2MyAxODguNTEyNDkzMTMzNTQ0OTIgMCAxODguNTEyNDkzMTMzNTQ0OTIgOS43NjQ5NjY4NjkzNTQyNDhDIDIzOC43ODI0OTEzMDI0OTAyMyA2LjUwOTk3NzkxMjkwMjgzMyAyNTguODkwNDkwNTcwMDY4NCAxOS41Mjk5MzM3Mzg3MDg0OTcgMjM4Ljc4MjQ5MTMwMjQ5MDIzIDM1LjgwNDg3ODUyMDk2NTU4QyAyNTYuMzc2OTkwNjYxNjIxMSA0OC44MjQ4MzQzNDY3NzEyNCAyMzguNzgyNDkxMzAyNDkwMjMgNjUuMDk5Nzc5MTI5MDI4MzIgMTgwLjk3MTk5MzQwODIwMzEgNTguNTg5ODAxMjE2MTI1NDlDIDE2OC40MDQ0OTM4NjU5NjY4IDY3LjA1Mjc3MjUwMjg5OTE3IDExOC4xMzQ0OTU2OTcwMjE0OCA2Ny4wNTI3NzI1MDI4OTkxNyAxMDUuNTY2OTk2MTU0Nzg1MTYgNTguNTg5ODAxMjE2MTI1NDlDIDgwLjQzMTk5NzA3MDMxMjUgNjUuMDk5Nzc5MTI5MDI4MzIgMzAuMTYxOTk4OTAxMzY3MTg4IDYxLjg0NDc5MDE3MjU3NjkgMzAuMTYxOTk4OTAxMzY3MTg4IDQ1LjU2OTg0NTM5MDMxOTgyWiIgc3Ryb2tlPSJyZ2JhKDUwLDUwLDUwLDEpIiBzdHJva2Utd2lkdGg9IjIiIGZpbGwtb3BhY2l0eT0iMSIgZmlsbD0iI2ZmZmZmZiIvPjxnIGlkPSJTdmdqc0cxMTY5Ij48dGV4dCBpZD0iU3ZnanNUZXh0MTE3MCIgZm9udC1mYW1pbHk9IuW+rui9r+mbhem7kSIgdGV4dC1hbmNob3I9Im1pZGRsZSIgZm9udC1zaXplPSIxM3B4IiB3aWR0aD0iMjMycHgiIGZpbGw9IiMzMjMyMzIiIGZvbnQtd2VpZ2h0PSI0MDAiIGFsaWduPSJtaWRkbGUiIGxpbmVoZWlnaHQ9IjEyNSUiIGFuY2hvcj0ibWlkZGxlIiBmYW1pbHk9IuW+rui9r+mbhem7kSIgc2l6ZT0iMTNweCIgd2VpZ2h0PSI0MDAiIGZvbnQtc3R5bGU9IiIgb3BhY2l0eT0iMSIgeT0iMjEuOTI0ODg5NTY0NTE0MTYiIHRyYW5zZm9ybT0icm90YXRlKDApIj48dHNwYW4gaWQ9IlN2Z2pzVHNwYW4xMTcxIiBkeT0iMTYiIHg9IjEyNiI+PHRzcGFuIGlkPSJTdmdqc1RzcGFuMTE3MiIgc3R5bGU9InRleHQtZGVjb3JhdGlvbjo7Ij7ov5vlhaVhY3F1aXJlUXVldWVkKG5vZGUsIHNhdmVTdGF0ZSk8L3RzcGFuPjwvdHNwYW4+PC90ZXh0PjwvZz48L2c+PGcgaWQ9IlN2Z2pzRzExNzMiPjxwYXRoIGlkPSJTdmdqc1BhdGgxMTc0IiBkPSJNMzY1LjEyNzc5NTUxNjUzNDEgNTUzLjIxOTM0MzQwMDU1MjFMMzY1LjEyNzc5NTUxNjUzNDEgNTgyLjIxOTM0MzQwMDU1MjFMMjQ2LjIwNDE0NzMzODg2NzIgNTgyLjIxOTM0MzQwMDU1MjFMMjQ2LjIwNDE0NzMzODg2NzIgNDE1LjEwNDE3NTU2NzYyNjk1TDI3OS4zNTQxNDczMzg4NjcxNiA0MTUuMTA0MTc1NTY3NjI2OTUiIHN0cm9rZT0iIzE5NzZkMiIgc3Ryb2tlLXdpZHRoPSIyIiBmaWxsPSJub25lIiBtYXJrZXItZW5kPSJ1cmwoI1N2Z2pzTWFya2VyMTE3NSkiLz48L2c+PGcgaWQ9IlN2Z2pzRzExNzciPjxwYXRoIGlkPSJTdmdqc1BhdGgxMTc4IiBkPSJNMTcyLjk1NDE0NzMzODg2NzIgMTU1LjYwNDE2MDMwODgzNzlMMjM0LjQ1NDE0NzMzODg2NzIgMTU1LjYwNDE2MDMwODgzNzlMMjM0LjQ1NDE0NzMzODg2NzIgODQuNjA0MTYwMzA4ODM3ODlMMjk0LjM1NDE0NzMzODg2NzE2IDg0LjYwNDE2MDMwODgzNzg5IiBzdHJva2UtZGFzaGFycmF5PSIzLDMiIHN0cm9rZT0iIzMyMzIzMiIgc3Ryb2tlLXdpZHRoPSIyIiBmaWxsPSJub25lIiBtYXJrZXItZW5kPSJ1cmwoI1N2Z2pzTWFya2VyMTE3OSkiLz48L2c+PGcgaWQ9IlN2Z2pzRzExODEiIHRyYW5zZm9ybT0idHJhbnNsYXRlKDI1LjAwNDE2NTY0OTQxNDA2Miw0NTYuMTU0MTQ4MTAxODA2NjQpIj48cGF0aCBpZD0iU3ZnanNQYXRoMTE4MiIgZD0iTSAwIDBMIDIxOC4wNDk5NzI1MzQxNzk3IDBMIDIxOC4wNDk5NzI1MzQxNzk3IDEyNi45MDAwMjQ0MTQwNjI1TCAwIDEyNi45MDAwMjQ0MTQwNjI1WiIgc3Ryb2tlPSJub25lIiBmaWxsPSJub25lIi8+PGcgaWQ9IlN2Z2pzRzExODMiPjx0ZXh0IGlkPSJTdmdqc1RleHQxMTg0IiBmb250LWZhbWlseT0i5b6u6L2v6ZuF6buRIiB0ZXh0LWFuY2hvcj0ibWlkZGxlIiBmb250LXNpemU9IjEzcHgiIHdpZHRoPSIyMTlweCIgZmlsbD0iIzdiMWZhMiIgZm9udC13ZWlnaHQ9IjQwMCIgYWxpZ249Im1pZGRsZSIgbGluZWhlaWdodD0iMTI1JSIgYW5jaG9yPSJtaWRkbGUiIGZhbWlseT0i5b6u6L2v6ZuF6buRIiBzaXplPSIxM3B4IiB3ZWlnaHQ9IjQwMCIgZm9udC1zdHlsZT0iIiBvcGFjaXR5PSIxIiB5PSIxMS44MjUwMTIyMDcwMzEyNSIgdHJhbnNmb3JtPSJyb3RhdGUoMCkiPjx0c3BhbiBpZD0iU3ZnanNUc3BhbjExODUiIGR5PSIxNiIgeD0iMTA5LjUiPjx0c3BhbiBpZD0iU3ZnanNUc3BhbjExODYiIHN0eWxlPSJ0ZXh0LWRlY29yYXRpb246OyI+5Zyo6Zi75aGe55qE6L+H56iL5Lit77yM5Y+v6IO95Lya5pyJ5YW25LuW57q/56iLPC90c3Bhbj48L3RzcGFuPjx0c3BhbiBpZD0iU3ZnanNUc3BhbjExODciIGR5PSIxNiIgeD0iMTA5LjUiPjx0c3BhbiBpZD0iU3ZnanNUc3BhbjExODgiIHN0eWxlPSJ0ZXh0LWRlY29yYXRpb246OyI+5L2/55Soc2lnbmFs5pa55rOV5bCG5b2T5YmN57q/56iL6IqC54K556e75Yqo5YiwPC90c3Bhbj48L3RzcGFuPjx0c3BhbiBpZD0iU3ZnanNUc3BhbjExODkiIGR5PSIxNiIgeD0iMTA5LjUiPjx0c3BhbiBpZD0iU3ZnanNUc3BhbjExOTAiIHN0eWxlPSJ0ZXh0LWRlY29yYXRpb246OyI+5LqG5ZCM5q2l6Zif5YiX5Lit5Y6777yM5YaN54S25ZCO5YmN6Z2i55qE57q/56iLPC90c3Bhbj48L3RzcGFuPjx0c3BhbiBpZD0iU3ZnanNUc3BhbjExOTEiIGR5PSIxNiIgeD0iMTA5LjUiPjx0c3BhbiBpZD0iU3ZnanNUc3BhbjExOTIiIHN0eWxlPSJ0ZXh0LWRlY29yYXRpb246OyI+6YeK5pS+6ZSB5pe25Lya5ZSk6YaS5b2T5YmN57q/56iL77yM54S25ZCO5Lya5Y+RPC90c3Bhbj48L3RzcGFuPjx0c3BhbiBpZD0iU3ZnanNUc3BhbjExOTMiIGR5PSIxNiIgeD0iMTA5LjUiPjx0c3BhbiBpZD0iU3ZnanNUc3BhbjExOTQiIHN0eWxlPSJ0ZXh0LWRlY29yYXRpb246OyI+546w5q2k5pe25Zyo5ZCM5q2l6Zif5YiX5Lit77yM6L+b6ICM6LWw5Ye65b6qPC90c3Bhbj48L3RzcGFuPjx0c3BhbiBpZD0iU3ZnanNUc3BhbjExOTUiIGR5PSIxNiIgeD0iMTA5LjUiPjx0c3BhbiBpZD0iU3ZnanNUc3BhbjExOTYiIHN0eWxlPSJ0ZXh0LWRlY29yYXRpb246OyI+546v77yM5Y675LqJ5oqi6ZSBPC90c3Bhbj48L3RzcGFuPjwvdGV4dD48L2c+PC9nPjxnIGlkPSJTdmdqc0cxMTk3Ij48cGF0aCBpZD0iU3ZnanNQYXRoMTE5OCIgZD0iTTQ3Ni40NTQxNDczMzg4NjcyIDYyMi4yMDQxMzU4OTQ3NzU0TDQyMC42MzEyNzUwNTg0NDI1IDU1Mi4wNDAzMTYwNDQ3OTAxIiBzdHJva2UtZGFzaGFycmF5PSIzLDMiIHN0cm9rZT0iIzMyMzIzMiIgc3Ryb2tlLXdpZHRoPSIyIiBmaWxsPSJub25lIiBtYXJrZXItZW5kPSJ1cmwoI1N2Z2pzTWFya2VyMTE5OSkiLz48cmVjdCBpZD0iU3ZnanNSZWN0MTIwMSIgd2lkdGg9IjEwNCIgaGVpZ2h0PSIzMiIgeD0iMzk2LjU0MjcxMTE5ODY1NDg0IiB5PSI1NzEuMTIyMjI1OTY5NzgyNyIgZmlsbD0iI2ZmZmZmZiIvPjx0ZXh0IGlkPSJTdmdqc1RleHQxMjAyIiBmb250LWZhbWlseT0i5b6u6L2v6ZuF6buRIiB0ZXh0LWFuY2hvcj0ibWlkZGxlIiBmb250LXNpemU9IjEzcHgiIHdpZHRoPSIxMDRweCIgZmlsbD0iIzMyMzIzMiIgZm9udC13ZWlnaHQ9IjQwMCIgYWxpZ249InRvcCIgbGluZWhlaWdodD0iMTZweCIgYW5jaG9yPSJtaWRkbGUiIGZhbWlseT0i5b6u6L2v6ZuF6buRIiBzaXplPSIxM3B4IiB3ZWlnaHQ9IjQwMCIgZm9udC1zdHlsZT0iIiBvcGFjaXR5PSIxIiB5PSI1NjguNDk3MjI1OTY5NzgyNyIgdHJhbnNmb3JtPSJyb3RhdGUoMCkiPjx0c3BhbiBpZD0iU3ZnanNUc3BhbjEyMDMiIGR5PSIxNiIgeD0iNDQ4LjU0MjcxMTE5ODY1NDg0Ij48dHNwYW4gaWQ9IlN2Z2pzVHNwYW4xMjA0IiBzdHlsZT0idGV4dC1kZWNvcmF0aW9uOjsiPuWQjOatpemYn+WIl+WJjemdoue6v+eoizwvdHNwYW4+PC90c3Bhbj48dHNwYW4gaWQ9IlN2Z2pzVHNwYW4xMjA1IiBkeT0iMTYiIHg9IjQ0OC41NDI3MTExOTg2NTQ4NCI+PHRzcGFuIGlkPSJTdmdqc1RzcGFuMTIwNiIgc3R5bGU9InRleHQtZGVjb3JhdGlvbjo7Ij7ph4rmlL7plIHml7bllKTphpI8L3RzcGFuPjwvdHNwYW4+PC90ZXh0PjwvZz48ZyBpZD0iU3ZnanNHMTIwNyIgdHJhbnNmb3JtPSJ0cmFuc2xhdGUoNzE0LjQ1NDE0NzMzODg2NzIsNDA2LjgwNDExMTQ4MDcxMjkpIj48cGF0aCBpZD0iU3ZnanNQYXRoMTIwOCIgZD0iTSAwIDBMIDE0NSAwTCAxNDUgODQuOTAwMDI0NDE0MDYyNUwgMCA4NC45MDAwMjQ0MTQwNjI1WiIgc3Ryb2tlPSJub25lIiBmaWxsPSJub25lIi8+PGcgaWQ9IlN2Z2pzRzEyMDkiPjx0ZXh0IGlkPSJTdmdqc1RleHQxMjEwIiBmb250LWZhbWlseT0i5b6u6L2v6ZuF6buRIiB0ZXh0LWFuY2hvcj0ibWlkZGxlIiBmb250LXNpemU9IjEzcHgiIHdpZHRoPSIxNDVweCIgZmlsbD0iIzdiMWZhMiIgZm9udC13ZWlnaHQ9IjQwMCIgYWxpZ249Im1pZGRsZSIgbGluZWhlaWdodD0iMTI1JSIgYW5jaG9yPSJtaWRkbGUiIGZhbWlseT0i5b6u6L2v6ZuF6buRIiBzaXplPSIxM3B4IiB3ZWlnaHQ9IjQwMCIgZm9udC1zdHlsZT0iIiBvcGFjaXR5PSIxIiB5PSItMC42NzQ5ODc3OTI5Njg3NSIgdHJhbnNmb3JtPSJyb3RhdGUoMCkiPjx0c3BhbiBpZD0iU3ZnanNUc3BhbjEyMTEiIGR5PSIxNiIgeD0iNzIuNSI+PHRzcGFuIGlkPSJTdmdqc1RzcGFuMTIxMiIgc3R5bGU9InRleHQtZGVjb3JhdGlvbjo7Ij7liY3pnaJmdWxseVJlbGVhc2XkuYvliY3lsLE8L3RzcGFuPjwvdHNwYW4+PHRzcGFuIGlkPSJTdmdqc1RzcGFuMTIxMyIgZHk9IjE2IiB4PSI3Mi41Ij48dHNwYW4gaWQ9IlN2Z2pzVHNwYW4xMjE0IiBzdHlsZT0idGV4dC1kZWNvcmF0aW9uOjsiPuW3sue7j+S/neWtmOS6huS5i+WJjeeahHN0YXRlPC90c3Bhbj48L3RzcGFuPjx0c3BhbiBpZD0iU3ZnanNUc3BhbjEyMTUiIGR5PSIxNiIgeD0iNzIuNSI+PHRzcGFuIGlkPSJTdmdqc1RzcGFuMTIxNiIgc3R5bGU9InRleHQtZGVjb3JhdGlvbjo7Ij7lgLzvvIzljbPplIHph43lhaXmrKHmlbDvvIzlm6DogIw8L3RzcGFuPjwvdHNwYW4+PHRzcGFuIGlkPSJTdmdqc1RzcGFuMTIxNyIgZHk9IjE2IiB4PSI3Mi41Ij48dHNwYW4gaWQ9IlN2Z2pzVHNwYW4xMjE4IiBzdHlsZT0idGV4dC1kZWNvcmF0aW9uOjsiPui/memHjOWPr+S7peaBouWkjeWIsGF3YWl05LmLPC90c3Bhbj48L3RzcGFuPjx0c3BhbiBpZD0iU3ZnanNUc3BhbjEyMTkiIGR5PSIxNiIgeD0iNzIuNSI+PHRzcGFuIGlkPSJTdmdqc1RzcGFuMTIyMCIgc3R5bGU9InRleHQtZGVjb3JhdGlvbjo7Ij7liY3nmoTplIHnirbmgIE8L3RzcGFuPjwvdHNwYW4+PC90ZXh0PjwvZz48L2c+PGcgaWQ9IlN2Z2pzRzEyMjEiPjxwYXRoIGlkPSJTdmdqc1BhdGgxMjIyIiBkPSJNNjMxLjA0MTMwMzA4MTYxNDggNTM1LjIwNzk0MTE5NjY4MzZMNjMxLjA0MTMwMzA4MTYxNDggNTUyLjYwNDEzNTg5NDc3NTQiIHN0cm9rZS1kYXNoYXJyYXk9IjMsMyIgc3Ryb2tlPSIjMzIzMjMyIiBzdHJva2Utd2lkdGg9IjIiIGZpbGw9Im5vbmUiIG1hcmtlci1lbmQ9InVybCgjU3ZnanNNYXJrZXIxMjIzKSIvPjwvZz48ZyBpZD0iU3ZnanNHMTIyNSIgdHJhbnNmb3JtPSJ0cmFuc2xhdGUoNTIxLjAwNDE0Mjc2MTIzMDUsNTU2LjEwNDE2MDMwODgzNzkpIj48cGF0aCBpZD0iU3ZnanNQYXRoMTIyNiIgZD0iTSAwIDBMIDMxMC45NTAwMDQ1Nzc2MzY3IDBMIDMxMC45NTAwMDQ1Nzc2MzY3IDU0LjA5OTk3NTU4NTkzNzVMIDAgNTQuMDk5OTc1NTg1OTM3NVoiIHN0cm9rZT0icmdiYSg1MCw1MCw1MCwxKSIgc3Ryb2tlLXdpZHRoPSIyIiBmaWxsLW9wYWNpdHk9IjEiIGZpbGw9IiNmZmZmZmYiLz48ZyBpZD0iU3ZnanNHMTIyNyI+PHRleHQgaWQ9IlN2Z2pzVGV4dDEyMjgiIGZvbnQtZmFtaWx5PSLlvq7ova/pm4Xpu5EiIHRleHQtYW5jaG9yPSJtaWRkbGUiIGZvbnQtc2l6ZT0iMTNweCIgd2lkdGg9IjI5MXB4IiBmaWxsPSIjMzIzMjMyIiBmb250LXdlaWdodD0iNDAwIiBhbGlnbj0ibWlkZGxlIiBsaW5laGVpZ2h0PSIxMjUlIiBhbmNob3I9Im1pZGRsZSIgZmFtaWx5PSLlvq7ova/pm4Xpu5EiIHNpemU9IjEzcHgiIHdlaWdodD0iNDAwIiBmb250LXN0eWxlPSIiIG9wYWNpdHk9IjEiIHk9Ii0wLjA3NTAxMjIwNzAzMTI1IiB0cmFuc2Zvcm09InJvdGF0ZSgwKSI+PHRzcGFuIGlkPSJTdmdqc1RzcGFuMTIyOSIgZHk9IjE2IiB4PSIxNTUuNSI+PHRzcGFuIGlkPSJTdmdqc1RzcGFuMTIzMCIgc3R5bGU9InRleHQtZGVjb3JhdGlvbjo7Ij5jYXPor5Xlm77ojrflj5bplIHvvIzlpoLmnpzlh6DmrKHojrflvpfkuI3liLDliJnpmLvloZ48L3RzcGFuPjwvdHNwYW4+PHRzcGFuIGlkPSJTdmdqc1RzcGFuMTIzMSIgZHk9IjE2IiB4PSIxNTUuNSI+PHRzcGFuIGlkPSJTdmdqc1RzcGFuMTIzMiIgc3R5bGU9InRleHQtZGVjb3JhdGlvbjo7Ij7ov5nph4zmmK/ku47mnaHku7bpmJ/liJfkuK3lh7rmnaXvvIzmnaXliLDlkIzmraXpmJ/liJfkuK3pmLvloZ48L3RzcGFuPjwvdHNwYW4+PHRzcGFuIGlkPSJTdmdqc1RzcGFuMTIzMyIgZHk9IjE2IiB4PSIxNTUuNSI+PHRzcGFuIGlkPSJTdmdqc1RzcGFuMTIzNCIgc3R5bGU9InRleHQtZGVjb3JhdGlvbjo7Ij7nm7TliLDliY3pnaLplIFvd25lcue6v+eoi+mHiuaUvumUgeaXtuWUpOmGkjwvdHNwYW4+PC90c3Bhbj48L3RleHQ+PC9nPjwvZz48L3N2Zz4=;sketch=1;imageBorder=default;" parent="1" vertex="1">
                    <mxGeometry y="360" width="683.84" height="480" as="geometry"/>
                </mxCell>
                <mxCell id="23" value="ConditionObject#await" style="rounded=0;whiteSpace=wrap;html=1;fillColor=#ffe6cc;strokeColor=#d79b00;comic=1;" parent="1" vertex="1">
                    <mxGeometry y="330" width="130" height="30" as="geometry"/>
                </mxCell>
                <mxCell id="24" value="" style="shape=image;verticalLabelPosition=bottom;labelBackgroundColor=#ffffff;verticalAlign=top;aspect=fixed;imageAspect=0;image=data:image/svg+xml,PHN2ZyB4bWxuczp4bGluaz0iaHR0cDovL3d3dy53My5vcmcvMTk5OS94bGluayIgeG1sbnM9Imh0dHA6Ly93d3cudzMub3JnLzIwMDAvc3ZnIiBmaWxsLW9wYWNpdHk9IjEiIGNvbG9yLXJlbmRlcmluZz0iYXV0byIgY29sb3ItaW50ZXJwb2xhdGlvbj0iYXV0byIgdGV4dC1yZW5kZXJpbmc9ImF1dG8iIHN0cm9rZT0iYmxhY2siIHN0cm9rZS1saW5lY2FwPSJzcXVhcmUiIHdpZHRoPSI2MTEiIHN0cm9rZS1taXRlcmxpbWl0PSIxMCIgc2hhcGUtcmVuZGVyaW5nPSJhdXRvIiBzdHJva2Utb3BhY2l0eT0iMSIgZmlsbD0iYmxhY2siIHN0cm9rZS1kYXNoYXJyYXk9Im5vbmUiIGZvbnQtd2VpZ2h0PSJub3JtYWwiIHN0cm9rZS13aWR0aD0iMSIgaGVpZ2h0PSI4OTgiIGZvbnQtZmFtaWx5PSInRGlhbG9nJyIgZm9udC1zdHlsZT0ibm9ybWFsIiBzdHJva2UtbGluZWpvaW49Im1pdGVyIiBmb250LXNpemU9IjEycHgiIHN0cm9rZS1kYXNob2Zmc2V0PSIwIiBpbWFnZS1yZW5kZXJpbmc9ImF1dG8iIHZpZXdCb3g9IjAgMCA2MTEgODk4Ij48IS0tR2VuZXJhdGVkIGJ5IHRoZSBCYXRpayBHcmFwaGljczJEIFNWRyBHZW5lcmF0b3ItLT48ZGVmcyBpZD0iZ2VuZXJpY0RlZnMiLz48Zz48ZyBmaWxsPSJyZ2IoMjU1LDI1NSwxOTIpIiB0ZXh0LXJlbmRlcmluZz0ib3B0aW1pemVMZWdpYmlsaXR5IiBmb250LXNpemU9IjExcHgiIGZvbnQtZmFtaWx5PSJzYW5zLXNlcmlmIiBzdHJva2U9InJnYigyNTUsMjU1LDE5MikiPjxyZWN0IHg9IjUiIHdpZHRoPSIzNiIgaGVpZ2h0PSIyNSIgeT0iNSIgc3Ryb2tlPSJub25lIi8+PHJlY3QgZmlsbD0ibm9uZSIgeD0iNSIgd2lkdGg9IjM1IiBoZWlnaHQ9IjI0IiB5PSI1IiBzdHJva2U9ImJsYWNrIi8+PHRleHQgZmlsbD0icmdiKDY0LDY0LDY0KSIgeD0iMTAiIHhtbDpzcGFjZT0icHJlc2VydmUiIHk9IjIyIiBzdHJva2U9Im5vbmUiPkFjdG9yPC90ZXh0PjxyZWN0IGZpbGw9InJnYigyNTUsMjA5LDIwNikiIHg9IjQ2IiB3aWR0aD0iODYiIGhlaWdodD0iMjUiIHk9IjUiIHN0cm9rZT0ibm9uZSIvPjxyZWN0IGZpbGw9Im5vbmUiIHg9IjQ2IiB3aWR0aD0iODUiIGhlaWdodD0iMjQiIHk9IjUiIHN0cm9rZT0iYmxhY2siLz48dGV4dCBmaWxsPSJyZ2IoNjQsNjQsNjQpIiB4PSI1MSIgeG1sOnNwYWNlPSJwcmVzZXJ2ZSIgeT0iMjIiIHN0cm9rZT0ibm9uZSI+Q29uZGl0aW9uT2JqZWN0PC90ZXh0PjxyZWN0IGZpbGw9InJnYigyNTUsMjA5LDIwNikiIHg9IjI0OCIgd2lkdGg9IjM1IiBoZWlnaHQ9IjI1IiB5PSI1IiBzdHJva2U9Im5vbmUiLz48cmVjdCBmaWxsPSJub25lIiB4PSIyNDgiIHdpZHRoPSIzNCIgaGVpZ2h0PSIyNCIgeT0iNSIgc3Ryb2tlPSJibGFjayIvPjx0ZXh0IGZpbGw9InJnYig2NCw2NCw2NCkiIHg9IjI1MyIgeG1sOnNwYWNlPSJwcmVzZXJ2ZSIgeT0iMjIiIHN0cm9rZT0ibm9uZSI+Tm9kZTwvdGV4dD48cmVjdCBmaWxsPSJyZ2IoMjU1LDIwOSwyMDYpIiB4PSIyODgiIHdpZHRoPSIxNTMiIGhlaWdodD0iMjUiIHk9IjUiIHN0cm9rZT0ibm9uZSIvPjxyZWN0IGZpbGw9Im5vbmUiIHg9IjI4OCIgd2lkdGg9IjE1MiIgaGVpZ2h0PSIyNCIgeT0iNSIgc3Ryb2tlPSJibGFjayIvPjwvZz48ZyBmaWxsPSJyZ2IoNjQsNjQsNjQpIiBmb250LXN0eWxlPSJpdGFsaWMiIHRleHQtcmVuZGVyaW5nPSJvcHRpbWl6ZUxlZ2liaWxpdHkiIGZvbnQtc2l6ZT0iMTFweCIgc3Ryb2tlPSJyZ2IoNjQsNjQsNjQpIj48dGV4dCB4PSIyOTMiIHhtbDpzcGFjZT0icHJlc2VydmUiIHk9IjIyIiBzdHJva2U9Im5vbmUiPkFic3RyYWN0UXVldWVkU3luY2hyb25pemVyPC90ZXh0PjwvZz48ZyBmaWxsPSJyZ2IoMjU1LDIwOSwyMDYpIiB0ZXh0LXJlbmRlcmluZz0ib3B0aW1pemVMZWdpYmlsaXR5IiBmb250LXNpemU9IjExcHgiIGZvbnQtZmFtaWx5PSJzYW5zLXNlcmlmIiBzdHJva2U9InJnYigyNTUsMjA5LDIwNikiPjxyZWN0IHg9IjQ2NCIgd2lkdGg9IjcxIiBoZWlnaHQ9IjI1IiB5PSI1IiBzdHJva2U9Im5vbmUiLz48cmVjdCBmaWxsPSJub25lIiB4PSI0NjQiIHdpZHRoPSI3MCIgaGVpZ2h0PSIyNCIgeT0iNSIgc3Ryb2tlPSJibGFjayIvPjx0ZXh0IGZpbGw9InJnYig2NCw2NCw2NCkiIHg9IjQ2OSIgeG1sOnNwYWNlPSJwcmVzZXJ2ZSIgeT0iMjIiIHN0cm9rZT0ibm9uZSI+TG9ja1N1cHBvcnQ8L3RleHQ+PC9nPjxnIHRleHQtcmVuZGVyaW5nPSJvcHRpbWl6ZUxlZ2liaWxpdHkiIHN0cm9rZS1taXRlcmxpbWl0PSIxMiIgZm9udC1zaXplPSIxMXB4IiBzdHJva2UtZGFzaGFycmF5PSIxMiw2IiBmb250LWZhbWlseT0ic2Fucy1zZXJpZiIgdHJhbnNmb3JtPSJ0cmFuc2xhdGUoMCwzMCkiPjxsaW5lIHkyPSI4NjgiIGZpbGw9Im5vbmUiIHgxPSIyMyIgeDI9IjIzIiB5MT0iMCIvPjx0ZXh0IHg9IjQ2IiB4bWw6c3BhY2U9InByZXNlcnZlIiBzdHJva2UtbWl0ZXJsaW1pdD0iMTAiIHN0cm9rZS1kYXNoYXJyYXk9Im5vbmUiIHk9IjQ3IiBzdHJva2U9Im5vbmUiPjE6YXdhaXQ8L3RleHQ+PGxpbmUgZmlsbD0ibm9uZSIgeDE9IjI1IiB4Mj0iODUiIHkxPSI1NSIgeTI9IjU1IiBzdHJva2UtZGFzaGFycmF5PSJub25lIiBzdHJva2UtbWl0ZXJsaW1pdD0iMTAiLz48cGF0aCBzdHJva2UtbWl0ZXJsaW1pdD0iMTAiIHN0cm9rZS1kYXNoYXJyYXk9Im5vbmUiIGQ9Ik04MSA1MiBMODUgNTUgTDgxIDU4IFoiIHN0cm9rZT0ibm9uZSIvPjxsaW5lIHkyPSI4NjgiIGZpbGw9Im5vbmUiIHgxPSI4OSIgeDI9Ijg5IiB5MT0iMCIvPjwvZz48ZyBmaWxsPSJyZ2IoMjU1LDIyNCwxNjcpIiB0ZXh0LXJlbmRlcmluZz0ib3B0aW1pemVMZWdpYmlsaXR5IiBmb250LXNpemU9IjExcHgiIGZvbnQtZmFtaWx5PSJzYW5zLXNlcmlmIiB0cmFuc2Zvcm09InRyYW5zbGF0ZSgwLDMwKSIgc3Ryb2tlPSJyZ2IoMjU1LDIyNCwxNjcpIj48cmVjdCB4PSI4NSIgd2lkdGg9IjkiIGhlaWdodD0iODAzIiB5PSI1NSIgc3Ryb2tlPSJub25lIi8+PHJlY3QgZmlsbD0ibm9uZSIgeD0iODUiIHdpZHRoPSI4IiBoZWlnaHQ9IjgwMiIgeT0iNTUiIHN0cm9rZT0iYmxhY2siLz48cmVjdCB4PSI4OCIgd2lkdGg9IjkiIGhlaWdodD0iMTQ5IiB5PSI4MCIgc3Ryb2tlPSJub25lIi8+PHJlY3QgZmlsbD0ibm9uZSIgeD0iODgiIHdpZHRoPSI4IiBoZWlnaHQ9IjE0OCIgeT0iODAiIHN0cm9rZT0iYmxhY2siLz48cmVjdCB4PSI5MSIgd2lkdGg9IjkiIGhlaWdodD0iMzMiIHk9IjExMyIgc3Ryb2tlPSJub25lIi8+PHJlY3QgZmlsbD0ibm9uZSIgeD0iOTEiIHdpZHRoPSI4IiBoZWlnaHQ9IjMyIiB5PSIxMTMiIHN0cm9rZT0iYmxhY2siLz48cmVjdCB4PSI4OCIgd2lkdGg9IjkiIGhlaWdodD0iMzMiIHk9IjYxMCIgc3Ryb2tlPSJub25lIi8+PHJlY3QgZmlsbD0ibm9uZSIgeD0iODgiIHdpZHRoPSI4IiBoZWlnaHQ9IjMyIiB5PSI2MTAiIHN0cm9rZT0iYmxhY2siLz48cmVjdCB4PSI4OCIgd2lkdGg9IjkiIGhlaWdodD0iMzMiIHk9IjcyNiIgc3Ryb2tlPSJub25lIi8+PHJlY3QgZmlsbD0ibm9uZSIgeD0iODgiIHdpZHRoPSI4IiBoZWlnaHQ9IjMyIiB5PSI3MjYiIHN0cm9rZT0iYmxhY2siLz48cmVjdCB4PSI4OCIgd2lkdGg9IjkiIGhlaWdodD0iMzMiIHk9Ijc5MiIgc3Ryb2tlPSJub25lIi8+PHJlY3QgZmlsbD0ibm9uZSIgeD0iODgiIHdpZHRoPSI4IiBoZWlnaHQ9IjMyIiB5PSI3OTIiIHN0cm9rZT0iYmxhY2siLz48dGV4dCBmaWxsPSJibGFjayIgeD0iMTAyIiB4bWw6c3BhY2U9InByZXNlcnZlIiB5PSI3MiIgc3Ryb2tlPSJub25lIj4xLjE6YWRkQ29uZGl0aW9uV2FpdGVyPC90ZXh0PjxsaW5lIHkyPSI4MCIgZmlsbD0ibm9uZSIgeDE9Ijk3IiB4Mj0iMTU5IiBzdHJva2U9ImJsYWNrIiB5MT0iODAiLz48bGluZSB5Mj0iODgiIGZpbGw9Im5vbmUiIHgxPSIxNTkiIHgyPSIxNTkiIHN0cm9rZT0iYmxhY2siIHkxPSI4MCIvPjxsaW5lIHkyPSI4OCIgZmlsbD0ibm9uZSIgeDE9Ijk3IiB4Mj0iMTU5IiBzdHJva2U9ImJsYWNrIiB5MT0iODgiLz48cGF0aCBmaWxsPSJibGFjayIgZD0iTTEwMSA4NSBMOTcgODggTDEwMSA5MSBaIiBzdHJva2U9Im5vbmUiLz48dGV4dCBmaWxsPSJibGFjayIgeD0iMTA1IiB4bWw6c3BhY2U9InByZXNlcnZlIiB5PSIxMDUiIHN0cm9rZT0ibm9uZSI+MS4xLjE6dW5saW5rQ2FuY2VsbGVkV2FpdGVyczwvdGV4dD48bGluZSB5Mj0iMTEzIiBmaWxsPSJub25lIiB4MT0iMTAwIiB4Mj0iMTc1IiBzdHJva2U9ImJsYWNrIiB5MT0iMTEzIi8+PGxpbmUgeTI9IjEyMSIgZmlsbD0ibm9uZSIgeDE9IjE3NSIgeDI9IjE3NSIgc3Ryb2tlPSJibGFjayIgeTE9IjExMyIvPjxsaW5lIHkyPSIxMjEiIGZpbGw9Im5vbmUiIHgxPSIxMDAiIHgyPSIxNzUiIHN0cm9rZT0iYmxhY2siIHkxPSIxMjEiLz48cGF0aCBmaWxsPSJibGFjayIgZD0iTTEwNCAxMTggTDEwMCAxMjEgTDEwNCAxMjQgWiIgc3Ryb2tlPSJub25lIi8+PHRleHQgZmlsbD0iYmxhY2siIHg9IjE3MSIgeG1sOnNwYWNlPSJwcmVzZXJ2ZSIgeT0iMTcxIiBzdHJva2U9Im5vbmUiPjEuMS4yOiZsdDsmbHQ7Y3JlYXRlJmd0OyZndDs8L3RleHQ+PGxpbmUgeTI9IjE3OSIgZmlsbD0ibm9uZSIgeDE9Ijk3IiB4Mj0iMjYxIiBzdHJva2U9ImJsYWNrIiB5MT0iMTc5Ii8+PHBhdGggZmlsbD0iYmxhY2siIGQ9Ik0yNTcgMTc2IEwyNjEgMTc5IEwyNTcgMTgyIFoiIHN0cm9rZT0ibm9uZSIvPjx0ZXh0IGZpbGw9ImJsYWNrIiB4PSIyNzkiIHhtbDpzcGFjZT0icHJlc2VydmUiIHk9IjI1NCIgc3Ryb2tlPSJub25lIj4xLjI6ZnVsbHlSZWxlYXNlPC90ZXh0PjxsaW5lIHkyPSIyNjIiIGZpbGw9Im5vbmUiIHgxPSI5NCIgeDI9IjM2MCIgc3Ryb2tlPSJibGFjayIgeTE9IjI2MiIvPjxwYXRoIGZpbGw9ImJsYWNrIiBkPSJNMzU2IDI1OSBMMzYwIDI2MiBMMzU2IDI2NSBaIiBzdHJva2U9Im5vbmUiLz48dGV4dCBmaWxsPSJibGFjayIgeD0iMjU3IiB4bWw6c3BhY2U9InByZXNlcnZlIiB5PSI0MzYiIHN0cm9rZT0ibm9uZSI+MS4zOmlzT25TeW5jUXVldWU8L3RleHQ+PGxpbmUgeTI9IjQ0NCIgZmlsbD0ibm9uZSIgeDE9Ijk0IiB4Mj0iMzYwIiBzdHJva2U9ImJsYWNrIiB5MT0iNDQ0Ii8+PHBhdGggZmlsbD0iYmxhY2siIGQ9Ik0zNTYgNDQxIEwzNjAgNDQ0IEwzNTYgNDQ3IFoiIHN0cm9rZT0ibm9uZSIvPjx0ZXh0IGZpbGw9ImJsYWNrIiB4PSI0NTEiIHhtbDpzcGFjZT0icHJlc2VydmUiIHk9IjU1MiIgc3Ryb2tlPSJub25lIj4xLjQ6cGFyazwvdGV4dD48bGluZSB5Mj0iNTU0IiBmaWxsPSJub25lIiB4MT0iNDUxIiB4Mj0iNDkwIiBzdHJva2U9ImJsYWNrIiB5MT0iNTU0Ii8+PGxpbmUgeTI9IjU2MCIgZmlsbD0ibm9uZSIgeDE9Ijk0IiB4Mj0iNDk1IiBzdHJva2U9ImJsYWNrIiB5MT0iNTYwIi8+PHBhdGggZmlsbD0iYmxhY2siIGQ9Ik00OTEgNTU3IEw0OTUgNTYwIEw0OTEgNTYzIFoiIHN0cm9rZT0ibm9uZSIvPjx0ZXh0IGZpbGw9ImJsYWNrIiB4PSIxMDIiIHhtbDpzcGFjZT0icHJlc2VydmUiIHk9IjYwMiIgc3Ryb2tlPSJub25lIj4xLjU6Y2hlY2tJbnRlcnJ1cHRXaGlsZVdhaXRpbmc8L3RleHQ+PGxpbmUgeTI9IjYxMCIgZmlsbD0ibm9uZSIgeDE9Ijk3IiB4Mj0iMTc5IiBzdHJva2U9ImJsYWNrIiB5MT0iNjEwIi8+PGxpbmUgeTI9IjYxOCIgZmlsbD0ibm9uZSIgeDE9IjE3OSIgeDI9IjE3OSIgc3Ryb2tlPSJibGFjayIgeTE9IjYxMCIvPjxsaW5lIHkyPSI2MTgiIGZpbGw9Im5vbmUiIHgxPSI5NyIgeDI9IjE3OSIgc3Ryb2tlPSJibGFjayIgeTE9IjYxOCIvPjxwYXRoIGZpbGw9ImJsYWNrIiBkPSJNMTAxIDYxNSBMOTcgNjE4IEwxMDEgNjIxIFoiIHN0cm9rZT0ibm9uZSIvPjx0ZXh0IGZpbGw9ImJsYWNrIiB4PSIyNjIiIHhtbDpzcGFjZT0icHJlc2VydmUiIHk9IjY2OCIgc3Ryb2tlPSJub25lIj4xLjY6YWNxdWlyZVF1ZXVlZDwvdGV4dD48bGluZSB5Mj0iNjc2IiBmaWxsPSJub25lIiB4MT0iOTQiIHgyPSIzNjAiIHN0cm9rZT0iYmxhY2siIHkxPSI2NzYiLz48cGF0aCBmaWxsPSJibGFjayIgZD0iTTM1NiA2NzMgTDM2MCA2NzYgTDM1NiA2NzkgWiIgc3Ryb2tlPSJub25lIi8+PHRleHQgZmlsbD0iYmxhY2siIHg9IjEwMiIgeG1sOnNwYWNlPSJwcmVzZXJ2ZSIgeT0iNzE4IiBzdHJva2U9Im5vbmUiPjEuNzp1bmxpbmtDYW5jZWxsZWRXYWl0ZXJzPC90ZXh0PjxsaW5lIHkyPSI3MjYiIGZpbGw9Im5vbmUiIHgxPSI5NyIgeDI9IjE2OCIgc3Ryb2tlPSJibGFjayIgeTE9IjcyNiIvPjxsaW5lIHkyPSI3MzQiIGZpbGw9Im5vbmUiIHgxPSIxNjgiIHgyPSIxNjgiIHN0cm9rZT0iYmxhY2siIHkxPSI3MjYiLz48bGluZSB5Mj0iNzM0IiBmaWxsPSJub25lIiB4MT0iOTciIHgyPSIxNjgiIHN0cm9rZT0iYmxhY2siIHkxPSI3MzQiLz48cGF0aCBmaWxsPSJibGFjayIgZD0iTTEwMSA3MzEgTDk3IDczNCBMMTAxIDczNyBaIiBzdHJva2U9Im5vbmUiLz48dGV4dCBmaWxsPSJibGFjayIgeD0iMTAyIiB4bWw6c3BhY2U9InByZXNlcnZlIiB5PSI3ODQiIHN0cm9rZT0ibm9uZSI+MS44OnJlcG9ydEludGVycnVwdEFmdGVyV2FpdDwvdGV4dD48bGluZSB5Mj0iNzkyIiBmaWxsPSJub25lIiB4MT0iOTciIHgyPSIxNjkiIHN0cm9rZT0iYmxhY2siIHkxPSI3OTIiLz48bGluZSB5Mj0iODAwIiBmaWxsPSJub25lIiB4MT0iMTY5IiB4Mj0iMTY5IiBzdHJva2U9ImJsYWNrIiB5MT0iNzkyIi8+PGxpbmUgeTI9IjgwMCIgZmlsbD0ibm9uZSIgeDE9Ijk3IiB4Mj0iMTY5IiBzdHJva2U9ImJsYWNrIiB5MT0iODAwIi8+PHBhdGggZmlsbD0iYmxhY2siIGQ9Ik0xMDEgNzk3IEw5NyA4MDAgTDEwMSA4MDMgWiIgc3Ryb2tlPSJub25lIi8+PC9nPjxnIHRleHQtcmVuZGVyaW5nPSJvcHRpbWl6ZUxlZ2liaWxpdHkiIHN0cm9rZS1taXRlcmxpbWl0PSIxMiIgZm9udC1zaXplPSIxMXB4IiBzdHJva2UtZGFzaGFycmF5PSIxMiw2IiBmb250LWZhbWlseT0ic2Fucy1zZXJpZiIgdHJhbnNmb3JtPSJ0cmFuc2xhdGUoMCwzMCkiPjxsaW5lIHkyPSI4NjgiIGZpbGw9Im5vbmUiIHgxPSIyNjUiIHgyPSIyNjUiIHkxPSIwIi8+PC9nPjxnIGZpbGw9InJnYigyNTUsMjI0LDE2NykiIHRleHQtcmVuZGVyaW5nPSJvcHRpbWl6ZUxlZ2liaWxpdHkiIGZvbnQtc2l6ZT0iMTFweCIgZm9udC1mYW1pbHk9InNhbnMtc2VyaWYiIHRyYW5zZm9ybT0idHJhbnNsYXRlKDAsMzApIiBzdHJva2U9InJnYigyNTUsMjI0LDE2NykiPjxyZWN0IHg9IjI2MSIgd2lkdGg9IjkiIGhlaWdodD0iMjUiIHk9IjE3OSIgc3Ryb2tlPSJub25lIi8+PHJlY3QgZmlsbD0ibm9uZSIgeD0iMjYxIiB3aWR0aD0iOCIgaGVpZ2h0PSIyNCIgeT0iMTc5IiBzdHJva2U9ImJsYWNrIi8+PGxpbmUgZmlsbD0ibm9uZSIgeDE9IjI2MSIgeDI9Ijk3IiB5MT0iMjA0IiB5Mj0iMjA0IiBzdHJva2UtZGFzaGFycmF5PSIxMCw1IiBzdHJva2U9ImJsYWNrIi8+PGxpbmUgeTI9IjIwNCIgZmlsbD0ibm9uZSIgeDE9IjEwMSIgeDI9Ijk3IiBzdHJva2U9ImJsYWNrIiB5MT0iMjAxIi8+PGxpbmUgeTI9IjIwNCIgZmlsbD0ibm9uZSIgeDE9IjEwMSIgeDI9Ijk3IiBzdHJva2U9ImJsYWNrIiB5MT0iMjA3Ii8+PC9nPjxnIHRleHQtcmVuZGVyaW5nPSJvcHRpbWl6ZUxlZ2liaWxpdHkiIHN0cm9rZS1taXRlcmxpbWl0PSIxMiIgZm9udC1zaXplPSIxMXB4IiBzdHJva2UtZGFzaGFycmF5PSIxMiw2IiBmb250LWZhbWlseT0ic2Fucy1zZXJpZiIgdHJhbnNmb3JtPSJ0cmFuc2xhdGUoMCwzMCkiPjxsaW5lIHkyPSI4NjgiIGZpbGw9Im5vbmUiIHgxPSIzNjQiIHgyPSIzNjQiIHkxPSIwIi8+PC9nPjxnIGZpbGw9InJnYigyNTUsMjI0LDE2NykiIHRleHQtcmVuZGVyaW5nPSJvcHRpbWl6ZUxlZ2liaWxpdHkiIGZvbnQtc2l6ZT0iMTFweCIgZm9udC1mYW1pbHk9InNhbnMtc2VyaWYiIHRyYW5zZm9ybT0idHJhbnNsYXRlKDAsMzApIiBzdHJva2U9InJnYigyNTUsMjI0LDE2NykiPjxyZWN0IHg9IjM2MCIgd2lkdGg9IjkiIGhlaWdodD0iMTU3IiB5PSIyNjIiIHN0cm9rZT0ibm9uZSIvPjxyZWN0IGZpbGw9Im5vbmUiIHg9IjM2MCIgd2lkdGg9IjgiIGhlaWdodD0iMTU2IiB5PSIyNjIiIHN0cm9rZT0iYmxhY2siLz48cmVjdCB4PSIzNjMiIHdpZHRoPSI5IiBoZWlnaHQ9IjMzIiB5PSIyODciIHN0cm9rZT0ibm9uZSIvPjxyZWN0IGZpbGw9Im5vbmUiIHg9IjM2MyIgd2lkdGg9IjgiIGhlaWdodD0iMzIiIHk9IjI4NyIgc3Ryb2tlPSJibGFjayIvPjxyZWN0IHg9IjM2MyIgd2lkdGg9IjkiIGhlaWdodD0iMzMiIHk9IjM1MyIgc3Ryb2tlPSJub25lIi8+PHJlY3QgZmlsbD0ibm9uZSIgeD0iMzYzIiB3aWR0aD0iOCIgaGVpZ2h0PSIzMiIgeT0iMzUzIiBzdHJva2U9ImJsYWNrIi8+PHJlY3QgeD0iMzYwIiB3aWR0aD0iOSIgaGVpZ2h0PSI5MSIgeT0iNDQ0IiBzdHJva2U9Im5vbmUiLz48cmVjdCBmaWxsPSJub25lIiB4PSIzNjAiIHdpZHRoPSI4IiBoZWlnaHQ9IjkwIiB5PSI0NDQiIHN0cm9rZT0iYmxhY2siLz48cmVjdCB4PSIzNjMiIHdpZHRoPSI5IiBoZWlnaHQ9IjMzIiB5PSI0NjkiIHN0cm9rZT0ibm9uZSIvPjxyZWN0IGZpbGw9Im5vbmUiIHg9IjM2MyIgd2lkdGg9IjgiIGhlaWdodD0iMzIiIHk9IjQ2OSIgc3Ryb2tlPSJibGFjayIvPjxyZWN0IHg9IjM2MCIgd2lkdGg9IjkiIGhlaWdodD0iMjUiIHk9IjY3NiIgc3Ryb2tlPSJub25lIi8+PHJlY3QgZmlsbD0ibm9uZSIgeD0iMzYwIiB3aWR0aD0iOCIgaGVpZ2h0PSIyNCIgeT0iNjc2IiBzdHJva2U9ImJsYWNrIi8+PHRleHQgZmlsbD0iYmxhY2siIHg9IjM3NyIgeG1sOnNwYWNlPSJwcmVzZXJ2ZSIgeT0iMjc5IiBzdHJva2U9Im5vbmUiPjEuMi4xOmdldFN0YXRlPC90ZXh0PjxsaW5lIHkyPSIyODciIGZpbGw9Im5vbmUiIHgxPSIzNzIiIHgyPSI0MTAiIHN0cm9rZT0iYmxhY2siIHkxPSIyODciLz48bGluZSB5Mj0iMjk1IiBmaWxsPSJub25lIiB4MT0iNDEwIiB4Mj0iNDEwIiBzdHJva2U9ImJsYWNrIiB5MT0iMjg3Ii8+PGxpbmUgeTI9IjI5NSIgZmlsbD0ibm9uZSIgeDE9IjM3MiIgeDI9IjQxMCIgc3Ryb2tlPSJibGFjayIgeTE9IjI5NSIvPjxwYXRoIGZpbGw9ImJsYWNrIiBkPSJNMzc2IDI5MiBMMzcyIDI5NSBMMzc2IDI5OCBaIiBzdHJva2U9Im5vbmUiLz48dGV4dCBmaWxsPSJibGFjayIgeD0iMzc3IiB4bWw6c3BhY2U9InByZXNlcnZlIiB5PSIzNDUiIHN0cm9rZT0ibm9uZSI+MS4yLjI6cmVsZWFzZTwvdGV4dD48bGluZSB5Mj0iMzUzIiBmaWxsPSJub25lIiB4MT0iMzcyIiB4Mj0iNDA4IiBzdHJva2U9ImJsYWNrIiB5MT0iMzUzIi8+PGxpbmUgeTI9IjM2MSIgZmlsbD0ibm9uZSIgeDE9IjQwOCIgeDI9IjQwOCIgc3Ryb2tlPSJibGFjayIgeTE9IjM1MyIvPjxsaW5lIHkyPSIzNjEiIGZpbGw9Im5vbmUiIHgxPSIzNzIiIHgyPSI0MDgiIHN0cm9rZT0iYmxhY2siIHkxPSIzNjEiLz48cGF0aCBmaWxsPSJibGFjayIgZD0iTTM3NiAzNTggTDM3MiAzNjEgTDM3NiAzNjQgWiIgc3Ryb2tlPSJub25lIi8+PHRleHQgZmlsbD0iYmxhY2siIHg9IjM3NyIgeG1sOnNwYWNlPSJwcmVzZXJ2ZSIgeT0iNDYxIiBzdHJva2U9Im5vbmUiPjEuMy4xOmZpbmROb2RlRnJvbVRhaWw8L3RleHQ+PGxpbmUgeTI9IjQ2OSIgZmlsbD0ibm9uZSIgeDE9IjM3MiIgeDI9IjQzMyIgc3Ryb2tlPSJibGFjayIgeTE9IjQ2OSIvPjxsaW5lIHkyPSI0NzciIGZpbGw9Im5vbmUiIHgxPSI0MzMiIHgyPSI0MzMiIHN0cm9rZT0iYmxhY2siIHkxPSI0NjkiLz48bGluZSB5Mj0iNDc3IiBmaWxsPSJub25lIiB4MT0iMzcyIiB4Mj0iNDMzIiBzdHJva2U9ImJsYWNrIiB5MT0iNDc3Ii8+PHBhdGggZmlsbD0iYmxhY2siIGQ9Ik0zNzYgNDc0IEwzNzIgNDc3IEwzNzYgNDgwIFoiIHN0cm9rZT0ibm9uZSIvPjxsaW5lIGZpbGw9Im5vbmUiIHgxPSIzNjAiIHgyPSI5NCIgeTE9IjQxOSIgeTI9IjQxOSIgc3Ryb2tlLWRhc2hhcnJheT0iMTAsNSIgc3Ryb2tlPSJibGFjayIvPjxsaW5lIHkyPSI0MTkiIGZpbGw9Im5vbmUiIHgxPSI5OCIgeDI9Ijk0IiBzdHJva2U9ImJsYWNrIiB5MT0iNDE2Ii8+PGxpbmUgeTI9IjQxOSIgZmlsbD0ibm9uZSIgeDE9Ijk4IiB4Mj0iOTQiIHN0cm9rZT0iYmxhY2siIHkxPSI0MjIiLz48bGluZSBmaWxsPSJub25lIiB4MT0iMzYwIiB4Mj0iOTQiIHkxPSI1MzUiIHkyPSI1MzUiIHN0cm9rZS1kYXNoYXJyYXk9IjEwLDUiIHN0cm9rZT0iYmxhY2siLz48bGluZSB5Mj0iNTM1IiBmaWxsPSJub25lIiB4MT0iOTgiIHgyPSI5NCIgc3Ryb2tlPSJibGFjayIgeTE9IjUzMiIvPjxsaW5lIHkyPSI1MzUiIGZpbGw9Im5vbmUiIHgxPSI5OCIgeDI9Ijk0IiBzdHJva2U9ImJsYWNrIiB5MT0iNTM4Ii8+PGxpbmUgZmlsbD0ibm9uZSIgeDE9IjM2MCIgeDI9Ijk0IiB5MT0iNzAxIiB5Mj0iNzAxIiBzdHJva2UtZGFzaGFycmF5PSIxMCw1IiBzdHJva2U9ImJsYWNrIi8+PGxpbmUgeTI9IjcwMSIgZmlsbD0ibm9uZSIgeDE9Ijk4IiB4Mj0iOTQiIHN0cm9rZT0iYmxhY2siIHkxPSI2OTgiLz48bGluZSB5Mj0iNzAxIiBmaWxsPSJub25lIiB4MT0iOTgiIHgyPSI5NCIgc3Ryb2tlPSJibGFjayIgeTE9IjcwNCIvPjwvZz48ZyB0ZXh0LXJlbmRlcmluZz0ib3B0aW1pemVMZWdpYmlsaXR5IiBzdHJva2UtbWl0ZXJsaW1pdD0iMTIiIGZvbnQtc2l6ZT0iMTFweCIgc3Ryb2tlLWRhc2hhcnJheT0iMTIsNiIgZm9udC1mYW1pbHk9InNhbnMtc2VyaWYiIHRyYW5zZm9ybT0idHJhbnNsYXRlKDAsMzApIj48bGluZSB5Mj0iODY4IiBmaWxsPSJub25lIiB4MT0iNDk5IiB4Mj0iNDk5IiB5MT0iMCIvPjwvZz48ZyBmaWxsPSJyZ2IoMjU1LDIyNCwxNjcpIiB0ZXh0LXJlbmRlcmluZz0ib3B0aW1pemVMZWdpYmlsaXR5IiBmb250LXNpemU9IjExcHgiIGZvbnQtZmFtaWx5PSJzYW5zLXNlcmlmIiB0cmFuc2Zvcm09InRyYW5zbGF0ZSgwLDMwKSIgc3Ryb2tlPSJyZ2IoMjU1LDIyNCwxNjcpIj48cmVjdCB4PSI0OTUiIHdpZHRoPSI5IiBoZWlnaHQ9IjI1IiB5PSI1NjAiIHN0cm9rZT0ibm9uZSIvPjxyZWN0IGZpbGw9Im5vbmUiIHg9IjQ5NSIgd2lkdGg9IjgiIGhlaWdodD0iMjQiIHk9IjU2MCIgc3Ryb2tlPSJibGFjayIvPjxsaW5lIGZpbGw9Im5vbmUiIHgxPSI0OTUiIHgyPSI5NCIgeTE9IjU4NSIgeTI9IjU4NSIgc3Ryb2tlLWRhc2hhcnJheT0iMTAsNSIgc3Ryb2tlPSJibGFjayIvPjxsaW5lIHkyPSI1ODUiIGZpbGw9Im5vbmUiIHgxPSI5OCIgeDI9Ijk0IiBzdHJva2U9ImJsYWNrIiB5MT0iNTgyIi8+PGxpbmUgeTI9IjU4NSIgZmlsbD0ibm9uZSIgeDE9Ijk4IiB4Mj0iOTQiIHN0cm9rZT0iYmxhY2siIHkxPSI1ODgiLz48L2c+PC9nPjwvc3ZnPg==;imageBorder=default;sketch=1;" parent="1" vertex="1">
                    <mxGeometry x="700" y="246.55" width="404" height="593.45" as="geometry"/>
                </mxCell>
                <mxCell id="26" value="&lt;font color=&quot;#6262fc&quot;&gt;&lt;font style=&quot;font-size: 12px&quot;&gt;Node封装当前线程，加入到ConditionObject维护的条件队列中&lt;/font&gt;&lt;br&gt;&lt;/font&gt;" style="rounded=0;whiteSpace=wrap;html=1;fillColor=none;strokeColor=none;comic=1;align=left;sketch=1;" parent="1" vertex="1">
                    <mxGeometry x="900" y="340" width="190" height="40" as="geometry"/>
                </mxCell>
                <mxCell id="27" value="" style="rounded=0;whiteSpace=wrap;html=1;fillColor=none;strokeColor=#b85450;comic=0;align=left;sketch=0;" parent="1" vertex="1">
                    <mxGeometry x="750" y="304" width="140" height="110" as="geometry"/>
                </mxCell>
                <mxCell id="28" value="" style="rounded=0;whiteSpace=wrap;html=1;fillColor=none;strokeColor=#b85450;comic=0;align=left;sketch=0;" parent="1" vertex="1">
                    <mxGeometry x="750" y="425" width="250" height="115" as="geometry"/>
                </mxCell>
                <mxCell id="29" value="&lt;span&gt;&lt;font color=&quot;#6262fc&quot; style=&quot;font-size: 12px&quot;&gt;完全释放当前线程占有的锁资源&lt;br&gt;state被保存在当前函数栈中&lt;br&gt;&lt;/font&gt;&lt;/span&gt;" style="rounded=0;whiteSpace=wrap;html=1;fillColor=none;strokeColor=none;comic=1;align=left;sketch=1;" parent="1" vertex="1">
                    <mxGeometry x="1005" y="460" width="170" height="40" as="geometry"/>
                </mxCell>
                <mxCell id="30" value="&lt;font color=&quot;#cc0066&quot; style=&quot;font-size: 12px&quot;&gt;release时因为释放了全部资源，因此会唤醒后继节点&lt;/font&gt;" style="rounded=0;whiteSpace=wrap;html=1;fillColor=none;strokeColor=none;comic=1;align=left;sketch=1;" parent="1" vertex="1">
                    <mxGeometry x="1005" y="500" width="180" height="40" as="geometry"/>
                </mxCell>
                <mxCell id="31" value="" style="rounded=0;whiteSpace=wrap;html=1;fillColor=none;strokeColor=#b85450;comic=0;align=left;sketch=0;" parent="1" vertex="1">
                    <mxGeometry x="750" y="547" width="290" height="107" as="geometry"/>
                </mxCell>
                <mxCell id="32" value="&lt;div&gt;&lt;span style=&quot;color: rgb(98 , 98 , 252) ; font-size: 10px&quot;&gt;循环&lt;/span&gt;&lt;/div&gt;" style="rounded=0;whiteSpace=wrap;html=1;fillColor=none;strokeColor=none;comic=1;align=center;sketch=1;" parent="1" vertex="1">
                    <mxGeometry x="760" y="585" width="36.16" height="15" as="geometry"/>
                </mxCell>
                <mxCell id="33" value="&lt;span&gt;&lt;font color=&quot;#6262fc&quot; style=&quot;font-size: 12px&quot;&gt;节点是否在同步队列中&lt;br&gt;① 在，跳出循环&lt;br&gt;② 不在，阻塞&lt;br&gt;&lt;/font&gt;&lt;/span&gt;" style="rounded=0;whiteSpace=wrap;html=1;fillColor=none;strokeColor=none;comic=1;align=left;sketch=1;" parent="1" vertex="1">
                    <mxGeometry x="1040" y="573.5" width="130" height="54" as="geometry"/>
                </mxCell>
                <mxCell id="34" value="" style="rounded=0;whiteSpace=wrap;html=1;fillColor=none;strokeColor=#b85450;comic=0;align=left;sketch=0;" parent="1" vertex="1">
                    <mxGeometry x="750" y="700" width="200" height="33" as="geometry"/>
                </mxCell>
                <mxCell id="35" value="&lt;font color=&quot;#6262fc&quot;&gt;&lt;font style=&quot;font-size: 12px&quot;&gt;回到同步队列后在队列阻塞获取原来的state资源&lt;/font&gt;&lt;br&gt;&lt;/font&gt;" style="rounded=0;whiteSpace=wrap;html=1;fillColor=none;strokeColor=none;comic=1;align=left;sketch=1;" parent="1" vertex="1">
                    <mxGeometry x="960" y="697" width="150" height="39" as="geometry"/>
                </mxCell>
                <mxCell id="36" value="" style="shape=image;verticalLabelPosition=bottom;labelBackgroundColor=#ffffff;verticalAlign=top;aspect=fixed;imageAspect=0;image=data:image/svg+xml,PHN2ZyB4bWxucz0iaHR0cDovL3d3dy53My5vcmcvMjAwMC9zdmciIHhtbG5zOnhsaW5rPSJodHRwOi8vd3d3LnczLm9yZy8xOTk5L3hsaW5rIiB4bWxuczpzdmdqcz0iaHR0cDovL3N2Z2pzLmNvbS9zdmdqcyIgaWQ9IlN2Z2pzU3ZnMTIzNSIgd2lkdGg9IjExNjguMDkzODExMDM1MTU2MiIgaGVpZ2h0PSI0NTQuODk1ODI4MjQ3MDcwMyIgdmVyc2lvbj0iMS4xIiB2aWV3Qm94PSIwIDAgMTE2OC4wOTM4MTEwMzUxNTYyIDQ1NC44OTU4MjgyNDcwNzAzIj48ZGVmcyBpZD0iU3ZnanNEZWZzMTIzNiI+PG1hcmtlciBpZD0iU3ZnanNNYXJrZXIxMjYwIiBtYXJrZXJXaWR0aD0iMTQiIG1hcmtlckhlaWdodD0iMTAiIHJlZlg9IjEwIiByZWZZPSI1IiB2aWV3Qm94PSIwIDAgMTQgMTAiIG9yaWVudD0iYXV0byIgbWFya2VyVW5pdHM9InVzZXJTcGFjZU9uVXNlIiBzdHJva2UtZGFzaGFycmF5PSIwLDAiPjxwYXRoIGlkPSJTdmdqc1BhdGgxMjYxIiBkPSJNMCwwIEwxNCw1IEwwLDEwIEwwLDAiIGZpbGw9IiMzMjMyMzIiIHN0cm9rZT0iIzMyMzIzMiIgc3Ryb2tlLXdpZHRoPSIxIi8+PC9tYXJrZXI+PG1hcmtlciBpZD0iU3ZnanNNYXJrZXIxMjgyIiBtYXJrZXJXaWR0aD0iMTQiIG1hcmtlckhlaWdodD0iMTAiIHJlZlg9IjEwIiByZWZZPSI1IiB2aWV3Qm94PSIwIDAgMTQgMTAiIG9yaWVudD0iYXV0byIgbWFya2VyVW5pdHM9InVzZXJTcGFjZU9uVXNlIiBzdHJva2UtZGFzaGFycmF5PSIwLDAiPjxwYXRoIGlkPSJTdmdqc1BhdGgxMjgzIiBkPSJNMCwwIEwxNCw1IEwwLDEwIEwwLDAiIGZpbGw9IiMzMjMyMzIiIHN0cm9rZT0iIzMyMzIzMiIgc3Ryb2tlLXdpZHRoPSIxIi8+PC9tYXJrZXI+PG1hcmtlciBpZD0iU3ZnanNNYXJrZXIxMzAyIiBtYXJrZXJXaWR0aD0iMTQiIG1hcmtlckhlaWdodD0iMTAiIHJlZlg9IjEwIiByZWZZPSI1IiB2aWV3Qm94PSIwIDAgMTQgMTAiIG9yaWVudD0iYXV0byIgbWFya2VyVW5pdHM9InVzZXJTcGFjZU9uVXNlIiBzdHJva2UtZGFzaGFycmF5PSIwLDAiPjxwYXRoIGlkPSJTdmdqc1BhdGgxMzAzIiBkPSJNMCwwIEwxNCw1IEwwLDEwIEwwLDAiIGZpbGw9IiMzMjMyMzIiIHN0cm9rZT0iIzMyMzIzMiIgc3Ryb2tlLXdpZHRoPSIxIi8+PC9tYXJrZXI+PG1hcmtlciBpZD0iU3ZnanNNYXJrZXIxMzIyIiBtYXJrZXJXaWR0aD0iMTQiIG1hcmtlckhlaWdodD0iMTAiIHJlZlg9IjEwIiByZWZZPSI1IiB2aWV3Qm94PSIwIDAgMTQgMTAiIG9yaWVudD0iYXV0byIgbWFya2VyVW5pdHM9InVzZXJTcGFjZU9uVXNlIiBzdHJva2UtZGFzaGFycmF5PSIwLDAiPjxwYXRoIGlkPSJTdmdqc1BhdGgxMzIzIiBkPSJNMCwwIEwxNCw1IEwwLDEwIEwwLDAiIGZpbGw9IiMzMjMyMzIiIHN0cm9rZT0iIzMyMzIzMiIgc3Ryb2tlLXdpZHRoPSIxIi8+PC9tYXJrZXI+PG1hcmtlciBpZD0iU3ZnanNNYXJrZXIxMzI2IiBtYXJrZXJXaWR0aD0iMTQiIG1hcmtlckhlaWdodD0iMTAiIHJlZlg9IjEwIiByZWZZPSI1IiB2aWV3Qm94PSIwIDAgMTQgMTAiIG9yaWVudD0iYXV0byIgbWFya2VyVW5pdHM9InVzZXJTcGFjZU9uVXNlIiBzdHJva2UtZGFzaGFycmF5PSIwLDAiPjxwYXRoIGlkPSJTdmdqc1BhdGgxMzI3IiBkPSJNMCwwIEwxNCw1IEwwLDEwIEwwLDAiIGZpbGw9IiMzMjMyMzIiIHN0cm9rZT0iIzMyMzIzMiIgc3Ryb2tlLXdpZHRoPSIxIi8+PC9tYXJrZXI+PG1hcmtlciBpZD0iU3ZnanNNYXJrZXIxMzQwIiBtYXJrZXJXaWR0aD0iMTQiIG1hcmtlckhlaWdodD0iMTAiIHJlZlg9IjEwIiByZWZZPSI1IiB2aWV3Qm94PSIwIDAgMTQgMTAiIG9yaWVudD0iYXV0byIgbWFya2VyVW5pdHM9InVzZXJTcGFjZU9uVXNlIiBzdHJva2UtZGFzaGFycmF5PSIwLDAiPjxwYXRoIGlkPSJTdmdqc1BhdGgxMzQxIiBkPSJNMCwwIEwxNCw1IEwwLDEwIEwwLDAiIGZpbGw9IiMzMjMyMzIiIHN0cm9rZT0iIzMyMzIzMiIgc3Ryb2tlLXdpZHRoPSIxIi8+PC9tYXJrZXI+PG1hcmtlciBpZD0iU3ZnanNNYXJrZXIxMzYyIiBtYXJrZXJXaWR0aD0iMTQiIG1hcmtlckhlaWdodD0iMTAiIHJlZlg9IjEwIiByZWZZPSI1IiB2aWV3Qm94PSIwIDAgMTQgMTAiIG9yaWVudD0iYXV0byIgbWFya2VyVW5pdHM9InVzZXJTcGFjZU9uVXNlIiBzdHJva2UtZGFzaGFycmF5PSIwLDAiPjxwYXRoIGlkPSJTdmdqc1BhdGgxMzYzIiBkPSJNMCwwIEwxNCw1IEwwLDEwIEwwLDAiIGZpbGw9IiMzMjMyMzIiIHN0cm9rZT0iIzMyMzIzMiIgc3Ryb2tlLXdpZHRoPSIxIi8+PC9tYXJrZXI+PG1hcmtlciBpZD0iU3ZnanNNYXJrZXIxMzkyIiBtYXJrZXJXaWR0aD0iMTQiIG1hcmtlckhlaWdodD0iMTAiIHJlZlg9IjEwIiByZWZZPSI1IiB2aWV3Qm94PSIwIDAgMTQgMTAiIG9yaWVudD0iYXV0byIgbWFya2VyVW5pdHM9InVzZXJTcGFjZU9uVXNlIiBzdHJva2UtZGFzaGFycmF5PSIwLDAiPjxwYXRoIGlkPSJTdmdqc1BhdGgxMzkzIiBkPSJNMCwwIEwxNCw1IEwwLDEwIEwwLDAiIGZpbGw9IiMxOTc2ZDIiIHN0cm9rZT0iIzE5NzZkMiIgc3Ryb2tlLXdpZHRoPSIxIi8+PC9tYXJrZXI+PG1hcmtlciBpZD0iU3ZnanNNYXJrZXIxNDI2IiBtYXJrZXJXaWR0aD0iMTQiIG1hcmtlckhlaWdodD0iMTAiIHJlZlg9IjEwIiByZWZZPSI1IiB2aWV3Qm94PSIwIDAgMTQgMTAiIG9yaWVudD0iYXV0byIgbWFya2VyVW5pdHM9InVzZXJTcGFjZU9uVXNlIiBzdHJva2UtZGFzaGFycmF5PSIwLDAiPjxwYXRoIGlkPSJTdmdqc1BhdGgxNDI3IiBkPSJNMCwwIEwxNCw1IEwwLDEwIEwwLDAiIGZpbGw9IiMxOTc2ZDIiIHN0cm9rZT0iIzE5NzZkMiIgc3Ryb2tlLXdpZHRoPSIxIi8+PC9tYXJrZXI+PG1hcmtlciBpZD0iU3ZnanNNYXJrZXIxNDMwIiBtYXJrZXJXaWR0aD0iMTQiIG1hcmtlckhlaWdodD0iMTAiIHJlZlg9IjEwIiByZWZZPSI1IiB2aWV3Qm94PSIwIDAgMTQgMTAiIG9yaWVudD0iYXV0byIgbWFya2VyVW5pdHM9InVzZXJTcGFjZU9uVXNlIiBzdHJva2UtZGFzaGFycmF5PSIwLDAiPjxwYXRoIGlkPSJTdmdqc1BhdGgxNDMxIiBkPSJNMCwwIEwxNCw1IEwwLDEwIEwwLDAiIGZpbGw9IiMzMjMyMzIiIHN0cm9rZT0iIzMyMzIzMiIgc3Ryb2tlLXdpZHRoPSIxIi8+PC9tYXJrZXI+PG1hcmtlciBpZD0iU3ZnanNNYXJrZXIxNDQ2IiBtYXJrZXJXaWR0aD0iMTQiIG1hcmtlckhlaWdodD0iMTAiIHJlZlg9IjEwIiByZWZZPSI1IiB2aWV3Qm94PSIwIDAgMTQgMTAiIG9yaWVudD0iYXV0byIgbWFya2VyVW5pdHM9InVzZXJTcGFjZU9uVXNlIiBzdHJva2UtZGFzaGFycmF5PSIwLDAiPjxwYXRoIGlkPSJTdmdqc1BhdGgxNDQ3IiBkPSJNMCwwIEwxNCw1IEwwLDEwIEwwLDAiIGZpbGw9IiMzMjMyMzIiIHN0cm9rZT0iIzMyMzIzMiIgc3Ryb2tlLXdpZHRoPSIxIi8+PC9tYXJrZXI+PG1hcmtlciBpZD0iU3ZnanNNYXJrZXIxNDYwIiBtYXJrZXJXaWR0aD0iMTQiIG1hcmtlckhlaWdodD0iMTAiIHJlZlg9IjEwIiByZWZZPSI1IiB2aWV3Qm94PSIwIDAgMTQgMTAiIG9yaWVudD0iYXV0byIgbWFya2VyVW5pdHM9InVzZXJTcGFjZU9uVXNlIiBzdHJva2UtZGFzaGFycmF5PSIwLDAiPjxwYXRoIGlkPSJTdmdqc1BhdGgxNDYxIiBkPSJNMCwwIEwxNCw1IEwwLDEwIEwwLDAiIGZpbGw9IiMzMjMyMzIiIHN0cm9rZT0iIzMyMzIzMiIgc3Ryb2tlLXdpZHRoPSIxIi8+PC9tYXJrZXI+PG1hcmtlciBpZD0iU3ZnanNNYXJrZXIxNDc4IiBtYXJrZXJXaWR0aD0iMTQiIG1hcmtlckhlaWdodD0iMTAiIHJlZlg9IjEwIiByZWZZPSI1IiB2aWV3Qm94PSIwIDAgMTQgMTAiIG9yaWVudD0iYXV0byIgbWFya2VyVW5pdHM9InVzZXJTcGFjZU9uVXNlIiBzdHJva2UtZGFzaGFycmF5PSIwLDAiPjxwYXRoIGlkPSJTdmdqc1BhdGgxNDc5IiBkPSJNMCwwIEwxNCw1IEwwLDEwIEwwLDAiIGZpbGw9IiMzMjMyMzIiIHN0cm9rZT0iIzMyMzIzMiIgc3Ryb2tlLXdpZHRoPSIxIi8+PC9tYXJrZXI+PG1hcmtlciBpZD0iU3ZnanNNYXJrZXIxNDgyIiBtYXJrZXJXaWR0aD0iMTQiIG1hcmtlckhlaWdodD0iMTAiIHJlZlg9IjEwIiByZWZZPSI1IiB2aWV3Qm94PSIwIDAgMTQgMTAiIG9yaWVudD0iYXV0byIgbWFya2VyVW5pdHM9InVzZXJTcGFjZU9uVXNlIiBzdHJva2UtZGFzaGFycmF5PSIwLDAiPjxwYXRoIGlkPSJTdmdqc1BhdGgxNDgzIiBkPSJNMCwwIEwxNCw1IEwwLDEwIEwwLDAiIGZpbGw9IiMzMjMyMzIiIHN0cm9rZT0iIzMyMzIzMiIgc3Ryb2tlLXdpZHRoPSIxIi8+PC9tYXJrZXI+PG1hcmtlciBpZD0iU3ZnanNNYXJrZXIxNDg2IiBtYXJrZXJXaWR0aD0iMTQiIG1hcmtlckhlaWdodD0iMTAiIHJlZlg9IjEwIiByZWZZPSI1IiB2aWV3Qm94PSIwIDAgMTQgMTAiIG9yaWVudD0iYXV0byIgbWFya2VyVW5pdHM9InVzZXJTcGFjZU9uVXNlIiBzdHJva2UtZGFzaGFycmF5PSIwLDAiPjxwYXRoIGlkPSJTdmdqc1BhdGgxNDg3IiBkPSJNMCwwIEwxNCw1IEwwLDEwIEwwLDAiIGZpbGw9IiMzMjMyMzIiIHN0cm9rZT0iIzMyMzIzMiIgc3Ryb2tlLXdpZHRoPSIxIi8+PC9tYXJrZXI+PC9kZWZzPjxnIGlkPSJTdmdqc0cxMjM3IiB0cmFuc2Zvcm09InRyYW5zbGF0ZSgyNS4wMDIwNjc1NjU5MTc5Nyw3My45MDIxMDM0MjQwNzIyNykiPjxwYXRoIGlkPSJTdmdqc1BhdGgxMjM4IiBkPSJNIDAgNFEgMCAwIDQgMEwgMTM2IDBRIDE0MCAwIDE0MCA0TCAxNDAgNTdRIDE0MCA2MSAxMzYgNjFMIDQgNjFRIDAgNjEgMCA1N1oiIHN0cm9rZT0icmdiYSg1MCw1MCw1MCwxKSIgc3Ryb2tlLXdpZHRoPSIyIiBmaWxsLW9wYWNpdHk9IjEiIGZpbGw9IiNmZmNkZDIiLz48ZyBpZD0iU3ZnanNHMTIzOSI+PHRleHQgaWQ9IlN2Z2pzVGV4dDEyNDAiIGZvbnQtZmFtaWx5PSLlvq7ova/pm4Xpu5EiIHRleHQtYW5jaG9yPSJtaWRkbGUiIGZvbnQtc2l6ZT0iMTNweCIgd2lkdGg9IjEyMHB4IiBmaWxsPSIjMzIzMjMyIiBmb250LXdlaWdodD0iNDAwIiBhbGlnbj0ibWlkZGxlIiBsaW5laGVpZ2h0PSIxMjUlIiBhbmNob3I9Im1pZGRsZSIgZmFtaWx5PSLlvq7ova/pm4Xpu5EiIHNpemU9IjEzcHgiIHdlaWdodD0iNDAwIiBmb250LXN0eWxlPSIiIG9wYWNpdHk9IjEiIHk9IjExLjM3NSIgdHJhbnNmb3JtPSJyb3RhdGUoMCkiPjx0c3BhbiBpZD0iU3ZnanNUc3BhbjEyNDEiIGR5PSIxNiIgeD0iNzAiPjx0c3BhbiBpZD0iU3ZnanNUc3BhbjEyNDIiIHN0eWxlPSJ0ZXh0LWRlY29yYXRpb246OyI+Q29uZGl0aW9uT2JqZWN0IDwvdHNwYW4+PC90c3Bhbj48dHNwYW4gaWQ9IlN2Z2pzVHNwYW4xMjQzIiBkeT0iMTYiIHg9IjcwIj48dHNwYW4gaWQ9IlN2Z2pzVHNwYW4xMjQ0IiBzdHlsZT0idGV4dC1kZWNvcmF0aW9uOjsiPnNpZ25hbDwvdHNwYW4+PHRzcGFuIGlkPSJTdmdqc1RzcGFuMTI0NSIgc3R5bGU9InRleHQtZGVjb3JhdGlvbjo7Zm9udC1zaXplOiBpbmhlcml0OyI+5Ye95pWwPC90c3Bhbj48L3RzcGFuPjwvdGV4dD48L2c+PC9nPjxnIGlkPSJTdmdqc0cxMjQ2IiB0cmFuc2Zvcm09InRyYW5zbGF0ZSgyMTUuMTAyMDU4NDEwNjQ0NTMsMjUuMDAyMDc5MDEwMDA5NzY2KSI+PHBhdGggaWQ9IlN2Z2pzUGF0aDEyNDciIGQ9Ik0gMCAwTCA3MjYuNDAwMDA5MTU1MjczNCAwTCA3NDIuNDAwMDA5MTU1MjczNCAxNkwgNzQyLjQwMDAwOTE1NTI3MzQgMzY1TCAwIDM2NUwgMCAwWiIgc3Ryb2tlPSJub25lIiBmaWxsLW9wYWNpdHk9IjEiIGZpbGw9IiNmZmZmYWEiLz48cGF0aCBpZD0iU3ZnanNQYXRoMTI0OCIgZD0iTSA3MjYuNDAwMDA5MTU1MjczNCAwTCA3MjYuNDAwMDA5MTU1MjczNCAxNkwgNzQyLjQwMDAwOTE1NTI3MzQgMTZaIiBzdHJva2U9Im5vbmUiIGZpbGwtb3BhY2l0eT0iMSIgZmlsbD0iI2NkY2RjZCIvPjxwYXRoIGlkPSJTdmdqc1BhdGgxMjQ5IiBkPSJNIDAgMEwgNzI2LjQwMDAwOTE1NTI3MzQgMEwgNzQyLjQwMDAwOTE1NTI3MzQgMTZMIDc0Mi40MDAwMDkxNTUyNzM0IDM2NUwgMCAzNjVMIDAgMFoiIHN0cm9rZT0ibm9uZSIgZmlsbD0ibm9uZSIvPjxnIGlkPSJTdmdqc0cxMjUwIj48dGV4dCBpZD0iU3ZnanNUZXh0MTI1MSIgZm9udC1mYW1pbHk9IuW+rui9r+mbhem7kSIgdGV4dC1hbmNob3I9Im1pZGRsZSIgZm9udC1zaXplPSIxM3B4IiB3aWR0aD0iNzIzcHgiIGZpbGw9IiMzMjMyMzIiIGZvbnQtd2VpZ2h0PSI0MDAiIGFsaWduPSJtaWRkbGUiIGxpbmVoZWlnaHQ9IjEyNSUiIGFuY2hvcj0ibWlkZGxlIiBmYW1pbHk9IuW+rui9r+mbhem7kSIgc2l6ZT0iMTNweCIgd2VpZ2h0PSI0MDAiIGZvbnQtc3R5bGU9IiIgb3BhY2l0eT0iMSIgeT0iMTcxLjg3NSIgdHJhbnNmb3JtPSJyb3RhdGUoMCkiLz48L2c+PC9nPjxnIGlkPSJTdmdqc0cxMjUyIiB0cmFuc2Zvcm09InRyYW5zbGF0ZSgyNDQuNTAyMDY3NTY1OTE3OTcsMzYuOTAyMTAzNDI0MDcyMjY2KSI+PHBhdGggaWQ9IlN2Z2pzUGF0aDEyNTMiIGQ9Ik0gMCAzMC41TCA4NSAwTCAxNzAgMzAuNUwgODUgNjFaIiBzdHJva2U9InJnYmEoNTAsNTAsNTAsMSkiIHN0cm9rZS13aWR0aD0iMiIgZmlsbC1vcGFjaXR5PSIxIiBmaWxsPSIjZmZiNzRkIi8+PGcgaWQ9IlN2Z2pzRzEyNTQiPjx0ZXh0IGlkPSJTdmdqc1RleHQxMjU1IiBmb250LWZhbWlseT0i5b6u6L2v6ZuF6buRIiB0ZXh0LWFuY2hvcj0ibWlkZGxlIiBmb250LXNpemU9IjEzcHgiIHdpZHRoPSIxNTBweCIgZmlsbD0iIzMyMzIzMiIgZm9udC13ZWlnaHQ9IjQwMCIgYWxpZ249Im1pZGRsZSIgbGluZWhlaWdodD0iMTI1JSIgYW5jaG9yPSJtaWRkbGUiIGZhbWlseT0i5b6u6L2v6ZuF6buRIiBzaXplPSIxM3B4IiB3ZWlnaHQ9IjQwMCIgZm9udC1zdHlsZT0iIiBvcGFjaXR5PSIxIiB5PSIyMC4xOCIgdHJhbnNmb3JtPSJyb3RhdGUoMCkiPjx0c3BhbiBpZD0iU3ZnanNUc3BhbjEyNTYiIGR5PSIxNiIgeD0iODUiPjx0c3BhbiBpZD0iU3ZnanNUc3BhbjEyNTciIHN0eWxlPSJ0ZXh0LWRlY29yYXRpb246OyI+5b2T5YmN57q/56iL5piv5ZCm5Li6b3duZXI8L3RzcGFuPjwvdHNwYW4+PC90ZXh0PjwvZz48L2c+PGcgaWQ9IlN2Z2pzRzEyNTgiPjxwYXRoIGlkPSJTdmdqc1BhdGgxMjU5IiBkPSJNNDE1LjUwMjA2NzU2NTkxNzk3IDY3LjQwMjEwMzQyNDA3MjI3TDQ0My4yNzcwNjUyNzcwOTk2IDY3LjQwMjEwMzQyNDA3MjI3TDQ0My4yNzcwNjUyNzcwOTk2IDY3LjQwMjEwMzQyNDA3MjI3TDQ2OS45NTIwNjI5ODgyODEyIDY3LjQwMjEwMzQyNDA3MjI3IiBzdHJva2U9IiMzMjMyMzIiIHN0cm9rZS13aWR0aD0iMiIgZmlsbD0ibm9uZSIgbWFya2VyLWVuZD0idXJsKCNTdmdqc01hcmtlcjEyNjApIi8+PHJlY3QgaWQ9IlN2Z2pzUmVjdDEyNjIiIHdpZHRoPSIxMyIgaGVpZ2h0PSIxNiIgeD0iNDM2LjIyNzA2NTI3NzA5OTYiIHk9IjU5LjQwMjEwMzQyNDA3MjI2NiIgZmlsbD0iI2ZmZmZmZiIvPjx0ZXh0IGlkPSJTdmdqc1RleHQxMjYzIiBmb250LWZhbWlseT0i5b6u6L2v6ZuF6buRIiB0ZXh0LWFuY2hvcj0ibWlkZGxlIiBmb250LXNpemU9IjEzcHgiIHdpZHRoPSIxM3B4IiBmaWxsPSIjMzIzMjMyIiBmb250LXdlaWdodD0iNDAwIiBhbGlnbj0idG9wIiBsaW5laGVpZ2h0PSIxNnB4IiBhbmNob3I9Im1pZGRsZSIgZmFtaWx5PSLlvq7ova/pm4Xpu5EiIHNpemU9IjEzcHgiIHdlaWdodD0iNDAwIiBmb250LXN0eWxlPSIiIG9wYWNpdHk9IjEiIHk9IjU2Ljc3NzEwMzQyNDA3MjI2NiIgdHJhbnNmb3JtPSJyb3RhdGUoMCkiPjx0c3BhbiBpZD0iU3ZnanNUc3BhbjEyNjQiIGR5PSIxNiIgeD0iNDQyLjcyNzA2NTI3NzA5OTYiPjx0c3BhbiBpZD0iU3ZnanNUc3BhbjEyNjUiIHN0eWxlPSJ0ZXh0LWRlY29yYXRpb246OyI+5ZCmPC90c3Bhbj48L3RzcGFuPjwvdGV4dD48L2c+PGcgaWQ9IlN2Z2pzRzEyNjYiIHRyYW5zZm9ybT0idHJhbnNsYXRlKDQ3My41NTIwNjI5ODgyODEyNSw0NS40MDIxMDM0MjQwNzIyNjYpIj48cGF0aCBpZD0iU3ZnanNQYXRoMTI2NyIgZD0iTSAwIDBMIDEwMCAwTCAxMDAgNDRMIDAgNDRaIiBzdHJva2U9InJnYmEoNTAsNTAsNTAsMSkiIHN0cm9rZS13aWR0aD0iMiIgZmlsbC1vcGFjaXR5PSIxIiBmaWxsPSIjMDBiY2Q0Ii8+PGcgaWQ9IlN2Z2pzRzEyNjgiPjx0ZXh0IGlkPSJTdmdqc1RleHQxMjY5IiBmb250LWZhbWlseT0i5b6u6L2v6ZuF6buRIiB0ZXh0LWFuY2hvcj0ibWlkZGxlIiBmb250LXNpemU9IjEzcHgiIHdpZHRoPSI4MHB4IiBmaWxsPSIjMzIzMjMyIiBmb250LXdlaWdodD0iNDAwIiBhbGlnbj0ibWlkZGxlIiBsaW5laGVpZ2h0PSIxMjUlIiBhbmNob3I9Im1pZGRsZSIgZmFtaWx5PSLlvq7ova/pm4Xpu5EiIHNpemU9IjEzcHgiIHdlaWdodD0iNDAwIiBmb250LXN0eWxlPSIiIG9wYWNpdHk9IjEiIHk9IjExLjM3NSIgdHJhbnNmb3JtPSJyb3RhdGUoMCkiPjx0c3BhbiBpZD0iU3ZnanNUc3BhbjEyNzAiIGR5PSIxNiIgeD0iNTAiPjx0c3BhbiBpZD0iU3ZnanNUc3BhbjEyNzEiIHN0eWxlPSJ0ZXh0LWRlY29yYXRpb246OyI+5oqb5Ye65byC5bi4PC90c3Bhbj48L3RzcGFuPjwvdGV4dD48L2c+PC9nPjxnIGlkPSJTdmdqc0cxMjcyIiB0cmFuc2Zvcm09InRyYW5zbGF0ZSgyNTEuMDAyMDY3NTY1OTE3OTcsMTY2LjAwMjA3OTAxMDAwOTc3KSI+PHBhdGggaWQ9IlN2Z2pzUGF0aDEyNzMiIGQ9Ik0gMCAwTCAxNTcgMEwgMTU3IDUzTCAwIDUzWiIgc3Ryb2tlPSJyZ2JhKDUwLDUwLDUwLDEpIiBzdHJva2Utd2lkdGg9IjIiIGZpbGwtb3BhY2l0eT0iMSIgZmlsbD0iI2ZmZmZmZiIvPjxnIGlkPSJTdmdqc0cxMjc0Ij48dGV4dCBpZD0iU3ZnanNUZXh0MTI3NSIgZm9udC1mYW1pbHk9IuW+rui9r+mbhem7kSIgdGV4dC1hbmNob3I9Im1pZGRsZSIgZm9udC1zaXplPSIxM3B4IiB3aWR0aD0iMTM3cHgiIGZpbGw9IiMzMjMyMzIiIGZvbnQtd2VpZ2h0PSI0MDAiIGFsaWduPSJtaWRkbGUiIGxpbmVoZWlnaHQ9IjEyNSUiIGFuY2hvcj0ibWlkZGxlIiBmYW1pbHk9IuW+rui9r+mbhem7kSIgc2l6ZT0iMTNweCIgd2VpZ2h0PSI0MDAiIGZvbnQtc3R5bGU9IiIgb3BhY2l0eT0iMSIgeT0iNy4zNzUiIHRyYW5zZm9ybT0icm90YXRlKDApIj48dHNwYW4gaWQ9IlN2Z2pzVHNwYW4xMjc2IiBkeT0iMTYiIHg9Ijc4LjUiPjx0c3BhbiBpZD0iU3ZnanNUc3BhbjEyNzciIHN0eWxlPSJ0ZXh0LWRlY29yYXRpb246OyI+6I635Y+Wd2FpdFNldOesrOS4gOS4quiKgjwvdHNwYW4+PC90c3Bhbj48dHNwYW4gaWQ9IlN2Z2pzVHNwYW4xMjc4IiBkeT0iMTYiIHg9Ijc4LjUiPjx0c3BhbiBpZD0iU3ZnanNUc3BhbjEyNzkiIHN0eWxlPSJ0ZXh0LWRlY29yYXRpb246OyI+54K577yMZG9TaWduYWwoZmlyc3QpPC90c3Bhbj48L3RzcGFuPjwvdGV4dD48L2c+PC9nPjxnIGlkPSJTdmdqc0cxMjgwIj48cGF0aCBpZD0iU3ZnanNQYXRoMTI4MSIgZD0iTTMyOS41MDIwNjc1NjU5MTc5NyA5OC45MDIxMDM0MjQwNzIyN0wzMjkuNTAyMDY3NTY1OTE3OTcgMTMxLjkwMjE5MDIwODQzNTA2TDMyOS41MDIwNjc1NjU5MTc5NyAxMzEuOTAyMTkwMjA4NDM1MDZMMzI5LjUwMjA2NzU2NTkxNzk3IDE2Mi40MDIwNzkwMTAwMDk3NyIgc3Ryb2tlPSIjMzIzMjMyIiBzdHJva2Utd2lkdGg9IjIiIGZpbGw9Im5vbmUiIG1hcmtlci1lbmQ9InVybCgjU3ZnanNNYXJrZXIxMjgyKSIvPjxyZWN0IGlkPSJTdmdqc1JlY3QxMjg0IiB3aWR0aD0iMTMiIGhlaWdodD0iMTYiIHg9IjMyMy4wMDIwNjc1NjU5MTc5NyIgeT0iMTIyLjY1MjA5MTIxNzA0MSIgZmlsbD0iI2ZmZmZmZiIvPjx0ZXh0IGlkPSJTdmdqc1RleHQxMjg1IiBmb250LWZhbWlseT0i5b6u6L2v6ZuF6buRIiB0ZXh0LWFuY2hvcj0ibWlkZGxlIiBmb250LXNpemU9IjEzcHgiIHdpZHRoPSIxM3B4IiBmaWxsPSIjMzIzMjMyIiBmb250LXdlaWdodD0iNDAwIiBhbGlnbj0idG9wIiBsaW5laGVpZ2h0PSIxNnB4IiBhbmNob3I9Im1pZGRsZSIgZmFtaWx5PSLlvq7ova/pm4Xpu5EiIHNpemU9IjEzcHgiIHdlaWdodD0iNDAwIiBmb250LXN0eWxlPSIiIG9wYWNpdHk9IjEiIHk9IjEyMC4wMjcwOTEyMTcwNDEiIHRyYW5zZm9ybT0icm90YXRlKDApIj48dHNwYW4gaWQ9IlN2Z2pzVHNwYW4xMjg2IiBkeT0iMTYiIHg9IjMyOS41MDIwNjc1NjU5MTc5NyI+PHRzcGFuIGlkPSJTdmdqc1RzcGFuMTI4NyIgc3R5bGU9InRleHQtZGVjb3JhdGlvbjo7Ij7mmK88L3RzcGFuPjwvdHNwYW4+PC90ZXh0PjwvZz48ZyBpZD0iU3ZnanNHMTI4OCIgdHJhbnNmb3JtPSJ0cmFuc2xhdGUoNDUzLjg3NzA2NzU2NTkxNzk3LDExMC45MDIxMDM0MjQwNzIyNykiPjxwYXRoIGlkPSJTdmdqc1BhdGgxMjg5IiBkPSJNIDAgNFEgMCAwIDQgMEwgMjA1Ljc5OTk5NTQyMjM2MzI4IDBRIDIwOS43OTk5OTU0MjIzNjMyOCAwIDIwOS43OTk5OTU0MjIzNjMyOCA0TCAyMDkuNzk5OTk1NDIyMzYzMjggMjU3USAyMDkuNzk5OTk1NDIyMzYzMjggMjYxIDIwNS43OTk5OTU0MjIzNjMyOCAyNjFMIDQgMjYxUSAwIDI2MSAwIDI1N1oiIHN0cm9rZT0icmdiYSg1MCw1MCw1MCwxKSIgc3Ryb2tlLXdpZHRoPSIyIiBmaWxsLW9wYWNpdHk9IjEiIGZpbGw9IiMyMTk2ZjMiLz48ZyBpZD0iU3ZnanNHMTI5MCI+PHRleHQgaWQ9IlN2Z2pzVGV4dDEyOTEiIGZvbnQtZmFtaWx5PSLlvq7ova/pm4Xpu5EiIHRleHQtYW5jaG9yPSJtaWRkbGUiIGZvbnQtc2l6ZT0iMTNweCIgd2lkdGg9IjE5MHB4IiBmaWxsPSIjMzIzMjMyIiBmb250LXdlaWdodD0iNDAwIiBhbGlnbj0ibWlkZGxlIiBsaW5laGVpZ2h0PSIxMjUlIiBhbmNob3I9Im1pZGRsZSIgZmFtaWx5PSLlvq7ova/pm4Xpu5EiIHNpemU9IjEzcHgiIHdlaWdodD0iNDAwIiBmb250LXN0eWxlPSIiIG9wYWNpdHk9IjEiIHk9IjExOS44NzUiIHRyYW5zZm9ybT0icm90YXRlKDApIi8+PC9nPjwvZz48ZyBpZD0iU3ZnanNHMTI5MiIgdHJhbnNmb3JtPSJ0cmFuc2xhdGUoNDg4LjkwMjA3NjcyMTE5MTQsMTI0LjQwMjEwMzQyNDA3MjI3KSI+PHBhdGggaWQ9IlN2Z2pzUGF0aDEyOTMiIGQ9Ik0gMCAwTCAxNDggMEwgMTQ4IDQ0TCAwIDQ0WiIgc3Ryb2tlPSJyZ2JhKDUwLDUwLDUwLDEpIiBzdHJva2Utd2lkdGg9IjIiIGZpbGwtb3BhY2l0eT0iMSIgZmlsbD0iI2ZmZmZmZiIvPjxnIGlkPSJTdmdqc0cxMjk0Ij48dGV4dCBpZD0iU3ZnanNUZXh0MTI5NSIgZm9udC1mYW1pbHk9IuW+rui9r+mbhem7kSIgdGV4dC1hbmNob3I9Im1pZGRsZSIgZm9udC1zaXplPSIxM3B4IiB3aWR0aD0iMTI4cHgiIGZpbGw9IiMzMjMyMzIiIGZvbnQtd2VpZ2h0PSI0MDAiIGFsaWduPSJtaWRkbGUiIGxpbmVoZWlnaHQ9IjEyNSUiIGFuY2hvcj0ibWlkZGxlIiBmYW1pbHk9IuW+rui9r+mbhem7kSIgc2l6ZT0iMTNweCIgd2VpZ2h0PSI0MDAiIGZvbnQtc3R5bGU9IiIgb3BhY2l0eT0iMSIgeT0iMi44NzUiIHRyYW5zZm9ybT0icm90YXRlKDApIj48dHNwYW4gaWQ9IlN2Z2pzVHNwYW4xMjk2IiBkeT0iMTYiIHg9Ijc0Ij48dHNwYW4gaWQ9IlN2Z2pzVHNwYW4xMjk3IiBzdHlsZT0idGV4dC1kZWNvcmF0aW9uOjsiPndhaXRTZXTkuK3lj5blh7rlubbmlq3lvIA8L3RzcGFuPjwvdHNwYW4+PHRzcGFuIGlkPSJTdmdqc1RzcGFuMTI5OCIgZHk9IjE2IiB4PSI3NCI+PHRzcGFuIGlkPSJTdmdqc1RzcGFuMTI5OSIgc3R5bGU9InRleHQtZGVjb3JhdGlvbjo7Ij7nrKzkuIDkuKroioLngrlmaXJzdDwvdHNwYW4+PC90c3Bhbj48L3RleHQ+PC9nPjwvZz48ZyBpZD0iU3ZnanNHMTMwMCI+PHBhdGggaWQ9IlN2Z2pzUGF0aDEzMDEiIGQ9Ik01NjIuNTAyMDY3NTY1OTE4IDE2OS40MDIxMDM0MjQwNzIyN0w1NjIuNTAyMDY3NTY1OTE4IDE3OC42NTIyMDE2NTI1MjY4Nkw1NjIuOTAyMDc2NzIxMTkxNCAxNzguNjUyMjAxNjUyNTI2ODZMNTYyLjkwMjA3NjcyMTE5MTQgMTg1LjMwMjI5OTg4MDk4MTQyIiBzdHJva2U9IiMzMjMyMzIiIHN0cm9rZS13aWR0aD0iMiIgZmlsbD0ibm9uZSIgbWFya2VyLWVuZD0idXJsKCNTdmdqc01hcmtlcjEzMDIpIi8+PC9nPjxnIGlkPSJTdmdqc0cxMzA0IiB0cmFuc2Zvcm09InRyYW5zbGF0ZSg0ODEuMTUyMDc2NzIxMTkxNCwxODguOTAyMjk5ODgwOTgxNDUpIj48cGF0aCBpZD0iU3ZnanNQYXRoMTMwNSIgZD0iTSAwIDBMIDE2My41IDBMIDE2My41IDQ0TCAwIDQ0WiIgc3Ryb2tlPSJyZ2JhKDUwLDUwLDUwLDEpIiBzdHJva2Utd2lkdGg9IjIiIGZpbGwtb3BhY2l0eT0iMSIgZmlsbD0iI2ZmZmZmZiIvPjxnIGlkPSJTdmdqc0cxMzA2Ij48dGV4dCBpZD0iU3ZnanNUZXh0MTMwNyIgZm9udC1mYW1pbHk9IuW+rui9r+mbhem7kSIgdGV4dC1hbmNob3I9Im1pZGRsZSIgZm9udC1zaXplPSIxM3B4IiB3aWR0aD0iMTQ0cHgiIGZpbGw9IiMzMjMyMzIiIGZvbnQtd2VpZ2h0PSI0MDAiIGFsaWduPSJtaWRkbGUiIGxpbmVoZWlnaHQ9IjEyNSUiIGFuY2hvcj0ibWlkZGxlIiBmYW1pbHk9IuW+rui9r+mbhem7kSIgc2l6ZT0iMTNweCIgd2VpZ2h0PSI0MDAiIGZvbnQtc3R5bGU9IiIgb3BhY2l0eT0iMSIgeT0iMi44NzUiIHRyYW5zZm9ybT0icm90YXRlKDApIj48dHNwYW4gaWQ9IlN2Z2pzVHNwYW4xMzA4IiBkeT0iMTYiIHg9IjgyIj48dHNwYW4gaWQ9IlN2Z2pzVHNwYW4xMzA5IiBzdHlsZT0idGV4dC1kZWNvcmF0aW9uOjsiPuiwg+eUqDwvdHNwYW4+PC90c3Bhbj48dHNwYW4gaWQ9IlN2Z2pzVHNwYW4xMzEwIiBkeT0iMTYiIHg9IjgyIj48dHNwYW4gaWQ9IlN2Z2pzVHNwYW4xMzExIiBzdHlsZT0idGV4dC1kZWNvcmF0aW9uOjsiPnRyYW5zZmVyRm9yU2lnbmFsKGZpcnN0KTwvdHNwYW4+PC90c3Bhbj48L3RleHQ+PC9nPjwvZz48ZyBpZD0iU3ZnanNHMTMxMiIgdHJhbnNmb3JtPSJ0cmFuc2xhdGUoNDc3LjUwMjA2NzU2NTkxNzk3LDI1Ny45MDI0OTgyNDUyMzkyNikiPjxwYXRoIGlkPSJTdmdqc1BhdGgxMzEzIiBkPSJNIDAgMjYuNUwgODUgMEwgMTcwIDI2LjVMIDg1IDUzWiIgc3Ryb2tlPSJyZ2JhKDUwLDUwLDUwLDEpIiBzdHJva2Utd2lkdGg9IjIiIGZpbGwtb3BhY2l0eT0iMSIgZmlsbD0iI2ZmYjc0ZCIvPjxnIGlkPSJTdmdqc0cxMzE0Ij48dGV4dCBpZD0iU3ZnanNUZXh0MTMxNSIgZm9udC1mYW1pbHk9IuW+rui9r+mbhem7kSIgdGV4dC1hbmNob3I9Im1pZGRsZSIgZm9udC1zaXplPSIxM3B4IiB3aWR0aD0iMTUwcHgiIGZpbGw9IiMzMjMyMzIiIGZvbnQtd2VpZ2h0PSI0MDAiIGFsaWduPSJtaWRkbGUiIGxpbmVoZWlnaHQ9IjEyNSUiIGFuY2hvcj0ibWlkZGxlIiBmYW1pbHk9IuW+rui9r+mbhem7kSIgc2l6ZT0iMTNweCIgd2VpZ2h0PSI0MDAiIGZvbnQtc3R5bGU9IiIgb3BhY2l0eT0iMSIgeT0iNy42NDAwMDAwMDAwMDAwMDEiIHRyYW5zZm9ybT0icm90YXRlKDApIj48dHNwYW4gaWQ9IlN2Z2pzVHNwYW4xMzE2IiBkeT0iMTYiIHg9Ijg1Ij48dHNwYW4gaWQ9IlN2Z2pzVHNwYW4xMzE3IiBzdHlsZT0idGV4dC1kZWNvcmF0aW9uOjsiPui/lOWbnuWAvOaIkOWKn+i9rOenu+WIsOWQjOatpemYnzwvdHNwYW4+PC90c3Bhbj48dHNwYW4gaWQ9IlN2Z2pzVHNwYW4xMzE4IiBkeT0iMTYiIHg9Ijg1Ij48dHNwYW4gaWQ9IlN2Z2pzVHNwYW4xMzE5IiBzdHlsZT0idGV4dC1kZWNvcmF0aW9uOjsiPuWIl++8nzwvdHNwYW4+PC90c3Bhbj48L3RleHQ+PC9nPjwvZz48ZyBpZD0iU3ZnanNHMTMyMCI+PHBhdGggaWQ9IlN2Z2pzUGF0aDEzMjEiIGQ9Ik01NjIuOTAyMDc2NzIxMTkxNCAyMzMuOTAyMjk5ODgwOTgxNDVMNTYyLjkwMjA3NjcyMTE5MTQgMjQ1LjQwMjM5OTA2MzExMDM1TDU2Mi41MDIwNjc1NjU5MTggMjQ1LjQwMjM5OTA2MzExMDM1TDU2Mi41MDIwNjc1NjU5MTggMjU0LjMwMjQ5ODI0NTIzOTI0IiBzdHJva2U9IiMzMjMyMzIiIHN0cm9rZS13aWR0aD0iMiIgZmlsbD0ibm9uZSIgbWFya2VyLWVuZD0idXJsKCNTdmdqc01hcmtlcjEzMjIpIi8+PC9nPjxnIGlkPSJTdmdqc0cxMzI0Ij48cGF0aCBpZD0iU3ZnanNQYXRoMTMyNSIgZD0iTTQ3Ni41MDIwNjc1NjU5MTc5NyAyODQuNDAyNDk4MjQ1MjM5MjZMNDYyLjQ1MjA3MjE0MzU1NDcgMjg0LjQwMjQ5ODI0NTIzOTI2TDQ2Mi40NTIwNzIxNDM1NTQ3IDE0Ni40MDIxMDM0MjQwNzIyN0w0ODUuMzAyMDc2NzIxMTkxNCAxNDYuNDAyMTAzNDI0MDcyMjciIHN0cm9rZT0iIzMyMzIzMiIgc3Ryb2tlLXdpZHRoPSIyIiBmaWxsPSJub25lIiBtYXJrZXItZW5kPSJ1cmwoI1N2Z2pzTWFya2VyMTMyNikiLz48cmVjdCBpZD0iU3ZnanNSZWN0MTMyOCIgd2lkdGg9IjEzIiBoZWlnaHQ9IjE2IiB4PSI0NTUuOTUyMDcyMTQzNTU0NyIgeT0iMjAzLjAwMjI5NjI1NzAxOTA1IiBmaWxsPSIjZmZmZmZmIi8+PHRleHQgaWQ9IlN2Z2pzVGV4dDEzMjkiIGZvbnQtZmFtaWx5PSLlvq7ova/pm4Xpu5EiIHRleHQtYW5jaG9yPSJtaWRkbGUiIGZvbnQtc2l6ZT0iMTNweCIgd2lkdGg9IjEzcHgiIGZpbGw9IiMzMjMyMzIiIGZvbnQtd2VpZ2h0PSI0MDAiIGFsaWduPSJ0b3AiIGxpbmVoZWlnaHQ9IjE2cHgiIGFuY2hvcj0ibWlkZGxlIiBmYW1pbHk9IuW+rui9r+mbhem7kSIgc2l6ZT0iMTNweCIgd2VpZ2h0PSI0MDAiIGZvbnQtc3R5bGU9IiIgb3BhY2l0eT0iMSIgeT0iMjAwLjM3NzI5NjI1NzAxOTA1IiB0cmFuc2Zvcm09InJvdGF0ZSgwKSI+PHRzcGFuIGlkPSJTdmdqc1RzcGFuMTMzMCIgZHk9IjE2IiB4PSI0NjIuNDUyMDcyMTQzNTU0NyI+PHRzcGFuIGlkPSJTdmdqc1RzcGFuMTMzMSIgc3R5bGU9InRleHQtZGVjb3JhdGlvbjo7Ij7lkKY8L3RzcGFuPjwvdHNwYW4+PC90ZXh0PjwvZz48ZyBpZD0iU3ZnanNHMTMzMiIgdHJhbnNmb3JtPSJ0cmFuc2xhdGUoNTIzLjUwMjA2NzU2NTkxOCwzMjIuOTAyMTAzNDI0MDcyMjcpIj48cGF0aCBpZD0iU3ZnanNQYXRoMTMzMyIgZD0iTSAwIDBMIDc4IDBMIDc4IDM4TCAwIDM4WiIgc3Ryb2tlPSJyZ2JhKDUwLDUwLDUwLDEpIiBzdHJva2Utd2lkdGg9IjIiIGZpbGwtb3BhY2l0eT0iMSIgZmlsbD0iI2ZmZmZmZiIvPjxnIGlkPSJTdmdqc0cxMzM0Ij48dGV4dCBpZD0iU3ZnanNUZXh0MTMzNSIgZm9udC1mYW1pbHk9IuW+rui9r+mbhem7kSIgdGV4dC1hbmNob3I9Im1pZGRsZSIgZm9udC1zaXplPSIxM3B4IiB3aWR0aD0iNThweCIgZmlsbD0iIzMyMzIzMiIgZm9udC13ZWlnaHQ9IjQwMCIgYWxpZ249Im1pZGRsZSIgbGluZWhlaWdodD0iMTI1JSIgYW5jaG9yPSJtaWRkbGUiIGZhbWlseT0i5b6u6L2v6ZuF6buRIiBzaXplPSIxM3B4IiB3ZWlnaHQ9IjQwMCIgZm9udC1zdHlsZT0iIiBvcGFjaXR5PSIxIiB5PSI4LjM3NSIgdHJhbnNmb3JtPSJyb3RhdGUoMCkiPjx0c3BhbiBpZD0iU3ZnanNUc3BhbjEzMzYiIGR5PSIxNiIgeD0iMzkiPjx0c3BhbiBpZD0iU3ZnanNUc3BhbjEzMzciIHN0eWxlPSJ0ZXh0LWRlY29yYXRpb246OyI+6L+U5ZuePC90c3Bhbj48L3RzcGFuPjwvdGV4dD48L2c+PC9nPjxnIGlkPSJTdmdqc0cxMzM4Ij48cGF0aCBpZD0iU3ZnanNQYXRoMTMzOSIgZD0iTTQwOS4wMDIwNjc1NjU5MTc5NyAxOTIuNzUyMDIyMjY2Mzg3OTRMNDMwLjI1MjA2NzU2NTkxNzk3IDE5Mi43NTIwMjIyNjYzODc5NEw0MzAuMjUyMDY3NTY1OTE3OTcgMTkyLjc1MjAyMjI2NjM4Nzk0TDQ1MC4yNzcwNjc1NjU5MTc5NSAxOTIuNzUyMDIyMjY2Mzg3OTQiIHN0cm9rZS1kYXNoYXJyYXk9IjMsMyIgc3Ryb2tlPSIjMzIzMjMyIiBzdHJva2Utd2lkdGg9IjIiIGZpbGw9Im5vbmUiIG1hcmtlci1lbmQ9InVybCgjU3ZnanNNYXJrZXIxMzQwKSIvPjwvZz48ZyBpZD0iU3ZnanNHMTM0MiIgdHJhbnNmb3JtPSJ0cmFuc2xhdGUoNjk1LjgxNDU2NzU2NTkxOCwxMTAuOTAyMTAzNDI0MDcyMjcpIj48cGF0aCBpZD0iU3ZnanNQYXRoMTM0MyIgZD0iTSAwIDRRIDAgMCA0IDBMIDI0MCAwUSAyNDQgMCAyNDQgNEwgMjQ0IDI1N1EgMjQ0IDI2MSAyNDAgMjYxTCA0IDI2MVEgMCAyNjEgMCAyNTdaIiBzdHJva2U9InJnYmEoNTAsNTAsNTAsMSkiIHN0cm9rZS13aWR0aD0iMiIgZmlsbC1vcGFjaXR5PSIxIiBmaWxsPSIjMjE5NmYzIi8+PGcgaWQ9IlN2Z2pzRzEzNDQiPjx0ZXh0IGlkPSJTdmdqc1RleHQxMzQ1IiBmb250LWZhbWlseT0i5b6u6L2v6ZuF6buRIiB0ZXh0LWFuY2hvcj0ibWlkZGxlIiBmb250LXNpemU9IjEzcHgiIHdpZHRoPSIyMjRweCIgZmlsbD0iIzMyMzIzMiIgZm9udC13ZWlnaHQ9IjQwMCIgYWxpZ249Im1pZGRsZSIgbGluZWhlaWdodD0iMTI1JSIgYW5jaG9yPSJtaWRkbGUiIGZhbWlseT0i5b6u6L2v6ZuF6buRIiBzaXplPSIxM3B4IiB3ZWlnaHQ9IjQwMCIgZm9udC1zdHlsZT0iIiBvcGFjaXR5PSIxIiB5PSIxMTkuODc1IiB0cmFuc2Zvcm09InJvdGF0ZSgwKSIvPjwvZz48L2c+PGcgaWQ9IlN2Z2pzRzEzNDYiIHRyYW5zZm9ybT0idHJhbnNsYXRlKDcwOC4wMDIwNjc1NjU5MTgsMTI0LjQwMjEwMzQyNDA3MjI3KSI+PHBhdGggaWQ9IlN2Z2pzUGF0aDEzNDciIGQ9Ik0gMCAwTCAxMTcgMEwgMTE3IDQ0TCAwIDQ0WiIgc3Ryb2tlPSJyZ2JhKDUwLDUwLDUwLDEpIiBzdHJva2Utd2lkdGg9IjIiIGZpbGwtb3BhY2l0eT0iMSIgZmlsbD0iI2ZmZmZmZiIvPjxnIGlkPSJTdmdqc0cxMzQ4Ij48dGV4dCBpZD0iU3ZnanNUZXh0MTM0OSIgZm9udC1mYW1pbHk9IuW+rui9r+mbhem7kSIgdGV4dC1hbmNob3I9Im1pZGRsZSIgZm9udC1zaXplPSIxM3B4IiB3aWR0aD0iOTdweCIgZmlsbD0iIzMyMzIzMiIgZm9udC13ZWlnaHQ9IjQwMCIgYWxpZ249Im1pZGRsZSIgbGluZWhlaWdodD0iMTI1JSIgYW5jaG9yPSJtaWRkbGUiIGZhbWlseT0i5b6u6L2v6ZuF6buRIiBzaXplPSIxM3B4IiB3ZWlnaHQ9IjQwMCIgZm9udC1zdHlsZT0iIiBvcGFjaXR5PSIxIiB5PSIyLjg3NSIgdHJhbnNmb3JtPSJyb3RhdGUoMCkiPjx0c3BhbiBpZD0iU3ZnanNUc3BhbjEzNTAiIGR5PSIxNiIgeD0iNTguNSI+PHRzcGFuIGlkPSJTdmdqc1RzcGFuMTM1MSIgc3R5bGU9InRleHQtZGVjb3JhdGlvbjo7Ij5jYXMod2FpdFN0YXRlLCA8L3RzcGFuPjwvdHNwYW4+PHRzcGFuIGlkPSJTdmdqc1RzcGFuMTM1MiIgZHk9IjE2IiB4PSI1OC41Ij48dHNwYW4gaWQ9IlN2Z2pzVHNwYW4xMzUzIiBzdHlsZT0idGV4dC1kZWNvcmF0aW9uOjsiPkNPTkRJVElPTiwgMCk8L3RzcGFuPjwvdHNwYW4+PC90ZXh0PjwvZz48L2c+PGcgaWQ9IlN2Z2pzRzEzNTQiIHRyYW5zZm9ybT0idHJhbnNsYXRlKDg1Mi41MDIwNjc1NjU5MTgsMTU5LjAwMjA3OTAxMDAwOTc3KSI+PHBhdGggaWQ9IlN2Z2pzUGF0aDEzNTUiIGQ9Ik0gMCAwTCA3OCAwTCA3OCAzOEwgMCAzOFoiIHN0cm9rZT0icmdiYSg1MCw1MCw1MCwxKSIgc3Ryb2tlLXdpZHRoPSIyIiBmaWxsLW9wYWNpdHk9IjEiIGZpbGw9IiNmZmZmZmYiLz48ZyBpZD0iU3ZnanNHMTM1NiI+PHRleHQgaWQ9IlN2Z2pzVGV4dDEzNTciIGZvbnQtZmFtaWx5PSLlvq7ova/pm4Xpu5EiIHRleHQtYW5jaG9yPSJtaWRkbGUiIGZvbnQtc2l6ZT0iMTNweCIgd2lkdGg9IjU4cHgiIGZpbGw9IiMzMjMyMzIiIGZvbnQtd2VpZ2h0PSI0MDAiIGFsaWduPSJtaWRkbGUiIGxpbmVoZWlnaHQ9IjEyNSUiIGFuY2hvcj0ibWlkZGxlIiBmYW1pbHk9IuW+rui9r+mbhem7kSIgc2l6ZT0iMTNweCIgd2VpZ2h0PSI0MDAiIGZvbnQtc3R5bGU9IiIgb3BhY2l0eT0iMSIgeT0iOC4zNzUiIHRyYW5zZm9ybT0icm90YXRlKDApIj48dHNwYW4gaWQ9IlN2Z2pzVHNwYW4xMzU4IiBkeT0iMTYiIHg9IjM5Ij48dHNwYW4gaWQ9IlN2Z2pzVHNwYW4xMzU5IiBzdHlsZT0idGV4dC1kZWNvcmF0aW9uOjsiPui/lOWbnmZhbHNlPC90c3Bhbj48L3RzcGFuPjwvdGV4dD48L2c+PC9nPjxnIGlkPSJTdmdqc0cxMzYwIj48cGF0aCBpZD0iU3ZnanNQYXRoMTM2MSIgZD0iTTgyNi4wMDIwNjc1NjU5MTggMTQ2LjQwMjEwMzQyNDA3MjI3TDg5MS41MDIwNjc1NjU5MTggMTQ2LjQwMjEwMzQyNDA3MjI3TDg5MS41MDIwNjc1NjU5MTggMTU1LjQwMjA3OTAxMDAwOTc3IiBzdHJva2U9IiMzMjMyMzIiIHN0cm9rZS13aWR0aD0iMiIgZmlsbD0ibm9uZSIgbWFya2VyLWVuZD0idXJsKCNTdmdqc01hcmtlcjEzNjIpIi8+PHJlY3QgaWQ9IlN2Z2pzUmVjdDEzNjQiIHdpZHRoPSIyNiIgaGVpZ2h0PSIxNiIgeD0iODUwLjI1MjA1NTM1ODg4NjgiIHk9IjEzOC40MDIxMDM0MjQwNzIyNyIgZmlsbD0iI2ZmZmZmZiIvPjx0ZXh0IGlkPSJTdmdqc1RleHQxMzY1IiBmb250LWZhbWlseT0i5b6u6L2v6ZuF6buRIiB0ZXh0LWFuY2hvcj0ibWlkZGxlIiBmb250LXNpemU9IjEzcHgiIHdpZHRoPSIyNnB4IiBmaWxsPSIjMzIzMjMyIiBmb250LXdlaWdodD0iNDAwIiBhbGlnbj0idG9wIiBsaW5laGVpZ2h0PSIxNnB4IiBhbmNob3I9Im1pZGRsZSIgZmFtaWx5PSLlvq7ova/pm4Xpu5EiIHNpemU9IjEzcHgiIHdlaWdodD0iNDAwIiBmb250LXN0eWxlPSIiIG9wYWNpdHk9IjEiIHk9IjEzNS43NzcxMDM0MjQwNzIyNyIgdHJhbnNmb3JtPSJyb3RhdGUoMCkiPjx0c3BhbiBpZD0iU3ZnanNUc3BhbjEzNjYiIGR5PSIxNiIgeD0iODYzLjI1MjA1NTM1ODg4NjgiPjx0c3BhbiBpZD0iU3ZnanNUc3BhbjEzNjciIHN0eWxlPSJ0ZXh0LWRlY29yYXRpb246OyI+5aSx6LSlPC90c3Bhbj48L3RzcGFuPjwvdGV4dD48L2c+PGcgaWQ9IlN2Z2pzRzEzNjgiIHRyYW5zZm9ybT0idHJhbnNsYXRlKDk0OC40NzcwNTg0MTA2NDQ1LDMzLjUwMjI3NTQ2NjkxODk0NSkiPjxwYXRoIGlkPSJTdmdqc1BhdGgxMzY5IiBkPSJNIDAgMEwgMTI5LjEyNSAwTCAxMjkuMTI1IDE1Ny40OTk4MDM1NDMwOTA4MkwgMCAxNTcuNDk5ODAzNTQzMDkwODJaIiBzdHJva2U9Im5vbmUiIGZpbGw9Im5vbmUiLz48ZyBpZD0iU3ZnanNHMTM3MCI+PHRleHQgaWQ9IlN2Z2pzVGV4dDEzNzEiIGZvbnQtZmFtaWx5PSLlvq7ova/pm4Xpu5EiIHRleHQtYW5jaG9yPSJzdGFydCIgZm9udC1zaXplPSIxM3B4IiB3aWR0aD0iMTMwcHgiIGZpbGw9IiM3YjFmYTIiIGZvbnQtd2VpZ2h0PSI0MDAiIGFsaWduPSJtaWRkbGUiIGxpbmVoZWlnaHQ9IjEyNSUiIGFuY2hvcj0ic3RhcnQiIGZhbWlseT0i5b6u6L2v6ZuF6buRIiBzaXplPSIxM3B4IiB3ZWlnaHQ9IjQwMCIgZm9udC1zdHlsZT0iIiBvcGFjaXR5PSIxIiB5PSIzLjEyNDkwMTc3MTU0NTQxIiB0cmFuc2Zvcm09InJvdGF0ZSgwKSI+PHRzcGFuIGlkPSJTdmdqc1RzcGFuMTM3MiIgZHk9IjE2IiB4PSIwIj48dHNwYW4gaWQ9IlN2Z2pzVHNwYW4xMzczIiBzdHlsZT0idGV4dC1kZWNvcmF0aW9uOjsiPuKRoOivpeiKgueCueeKtuaAgeS4jeS4ujwvdHNwYW4+PC90c3Bhbj48dHNwYW4gaWQ9IlN2Z2pzVHNwYW4xMzc0IiBkeT0iMTYiIHg9IjAiPjx0c3BhbiBpZD0iU3ZnanNUc3BhbjEzNzUiIHN0eWxlPSJ0ZXh0LWRlY29yYXRpb246OyI+Q09ORElUSU9O77yM6K+05piO6KKrPC90c3Bhbj48L3RzcGFuPjx0c3BhbiBpZD0iU3ZnanNUc3BhbjEzNzYiIGR5PSIxNiIgeD0iMCI+PHRzcGFuIGlkPSJTdmdqc1RzcGFuMTM3NyIgc3R5bGU9InRleHQtZGVjb3JhdGlvbjo7Ij7lj5bmtojvvIzlm6DogIzmsqHlv4XopoHlho3ovaw8L3RzcGFuPjwvdHNwYW4+PHRzcGFuIGlkPSJTdmdqc1RzcGFuMTM3OCIgZHk9IjE2IiB4PSIwIj48dHNwYW4gaWQ9IlN2Z2pzVHNwYW4xMzc5IiBzdHlsZT0idGV4dC1kZWNvcmF0aW9uOjsiPuenu+WIsOWQjOatpemYn+WIlzwvdHNwYW4+PC90c3Bhbj48dHNwYW4gaWQ9IlN2Z2pzVHNwYW4xMzgwIiBkeT0iMTYiIHg9IjAiPjx0c3BhbiBpZD0iU3ZnanNUc3BhbjEzODEiIHN0eWxlPSJ0ZXh0LWRlY29yYXRpb246OyI+4pGh5Y+v6IO95piv5Lik5Liq57q/56iL5ZCM5pe2PC90c3Bhbj48L3RzcGFuPjx0c3BhbiBpZD0iU3ZnanNUc3BhbjEzODIiIGR5PSIxNiIgeD0iMCI+PHRzcGFuIGlkPSJTdmdqc1RzcGFuMTM4MyIgc3R5bGU9InRleHQtZGVjb3JhdGlvbjo7Ij5zaWduYWzvvIzlj5bliLDkuoblkIzkuIDkuKo8L3RzcGFuPjwvdHNwYW4+PHRzcGFuIGlkPSJTdmdqc1RzcGFuMTM4NCIgZHk9IjE2IiB4PSIwIj48dHNwYW4gaWQ9IlN2Z2pzVHNwYW4xMzg1IiBzdHlsZT0idGV4dC1kZWNvcmF0aW9uOjsiPuWktOe7k+eCue+8jGNhc+Wksei0peeahOmCozwvdHNwYW4+PC90c3Bhbj48dHNwYW4gaWQ9IlN2Z2pzVHNwYW4xMzg2IiBkeT0iMTYiIHg9IjAiPjx0c3BhbiBpZD0iU3ZnanNUc3BhbjEzODciIHN0eWxlPSJ0ZXh0LWRlY29yYXRpb246OyI+5LiA5pa557un57ut5Y+W5LiL5LiA5Liq6IqC54K5PC90c3Bhbj48L3RzcGFuPjx0c3BhbiBpZD0iU3ZnanNUc3BhbjEzODgiIGR5PSIxNiIgeD0iMCI+PHRzcGFuIGlkPSJTdmdqc1RzcGFuMTM4OSIgc3R5bGU9InRleHQtZGVjb3JhdGlvbjo7Ij7ovaznp7vliLDlkIzmraXpmJ/liJc8L3RzcGFuPjwvdHNwYW4+PC90ZXh0PjwvZz48L2c+PGcgaWQ9IlN2Z2pzRzEzOTAiPjxwYXRoIGlkPSJTdmdqc1BhdGgxMzkxIiBkPSJNNzY2LjUwMjA2NzU2NTkxOCAxNjkuNDAyMTAzNDI0MDcyMjdMNzY2LjUwMjA2NzU2NTkxOCAxODMuMjAyMTg5NDQ1NDk1Nkw3NjYuNTAyMDY3NTY1OTE4IDE4My4yMDIxODk0NDU0OTU2TDc2Ni41MDIwNjc1NjU5MTggMTk2LjgwMjI5OTg4MDk4MTQyIiBzdHJva2U9IiMxOTc2ZDIiIHN0cm9rZS13aWR0aD0iMiIgZmlsbD0ibm9uZSIgbWFya2VyLWVuZD0idXJsKCNTdmdqc01hcmtlcjEzOTIpIi8+PHJlY3QgaWQ9IlN2Z2pzUmVjdDEzOTQiIHdpZHRoPSIyNiIgaGVpZ2h0PSIxNiIgeD0iNzUzLjUwMjA2NzU2NTkxOCIgeT0iMTc1LjEwMjIwMTY1MjUyNjg0IiBmaWxsPSIjZmZmZmZmIi8+PHRleHQgaWQ9IlN2Z2pzVGV4dDEzOTUiIGZvbnQtZmFtaWx5PSLlvq7ova/pm4Xpu5EiIHRleHQtYW5jaG9yPSJtaWRkbGUiIGZvbnQtc2l6ZT0iMTNweCIgd2lkdGg9IjI2cHgiIGZpbGw9IiMzMjMyMzIiIGZvbnQtd2VpZ2h0PSI0MDAiIGFsaWduPSJ0b3AiIGxpbmVoZWlnaHQ9IjE2cHgiIGFuY2hvcj0ibWlkZGxlIiBmYW1pbHk9IuW+rui9r+mbhem7kSIgc2l6ZT0iMTNweCIgd2VpZ2h0PSI0MDAiIGZvbnQtc3R5bGU9IiIgb3BhY2l0eT0iMSIgeT0iMTcyLjQ3NzIwMTY1MjUyNjg0IiB0cmFuc2Zvcm09InJvdGF0ZSgwKSI+PHRzcGFuIGlkPSJTdmdqc1RzcGFuMTM5NiIgZHk9IjE2IiB4PSI3NjYuNTAyMDY3NTY1OTE4Ij48dHNwYW4gaWQ9IlN2Z2pzVHNwYW4xMzk3IiBzdHlsZT0idGV4dC1kZWNvcmF0aW9uOjsiPuaIkOWKnzwvdHNwYW4+PC90c3Bhbj48L3RleHQ+PC9nPjxnIGlkPSJTdmdqc0cxMzk4IiB0cmFuc2Zvcm09InRyYW5zbGF0ZSg3MDguMDAyMDY3NTY1OTE4LDIwMC40MDIyOTk4ODA5ODE0NSkiPjxwYXRoIGlkPSJTdmdqc1BhdGgxMzk5IiBkPSJNIDAgMEwgMTE3IDBMIDExNyA0NEwgMCA0NFoiIHN0cm9rZT0icmdiYSg1MCw1MCw1MCwxKSIgc3Ryb2tlLXdpZHRoPSIyIiBmaWxsLW9wYWNpdHk9IjEiIGZpbGw9IiNmZmZmZmYiLz48ZyBpZD0iU3ZnanNHMTQwMCI+PHRleHQgaWQ9IlN2Z2pzVGV4dDE0MDEiIGZvbnQtZmFtaWx5PSLlvq7ova/pm4Xpu5EiIHRleHQtYW5jaG9yPSJtaWRkbGUiIGZvbnQtc2l6ZT0iMTNweCIgd2lkdGg9Ijk3cHgiIGZpbGw9IiMzMjMyMzIiIGZvbnQtd2VpZ2h0PSI0MDAiIGFsaWduPSJtaWRkbGUiIGxpbmVoZWlnaHQ9IjEyNSUiIGFuY2hvcj0ibWlkZGxlIiBmYW1pbHk9IuW+rui9r+mbhem7kSIgc2l6ZT0iMTNweCIgd2VpZ2h0PSI0MDAiIGZvbnQtc3R5bGU9IiIgb3BhY2l0eT0iMSIgeT0iMi44NzUiIHRyYW5zZm9ybT0icm90YXRlKDApIj48dHNwYW4gaWQ9IlN2Z2pzVHNwYW4xNDAyIiBkeT0iMTYiIHg9IjU4LjUiPjx0c3BhbiBpZD0iU3ZnanNUc3BhbjE0MDMiIHN0eWxlPSJ0ZXh0LWRlY29yYXRpb246OyI+6LCD55SoZW5xKCnlh73mlbA8L3RzcGFuPjwvdHNwYW4+PHRzcGFuIGlkPSJTdmdqc1RzcGFuMTQwNCIgZHk9IjE2IiB4PSI1OC41Ij48dHNwYW4gaWQ9IlN2Z2pzVHNwYW4xNDA1IiBzdHlsZT0idGV4dC1kZWNvcmF0aW9uOjsiPuWwhm5vZGXlhaXpmJ88L3RzcGFuPjwvdHNwYW4+PC90ZXh0PjwvZz48L2c+PGcgaWQ9IlN2Z2pzRzE0MDYiIHRyYW5zZm9ybT0idHJhbnNsYXRlKDcxOS4wMDIwNjc1NjU5MTgsNjAuNDAyMTAzNDI0MDcyMjY2KSI+PHBhdGggaWQ9IlN2Z2pzUGF0aDE0MDciIGQ9Ik0gMCAwTCAxMjUgMEwgMTI1IDY4TCAwIDY4WiIgc3Ryb2tlPSJub25lIiBmaWxsPSJub25lIi8+PGcgaWQ9IlN2Z2pzRzE0MDgiPjx0ZXh0IGlkPSJTdmdqc1RleHQxNDA5IiBmb250LWZhbWlseT0i5b6u6L2v6ZuF6buRIiB0ZXh0LWFuY2hvcj0ibWlkZGxlIiBmb250LXNpemU9IjEzcHgiIHdpZHRoPSIxMjVweCIgZmlsbD0iI2Y0NDMzNiIgZm9udC13ZWlnaHQ9IjQwMCIgYWxpZ249Im1pZGRsZSIgbGluZWhlaWdodD0iMTI1JSIgYW5jaG9yPSJtaWRkbGUiIGZhbWlseT0i5b6u6L2v6ZuF6buRIiBzaXplPSIxM3B4IiB3ZWlnaHQ9IjQwMCIgZm9udC1zdHlsZT0iIiBvcGFjaXR5PSIxIiB5PSIxNC44NzUiIHRyYW5zZm9ybT0icm90YXRlKDApIj48dHNwYW4gaWQ9IlN2Z2pzVHNwYW4xNDEwIiBkeT0iMTYiIHg9IjYyLjUiPjx0c3BhbiBpZD0iU3ZnanNUc3BhbjE0MTEiIHN0eWxlPSJ0ZXh0LWRlY29yYXRpb246OyI+5bCGZmlyc3TnmoR3YWl0U3RhdGXku448L3RzcGFuPjwvdHNwYW4+PHRzcGFuIGlkPSJTdmdqc1RzcGFuMTQxMiIgZHk9IjE2IiB4PSI2Mi41Ij48dHNwYW4gaWQ9IlN2Z2pzVHNwYW4xNDEzIiBzdHlsZT0idGV4dC1kZWNvcmF0aW9uOjsiPkNPTkRJVElPTuaUueS4ujA8L3RzcGFuPjwvdHNwYW4+PC90ZXh0PjwvZz48L2c+PGcgaWQ9IlN2Z2pzRzE0MTQiIHRyYW5zZm9ybT0idHJhbnNsYXRlKDY4MS41MDIwNjc1NjU5MTgsMjY1LjkwMjQ5ODI0NTIzOTI2KSI+PHBhdGggaWQ9IlN2Z2pzUGF0aDE0MTUiIGQ9Ik0gMCA0MC41NDk3OTAzODIzODUyNTRMIDg1IDBMIDE3MCA0MC41NDk3OTAzODIzODUyNTRMIDg1IDgxLjA5OTU4MDc2NDc3MDUxWiIgc3Ryb2tlPSJyZ2JhKDUwLDUwLDUwLDEpIiBzdHJva2Utd2lkdGg9IjIiIGZpbGwtb3BhY2l0eT0iMSIgZmlsbD0iI2ZmYjc0ZCIvPjxnIGlkPSJTdmdqc0cxNDE2Ij48dGV4dCBpZD0iU3ZnanNUZXh0MTQxNyIgZm9udC1mYW1pbHk9IuW+rui9r+mbhem7kSIgdGV4dC1hbmNob3I9Im1pZGRsZSIgZm9udC1zaXplPSIxM3B4IiB3aWR0aD0iMTUwcHgiIGZpbGw9IiMzMjMyMzIiIGZvbnQtd2VpZ2h0PSI0MDAiIGFsaWduPSJtaWRkbGUiIGxpbmVoZWlnaHQ9IjEyNSUiIGFuY2hvcj0ibWlkZGxlIiBmYW1pbHk9IuW+rui9r+mbhem7kSIgc2l6ZT0iMTNweCIgd2VpZ2h0PSI0MDAiIGZvbnQtc3R5bGU9IiIgb3BhY2l0eT0iMSIgeT0iMTMuODMwMjg4Mjg2MjA5MTA3IiB0cmFuc2Zvcm09InJvdGF0ZSgwKSI+PHRzcGFuIGlkPSJTdmdqc1RzcGFuMTQxOCIgZHk9IjE2IiB4PSI4NSI+PHRzcGFuIGlkPSJTdmdqc1RzcGFuMTQxOSIgc3R5bGU9InRleHQtZGVjb3JhdGlvbjo7Ij7pmJ/liJfliY3pqbHnu5Pngrk8L3RzcGFuPjwvdHNwYW4+PHRzcGFuIGlkPSJTdmdqc1RzcGFuMTQyMCIgZHk9IjE2IiB4PSI4NSI+PHRzcGFuIGlkPSJTdmdqc1RzcGFuMTQyMSIgc3R5bGU9InRleHQtZGVjb3JhdGlvbjo7Ij53YWl0U3RhdGUmZ3Q7MCDmiJZjYXPorr7nva7liY08L3RzcGFuPjwvdHNwYW4+PHRzcGFuIGlkPSJTdmdqc1RzcGFuMTQyMiIgZHk9IjE2IiB4PSI4NSI+PHRzcGFuIGlkPSJTdmdqc1RzcGFuMTQyMyIgc3R5bGU9InRleHQtZGVjb3JhdGlvbjo7Ij7pqbHnu5Pngrl3cz0tMeWksei0pTwvdHNwYW4+PC90c3Bhbj48L3RleHQ+PC9nPjwvZz48ZyBpZD0iU3ZnanNHMTQyNCI+PHBhdGggaWQ9IlN2Z2pzUGF0aDE0MjUiIGQ9Ik03NjYuNTAyMDY3NTY1OTE4IDI0NS40MDIyOTk4ODA5ODE0NUw3NjYuNTAyMDY3NTY1OTE4IDI1NC4yMDIzODY4NTYwNzkxTDc2Ni41MDIwNjc1NjU5MTggMjU0LjIwMjM4Njg1NjA3OTFMNzY2LjUwMjA2NzU2NTkxOCAyNjIuMzAyNDk4MjQ1MjM5MjQiIHN0cm9rZT0iIzE5NzZkMiIgc3Ryb2tlLXdpZHRoPSIyIiBmaWxsPSJub25lIiBtYXJrZXItZW5kPSJ1cmwoI1N2Z2pzTWFya2VyMTQyNikiLz48L2c+PGcgaWQ9IlN2Z2pzRzE0MjgiPjxwYXRoIGlkPSJTdmdqc1BhdGgxNDI5IiBkPSJNODUyLjUwMjA2NzU2NTkxOCAzMDYuNDUyMjg4NjI3NjI0NUw5NzAuNDc3MDU4NDEwNjQ0NSAzMDYuNDUyMjg4NjI3NjI0NUw5NzAuNDc3MDU4NDEwNjQ0NSAyMDIuOTAyMjk5ODgwOTgxNDVMODk1Ljk4OTU2Mjk4ODI4MTIgMjAyLjkwMjI5OTg4MDk4MTQ1TDg5NS45ODk1NjI5ODgyODEyIDIyOS4zMDIyOTk4ODA5ODE0MiIgc3Ryb2tlPSIjMzIzMjMyIiBzdHJva2Utd2lkdGg9IjIiIGZpbGw9Im5vbmUiIG1hcmtlci1lbmQ9InVybCgjU3ZnanNNYXJrZXIxNDMwKSIvPjxyZWN0IGlkPSJTdmdqc1JlY3QxNDMyIiB3aWR0aD0iMTMiIGhlaWdodD0iMTYiIHg9Ijk2My45NzcwNTg0MTA2NDQ1IiB5PSIyNTUuMjIxMDQxOTY1NDg0NjMiIGZpbGw9IiNmZmZmZmYiLz48dGV4dCBpZD0iU3ZnanNUZXh0MTQzMyIgZm9udC1mYW1pbHk9IuW+rui9r+mbhem7kSIgdGV4dC1hbmNob3I9Im1pZGRsZSIgZm9udC1zaXplPSIxM3B4IiB3aWR0aD0iMTNweCIgZmlsbD0iIzMyMzIzMiIgZm9udC13ZWlnaHQ9IjQwMCIgYWxpZ249InRvcCIgbGluZWhlaWdodD0iMTZweCIgYW5jaG9yPSJtaWRkbGUiIGZhbWlseT0i5b6u6L2v6ZuF6buRIiBzaXplPSIxM3B4IiB3ZWlnaHQ9IjQwMCIgZm9udC1zdHlsZT0iIiBvcGFjaXR5PSIxIiB5PSIyNTIuNTk2MDQxOTY1NDg0NjMiIHRyYW5zZm9ybT0icm90YXRlKDApIj48dHNwYW4gaWQ9IlN2Z2pzVHNwYW4xNDM0IiBkeT0iMTYiIHg9Ijk3MC40NzcwNTg0MTA2NDQ1Ij48dHNwYW4gaWQ9IlN2Z2pzVHNwYW4xNDM1IiBzdHlsZT0idGV4dC1kZWNvcmF0aW9uOjsiPuaYrzwvdHNwYW4+PC90c3Bhbj48L3RleHQ+PC9nPjxnIGlkPSJTdmdqc0cxNDM2IiB0cmFuc2Zvcm09InRyYW5zbGF0ZSg4NTEuNTAyMDY3NTY1OTE4LDIzMi45MDIyOTk4ODA5ODE0NSkiPjxwYXRoIGlkPSJTdmdqc1BhdGgxNDM3IiBkPSJNIDAgMEwgODguOTc0OTkwODQ0NzI2NTYgMEwgODguOTc0OTkwODQ0NzI2NTYgNTEuMDk5Nzc5MTI5MDI4MzJMIDAgNTEuMDk5Nzc5MTI5MDI4MzJaIiBzdHJva2U9InJnYmEoNTAsNTAsNTAsMSkiIHN0cm9rZS13aWR0aD0iMiIgZmlsbC1vcGFjaXR5PSIxIiBmaWxsPSIjZmZmZmZmIi8+PGcgaWQ9IlN2Z2pzRzE0MzgiPjx0ZXh0IGlkPSJTdmdqc1RleHQxNDM5IiBmb250LWZhbWlseT0i5b6u6L2v6ZuF6buRIiB0ZXh0LWFuY2hvcj0ibWlkZGxlIiBmb250LXNpemU9IjEzcHgiIHdpZHRoPSI2OXB4IiBmaWxsPSIjMzIzMjMyIiBmb250LXdlaWdodD0iNDAwIiBhbGlnbj0ibWlkZGxlIiBsaW5laGVpZ2h0PSIxMjUlIiBhbmNob3I9Im1pZGRsZSIgZmFtaWx5PSLlvq7ova/pm4Xpu5EiIHNpemU9IjEzcHgiIHdlaWdodD0iNDAwIiBmb250LXN0eWxlPSIiIG9wYWNpdHk9IjEiIHk9IjYuNDI0ODg5NTY0NTE0MTYiIHRyYW5zZm9ybT0icm90YXRlKDApIj48dHNwYW4gaWQ9IlN2Z2pzVHNwYW4xNDQwIiBkeT0iMTYiIHg9IjQ0LjUiPjx0c3BhbiBpZD0iU3ZnanNUc3BhbjE0NDEiIHN0eWxlPSJ0ZXh0LWRlY29yYXRpb246OyI+dW5wYXJr5b2TPC90c3Bhbj48L3RzcGFuPjx0c3BhbiBpZD0iU3ZnanNUc3BhbjE0NDIiIGR5PSIxNiIgeD0iNDQuNSI+PHRzcGFuIGlkPSJTdmdqc1RzcGFuMTQ0MyIgc3R5bGU9InRleHQtZGVjb3JhdGlvbjo7Ij7liY3oioLngrnnur/nqIs8L3RzcGFuPjwvdHNwYW4+PC90ZXh0PjwvZz48L2c+PGcgaWQ9IlN2Z2pzRzE0NDQiPjxwYXRoIGlkPSJTdmdqc1BhdGgxNDQ1IiBkPSJNNzY2LjUwMjA2NzU2NTkxOCAzNDguMDAyMDc5MDEwMDA5NzdMNzY2LjUwMjA2NzU2NTkxOCAzNDguMDAyNDk2NzE5MzYwMzVMODUzLjM4OTU2Mjk4ODI4MTMgMzQ4LjAwMjQ5NjcxOTM2MDM1IiBzdHJva2U9IiMzMjMyMzIiIHN0cm9rZS13aWR0aD0iMiIgZmlsbD0ibm9uZSIgbWFya2VyLWVuZD0idXJsKCNTdmdqc01hcmtlcjE0NDYpIi8+PHJlY3QgaWQ9IlN2Z2pzUmVjdDE0NDgiIHdpZHRoPSIxMyIgaGVpZ2h0PSIxNiIgeD0iODAzLjQ0NTYwNjQyMjQyNDQiIHk9IjM0MC4wMDI0OTY3MTkzNjAzNSIgZmlsbD0iI2ZmZmZmZiIvPjx0ZXh0IGlkPSJTdmdqc1RleHQxNDQ5IiBmb250LWZhbWlseT0i5b6u6L2v6ZuF6buRIiB0ZXh0LWFuY2hvcj0ibWlkZGxlIiBmb250LXNpemU9IjEzcHgiIHdpZHRoPSIxM3B4IiBmaWxsPSIjMzIzMjMyIiBmb250LXdlaWdodD0iNDAwIiBhbGlnbj0idG9wIiBsaW5laGVpZ2h0PSIxNnB4IiBhbmNob3I9Im1pZGRsZSIgZmFtaWx5PSLlvq7ova/pm4Xpu5EiIHNpemU9IjEzcHgiIHdlaWdodD0iNDAwIiBmb250LXN0eWxlPSIiIG9wYWNpdHk9IjEiIHk9IjMzNy4zNzc0OTY3MTkzNjAzNSIgdHJhbnNmb3JtPSJyb3RhdGUoMCkiPjx0c3BhbiBpZD0iU3ZnanNUc3BhbjE0NTAiIGR5PSIxNiIgeD0iODA5Ljk0NTYwNjQyMjQyNDQiPjx0c3BhbiBpZD0iU3ZnanNUc3BhbjE0NTEiIHN0eWxlPSJ0ZXh0LWRlY29yYXRpb246OyI+5ZCmPC90c3Bhbj48L3RzcGFuPjwvdGV4dD48L2c+PGcgaWQ9IlN2Z2pzRzE0NTIiIHRyYW5zZm9ybT0idHJhbnNsYXRlKDg1Ni45ODk1NjI5ODgyODEyLDMyOS4wMDI0OTY3MTkzNjAzNSkiPjxwYXRoIGlkPSJTdmdqc1BhdGgxNDUzIiBkPSJNIDAgMEwgNzggMEwgNzggMzhMIDAgMzhaIiBzdHJva2U9InJnYmEoNTAsNTAsNTAsMSkiIHN0cm9rZS13aWR0aD0iMiIgZmlsbC1vcGFjaXR5PSIxIiBmaWxsPSIjZmZmZmZmIi8+PGcgaWQ9IlN2Z2pzRzE0NTQiPjx0ZXh0IGlkPSJTdmdqc1RleHQxNDU1IiBmb250LWZhbWlseT0i5b6u6L2v6ZuF6buRIiB0ZXh0LWFuY2hvcj0ibWlkZGxlIiBmb250LXNpemU9IjEzcHgiIHdpZHRoPSI1OHB4IiBmaWxsPSIjMzIzMjMyIiBmb250LXdlaWdodD0iNDAwIiBhbGlnbj0ibWlkZGxlIiBsaW5laGVpZ2h0PSIxMjUlIiBhbmNob3I9Im1pZGRsZSIgZmFtaWx5PSLlvq7ova/pm4Xpu5EiIHNpemU9IjEzcHgiIHdlaWdodD0iNDAwIiBmb250LXN0eWxlPSIiIG9wYWNpdHk9IjEiIHk9IjguMzc1IiB0cmFuc2Zvcm09InJvdGF0ZSgwKSI+PHRzcGFuIGlkPSJTdmdqc1RzcGFuMTQ1NiIgZHk9IjE2IiB4PSIzOSI+PHRzcGFuIGlkPSJTdmdqc1RzcGFuMTQ1NyIgc3R5bGU9InRleHQtZGVjb3JhdGlvbjo7Ij7ov5Tlm550cnVlPC90c3Bhbj48L3RzcGFuPjwvdGV4dD48L2c+PC9nPjxnIGlkPSJTdmdqc0cxNDU4Ij48cGF0aCBpZD0iU3ZnanNQYXRoMTQ1OSIgZD0iTTg5NS45ODk1NjI5ODgyODEyIDI4NS4wMDIwNzkwMTAwMDk3N0w4OTUuOTg5NTYyOTg4MjgxMiAzMDYuNTAyMjg3ODY0Njg1MDZMODk1Ljk4OTU2Mjk4ODI4MTIgMzA2LjUwMjI4Nzg2NDY4NTA2TDg5NS45ODk1NjI5ODgyODEyIDMyNS40MDI0OTY3MTkzNjAzMyIgc3Ryb2tlPSIjMzIzMjMyIiBzdHJva2Utd2lkdGg9IjIiIGZpbGw9Im5vbmUiIG1hcmtlci1lbmQ9InVybCgjU3ZnanNNYXJrZXIxNDYwKSIvPjwvZz48ZyBpZD0iU3ZnanNHMTQ2MiIgdHJhbnNmb3JtPSJ0cmFuc2xhdGUoOTgxLjEwMjA1ODQxMDY0NDUsMjgzLjQwMjQ5ODI0NTIzOTI2KSI+PHBhdGggaWQ9IlN2Z2pzUGF0aDE0NjMiIGQ9Ik0gMCAwTCAxNjIgMEwgMTYyIDEwNi41OTk1ODA3NjQ3NzA1MUwgMCAxMDYuNTk5NTgwNzY0NzcwNTFaIiBzdHJva2U9Im5vbmUiIGZpbGw9Im5vbmUiLz48ZyBpZD0iU3ZnanNHMTQ2NCI+PHRleHQgaWQ9IlN2Z2pzVGV4dDE0NjUiIGZvbnQtZmFtaWx5PSLlvq7ova/pm4Xpu5EiIHRleHQtYW5jaG9yPSJtaWRkbGUiIGZvbnQtc2l6ZT0iMTNweCIgd2lkdGg9IjE2MnB4IiBmaWxsPSIjN2IxZmEyIiBmb250LXdlaWdodD0iNDAwIiBhbGlnbj0ibWlkZGxlIiBsaW5laGVpZ2h0PSIxMjUlIiBhbmNob3I9Im1pZGRsZSIgZmFtaWx5PSLlvq7ova/pm4Xpu5EiIHNpemU9IjEzcHgiIHdlaWdodD0iNDAwIiBmb250LXN0eWxlPSIiIG9wYWNpdHk9IjEiIHk9IjEwLjE3NDc5MDM4MjM4NTI1NCIgdHJhbnNmb3JtPSJyb3RhdGUoMCkiPjx0c3BhbiBpZD0iU3ZnanNUc3BhbjE0NjYiIGR5PSIxNiIgeD0iODEiPjx0c3BhbiBpZD0iU3ZnanNUc3BhbjE0NjciIHN0eWxlPSJ0ZXh0LWRlY29yYXRpb246OyI+5omA5Lul5LiA6Iis5LiN5Lya6L+b5Y67IGlmIOivreWPpeWdlzwvdHNwYW4+PC90c3Bhbj48dHNwYW4gaWQ9IlN2Z2pzVHNwYW4xNDY4IiBkeT0iMTYiIHg9IjgxIj48dHNwYW4gaWQ9IlN2Z2pzVHNwYW4xNDY5IiBzdHlsZT0idGV4dC1kZWNvcmF0aW9uOjsiPuS4reWUpOmGkiBub2RlIOWvueW6lOeahOe6v+eoi+OAgjwvdHNwYW4+PC90c3Bhbj48dHNwYW4gaWQ9IlN2Z2pzVHNwYW4xNDcwIiBkeT0iMTYiIHg9IjgxIj48dHNwYW4gaWQ9IlN2Z2pzVHNwYW4xNDcxIiBzdHlsZT0idGV4dC1kZWNvcmF0aW9uOjsiPueEtuWQjui/meS4quaWueazlei/lOWbniB0cnVl77yM5LmfPC90c3Bhbj48L3RzcGFuPjx0c3BhbiBpZD0iU3ZnanNUc3BhbjE0NzIiIGR5PSIxNiIgeD0iODEiPjx0c3BhbiBpZD0iU3ZnanNUc3BhbjE0NzMiIHN0eWxlPSJ0ZXh0LWRlY29yYXRpb246OyI+5bCx5oSP5ZGz552AIHNpZ25hbCDmlrnms5Xnu5PmnZ88L3RzcGFuPjwvdHNwYW4+PHRzcGFuIGlkPSJTdmdqc1RzcGFuMTQ3NCIgZHk9IjE2IiB4PSI4MSI+PHRzcGFuIGlkPSJTdmdqc1RzcGFuMTQ3NSIgc3R5bGU9InRleHQtZGVjb3JhdGlvbjo7Ij7kuobvvIzoioLngrnov5vlhaXkuoblkIzmraXpmJ/liJc8L3RzcGFuPjwvdHNwYW4+PC90ZXh0PjwvZz48L2c+PGcgaWQ9IlN2Z2pzRzE0NzYiPjxwYXRoIGlkPSJTdmdqc1BhdGgxNDc3IiBkPSJNMTY2LjAwMjA2NzU2NTkxNzk3IDEwNC40MDIxMDM0MjQwNzIyN0wyMDQuNzUyMDY3NTY1OTE3OTcgMTA0LjQwMjEwMzQyNDA3MjI3TDIwNC43NTIwNjc1NjU5MTc5NyA2Ny40MDIxMDM0MjQwNzIyN0wyNDAuOTAyMDY3NTY1OTE3OTUgNjcuNDAyMTAzNDI0MDcyMjciIHN0cm9rZS1kYXNoYXJyYXk9IjMsMyIgc3Ryb2tlPSIjMzIzMjMyIiBzdHJva2Utd2lkdGg9IjIiIGZpbGw9Im5vbmUiIG1hcmtlci1lbmQ9InVybCgjU3ZnanNNYXJrZXIxNDc4KSIvPjwvZz48ZyBpZD0iU3ZnanNHMTQ4MCI+PHBhdGggaWQ9IlN2Z2pzUGF0aDE0ODEiIGQ9Ik02NDUuNjUyMDc2NzIxMTkxNCAyMTAuOTAyMjk5ODgwOTgxNDVMNjc2LjMyNzA3MjE0MzU1NDcgMjEwLjkwMjI5OTg4MDk4MTQ1TDY3Ni4zMjcwNzIxNDM1NTQ3IDE0Ni40MDIxMDM0MjQwNzIyN0w3MDQuNDAyMDY3NTY1OTE4IDE0Ni40MDIxMDM0MjQwNzIyNyIgc3Ryb2tlLWRhc2hhcnJheT0iMywzIiBzdHJva2U9IiMzMjMyMzIiIHN0cm9rZS13aWR0aD0iMiIgZmlsbD0ibm9uZSIgbWFya2VyLWVuZD0idXJsKCNTdmdqc01hcmtlcjE0ODIpIi8+PC9nPjxnIGlkPSJTdmdqc0cxNDg0Ij48cGF0aCBpZD0iU3ZnanNQYXRoMTQ4NSIgZD0iTTY0OC41MDIwNjc1NjU5MTggMjg0LjQwMjQ5ODI0NTIzOTI2TDY1NC41MDIwNjc1NjU5MTggMjg0LjQwMjQ5ODI0NTIzOTI2TDY1NC41MDIwNjc1NjU5MTggMzQxLjkwMjEwMzQyNDA3MjI3TDYwNS4xMDIwNjc1NjU5MTggMzQxLjkwMjEwMzQyNDA3MjI3IiBzdHJva2U9IiMzMjMyMzIiIHN0cm9rZS13aWR0aD0iMiIgZmlsbD0ibm9uZSIgbWFya2VyLWVuZD0idXJsKCNTdmdqc01hcmtlcjE0ODYpIi8+PHJlY3QgaWQ9IlN2Z2pzUmVjdDE0ODgiIHdpZHRoPSIxMyIgaGVpZ2h0PSIxNiIgeD0iNjQ4LjAwMjA2NzU2NTkxOCIgeT0iMzI2Ljg1MjMwMDgzNDY1NTc1IiBmaWxsPSIjZmZmZmZmIi8+PHRleHQgaWQ9IlN2Z2pzVGV4dDE0ODkiIGZvbnQtZmFtaWx5PSLlvq7ova/pm4Xpu5EiIHRleHQtYW5jaG9yPSJtaWRkbGUiIGZvbnQtc2l6ZT0iMTNweCIgd2lkdGg9IjEzcHgiIGZpbGw9IiMzMjMyMzIiIGZvbnQtd2VpZ2h0PSI0MDAiIGFsaWduPSJ0b3AiIGxpbmVoZWlnaHQ9IjE2cHgiIGFuY2hvcj0ibWlkZGxlIiBmYW1pbHk9IuW+rui9r+mbhem7kSIgc2l6ZT0iMTNweCIgd2VpZ2h0PSI0MDAiIGZvbnQtc3R5bGU9IiIgb3BhY2l0eT0iMSIgeT0iMzI0LjIyNzMwMDgzNDY1NTc1IiB0cmFuc2Zvcm09InJvdGF0ZSgwKSI+PHRzcGFuIGlkPSJTdmdqc1RzcGFuMTQ5MCIgZHk9IjE2IiB4PSI2NTQuNTAyMDY3NTY1OTE4Ij48dHNwYW4gaWQ9IlN2Z2pzVHNwYW4xNDkxIiBzdHlsZT0idGV4dC1kZWNvcmF0aW9uOjsiPuaYrzwvdHNwYW4+PC90c3Bhbj48L3RleHQ+PC9nPjxnIGlkPSJTdmdqc0cxNDkyIiB0cmFuc2Zvcm09InRyYW5zbGF0ZSg3MDYuNTAyMDY3NTY1OTE4LDM3Ni45MDIxMDM0MjQwNzIyNykiPjxwYXRoIGlkPSJTdmdqc1BhdGgxNDkzIiBkPSJNIDAgMEwgMTIwIDBMIDEyMCA1My4xOTk5NzQwNjAwNTg1OTRMIDAgNTMuMTk5OTc0MDYwMDU4NTk0WiIgc3Ryb2tlPSJub25lIiBmaWxsPSJub25lIi8+PGcgaWQ9IlN2Z2pzRzE0OTQiPjx0ZXh0IGlkPSJTdmdqc1RleHQxNDk1IiBmb250LWZhbWlseT0i5b6u6L2v6ZuF6buRIiB0ZXh0LWFuY2hvcj0ibWlkZGxlIiBmb250LXNpemU9IjEzcHgiIHdpZHRoPSIxMjBweCIgZmlsbD0iIzdiMWZhMiIgZm9udC13ZWlnaHQ9IjQwMCIgYWxpZ249Im1pZGRsZSIgbGluZWhlaWdodD0iMTI1JSIgYW5jaG9yPSJtaWRkbGUiIGZhbWlseT0i5b6u6L2v6ZuF6buRIiBzaXplPSIxM3B4IiB3ZWlnaHQ9IjQwMCIgZm9udC1zdHlsZT0iIiBvcGFjaXR5PSIxIiB5PSItMC41MjUwMTI5Njk5NzA3MDMxIiB0cmFuc2Zvcm09InJvdGF0ZSgwKSI+PHRzcGFuIGlkPSJTdmdqc1RzcGFuMTQ5NiIgZHk9IjE2IiB4PSI2MCI+PHRzcGFuIGlkPSJTdmdqc1RzcGFuMTQ5NyIgc3R5bGU9InRleHQtZGVjb3JhdGlvbjo7Ij7ljbPkuIDoiKzmg4XlhrXkuIvlsLHmmK/ov5s8L3RzcGFuPjwvdHNwYW4+PHRzcGFuIGlkPSJTdmdqc1RzcGFuMTQ5OCIgZHk9IjE2IiB4PSI2MCI+PHRzcGFuIGlkPSJTdmdqc1RzcGFuMTQ5OSIgc3R5bGU9InRleHQtZGVjb3JhdGlvbjo7Ij7lhaXpmJ/liJfvvIzlubborqnliY3pqbHnu5M8L3RzcGFuPjwvdHNwYW4+PHRzcGFuIGlkPSJTdmdqc1RzcGFuMTUwMCIgZHk9IjE2IiB4PSI2MCI+PHRzcGFuIGlkPSJTdmdqc1RzcGFuMTUwMSIgc3R5bGU9InRleHQtZGVjb3JhdGlvbjo7Ij7ngrnlj6vphpLoh6rlt7E8L3RzcGFuPjwvdHNwYW4+PC90ZXh0PjwvZz48L2c+PC9zdmc+;imageBorder=default;sketch=1;" parent="1" vertex="1">
                    <mxGeometry y="910" width="819.7" height="320" as="geometry"/>
                </mxCell>
                <mxCell id="37" value="ConditionObject#signal" style="rounded=0;whiteSpace=wrap;html=1;fillColor=#ffe6cc;strokeColor=#d79b00;comic=1;" parent="1" vertex="1">
                    <mxGeometry y="880" width="130" height="30" as="geometry"/>
                </mxCell>
                <mxCell id="38" value="" style="shape=image;verticalLabelPosition=bottom;labelBackgroundColor=#ffffff;verticalAlign=top;aspect=fixed;imageAspect=0;image=data:image/svg+xml,PHN2ZyB4bWxuczp4bGluaz0iaHR0cDovL3d3dy53My5vcmcvMTk5OS94bGluayIgeG1sbnM9Imh0dHA6Ly93d3cudzMub3JnLzIwMDAvc3ZnIiBmaWxsLW9wYWNpdHk9IjEiIGNvbG9yLXJlbmRlcmluZz0iYXV0byIgY29sb3ItaW50ZXJwb2xhdGlvbj0iYXV0byIgdGV4dC1yZW5kZXJpbmc9ImF1dG8iIHN0cm9rZT0iYmxhY2siIHN0cm9rZS1saW5lY2FwPSJzcXVhcmUiIHdpZHRoPSI1MjQiIHN0cm9rZS1taXRlcmxpbWl0PSIxMCIgc2hhcGUtcmVuZGVyaW5nPSJhdXRvIiBzdHJva2Utb3BhY2l0eT0iMSIgZmlsbD0iYmxhY2siIHN0cm9rZS1kYXNoYXJyYXk9Im5vbmUiIGZvbnQtd2VpZ2h0PSJub3JtYWwiIHN0cm9rZS13aWR0aD0iMSIgaGVpZ2h0PSI1MzQiIGZvbnQtZmFtaWx5PSInRGlhbG9nJyIgZm9udC1zdHlsZT0ibm9ybWFsIiBzdHJva2UtbGluZWpvaW49Im1pdGVyIiBmb250LXNpemU9IjEycHgiIHN0cm9rZS1kYXNob2Zmc2V0PSIwIiBpbWFnZS1yZW5kZXJpbmc9ImF1dG8iIHZpZXdCb3g9IjAgMCA1MjQgNTM0Ij48IS0tR2VuZXJhdGVkIGJ5IHRoZSBCYXRpayBHcmFwaGljczJEIFNWRyBHZW5lcmF0b3ItLT48ZGVmcyBpZD0iZ2VuZXJpY0RlZnMiLz48Zz48ZyBmaWxsPSJyZ2IoMjU1LDI1NSwxOTIpIiB0ZXh0LXJlbmRlcmluZz0ib3B0aW1pemVMZWdpYmlsaXR5IiBmb250LXNpemU9IjExcHgiIGZvbnQtZmFtaWx5PSJzYW5zLXNlcmlmIiBzdHJva2U9InJnYigyNTUsMjU1LDE5MikiPjxyZWN0IHg9IjUiIHdpZHRoPSIzNiIgaGVpZ2h0PSIyNSIgeT0iNSIgc3Ryb2tlPSJub25lIi8+PHJlY3QgZmlsbD0ibm9uZSIgeD0iNSIgd2lkdGg9IjM1IiBoZWlnaHQ9IjI0IiB5PSI1IiBzdHJva2U9ImJsYWNrIi8+PHRleHQgZmlsbD0icmdiKDY0LDY0LDY0KSIgeD0iMTAiIHhtbDpzcGFjZT0icHJlc2VydmUiIHk9IjIyIiBzdHJva2U9Im5vbmUiPkFjdG9yPC90ZXh0PjxyZWN0IGZpbGw9InJnYigyNTUsMjA5LDIwNikiIHg9IjQ2IiB3aWR0aD0iODYiIGhlaWdodD0iMjUiIHk9IjUiIHN0cm9rZT0ibm9uZSIvPjxyZWN0IGZpbGw9Im5vbmUiIHg9IjQ2IiB3aWR0aD0iODUiIGhlaWdodD0iMjQiIHk9IjUiIHN0cm9rZT0iYmxhY2siLz48dGV4dCBmaWxsPSJyZ2IoNjQsNjQsNjQpIiB4PSI1MSIgeG1sOnNwYWNlPSJwcmVzZXJ2ZSIgeT0iMjIiIHN0cm9rZT0ibm9uZSI+Q29uZGl0aW9uT2JqZWN0PC90ZXh0PjxyZWN0IGZpbGw9InJnYigyNTUsMjA5LDIwNikiIHg9IjE0NiIgd2lkdGg9IjE1MyIgaGVpZ2h0PSIyNSIgeT0iNSIgc3Ryb2tlPSJub25lIi8+PHJlY3QgZmlsbD0ibm9uZSIgeD0iMTQ2IiB3aWR0aD0iMTUyIiBoZWlnaHQ9IjI0IiB5PSI1IiBzdHJva2U9ImJsYWNrIi8+PC9nPjxnIGZpbGw9InJnYig2NCw2NCw2NCkiIGZvbnQtc3R5bGU9Iml0YWxpYyIgdGV4dC1yZW5kZXJpbmc9Im9wdGltaXplTGVnaWJpbGl0eSIgZm9udC1zaXplPSIxMXB4IiBzdHJva2U9InJnYig2NCw2NCw2NCkiPjx0ZXh0IHg9IjE1MSIgeG1sOnNwYWNlPSJwcmVzZXJ2ZSIgeT0iMjIiIHN0cm9rZT0ibm9uZSI+QWJzdHJhY3RRdWV1ZWRTeW5jaHJvbml6ZXI8L3RleHQ+PC9nPjxnIGZpbGw9InJnYigyNTUsMjA5LDIwNikiIHRleHQtcmVuZGVyaW5nPSJvcHRpbWl6ZUxlZ2liaWxpdHkiIGZvbnQtc2l6ZT0iMTFweCIgZm9udC1mYW1pbHk9InNhbnMtc2VyaWYiIHN0cm9rZT0icmdiKDI1NSwyMDksMjA2KSI+PHJlY3QgeD0iMzc3IiB3aWR0aD0iNzEiIGhlaWdodD0iMjUiIHk9IjUiIHN0cm9rZT0ibm9uZSIvPjxyZWN0IGZpbGw9Im5vbmUiIHg9IjM3NyIgd2lkdGg9IjcwIiBoZWlnaHQ9IjI0IiB5PSI1IiBzdHJva2U9ImJsYWNrIi8+PHRleHQgZmlsbD0icmdiKDY0LDY0LDY0KSIgeD0iMzgyIiB4bWw6c3BhY2U9InByZXNlcnZlIiB5PSIyMiIgc3Ryb2tlPSJub25lIj5Mb2NrU3VwcG9ydDwvdGV4dD48L2c+PGcgdGV4dC1yZW5kZXJpbmc9Im9wdGltaXplTGVnaWJpbGl0eSIgc3Ryb2tlLW1pdGVybGltaXQ9IjEyIiBmb250LXNpemU9IjExcHgiIHN0cm9rZS1kYXNoYXJyYXk9IjEyLDYiIGZvbnQtZmFtaWx5PSJzYW5zLXNlcmlmIiB0cmFuc2Zvcm09InRyYW5zbGF0ZSgwLDMwKSI+PGxpbmUgeTI9IjUwNCIgZmlsbD0ibm9uZSIgeDE9IjIzIiB4Mj0iMjMiIHkxPSIwIi8+PHRleHQgeD0iNDMiIHhtbDpzcGFjZT0icHJlc2VydmUiIHN0cm9rZS1taXRlcmxpbWl0PSIxMCIgc3Ryb2tlLWRhc2hhcnJheT0ibm9uZSIgeT0iNDciIHN0cm9rZT0ibm9uZSI+MTpzaWduYWw8L3RleHQ+PGxpbmUgZmlsbD0ibm9uZSIgeDE9IjI1IiB4Mj0iODUiIHkxPSI1NSIgeTI9IjU1IiBzdHJva2UtZGFzaGFycmF5PSJub25lIiBzdHJva2UtbWl0ZXJsaW1pdD0iMTAiLz48cGF0aCBzdHJva2UtbWl0ZXJsaW1pdD0iMTAiIHN0cm9rZS1kYXNoYXJyYXk9Im5vbmUiIGQ9Ik04MSA1MiBMODUgNTUgTDgxIDU4IFoiIHN0cm9rZT0ibm9uZSIvPjxsaW5lIHkyPSI1MDQiIGZpbGw9Im5vbmUiIHgxPSI4OSIgeDI9Ijg5IiB5MT0iMCIvPjwvZz48ZyBmaWxsPSJyZ2IoMjU1LDIyNCwxNjcpIiB0ZXh0LXJlbmRlcmluZz0ib3B0aW1pemVMZWdpYmlsaXR5IiBmb250LXNpemU9IjExcHgiIGZvbnQtZmFtaWx5PSJzYW5zLXNlcmlmIiB0cmFuc2Zvcm09InRyYW5zbGF0ZSgwLDMwKSIgc3Ryb2tlPSJyZ2IoMjU1LDIyNCwxNjcpIj48cmVjdCB4PSI4NSIgd2lkdGg9IjkiIGhlaWdodD0iNDM5IiB5PSI1NSIgc3Ryb2tlPSJub25lIi8+PHJlY3QgZmlsbD0ibm9uZSIgeD0iODUiIHdpZHRoPSI4IiBoZWlnaHQ9IjQzOCIgeT0iNTUiIHN0cm9rZT0iYmxhY2siLz48cmVjdCB4PSI4OCIgd2lkdGg9IjkiIGhlaWdodD0iMzMxIiB5PSIxMzAiIHN0cm9rZT0ibm9uZSIvPjxyZWN0IGZpbGw9Im5vbmUiIHg9Ijg4IiB3aWR0aD0iOCIgaGVpZ2h0PSIzMzAiIHk9IjEzMCIgc3Ryb2tlPSJibGFjayIvPjx0ZXh0IGZpbGw9ImJsYWNrIiB4PSIxMTMiIHhtbDpzcGFjZT0icHJlc2VydmUiIHk9IjcyIiBzdHJva2U9Im5vbmUiPjEuMTppc0hlbGRFeGNsdXNpdmVseTwvdGV4dD48bGluZSB5Mj0iODAiIGZpbGw9Im5vbmUiIHgxPSI5NCIgeDI9IjIxOCIgc3Ryb2tlPSJibGFjayIgeTE9IjgwIi8+PHBhdGggZmlsbD0iYmxhY2siIGQ9Ik0yMTQgNzcgTDIxOCA4MCBMMjE0IDgzIFoiIHN0cm9rZT0ibm9uZSIvPjx0ZXh0IGZpbGw9ImJsYWNrIiB4PSIxMDIiIHhtbDpzcGFjZT0icHJlc2VydmUiIHk9IjEyMiIgc3Ryb2tlPSJub25lIj4xLjI6ZG9TaWduYWw8L3RleHQ+PGxpbmUgeTI9IjEzMCIgZmlsbD0ibm9uZSIgeDE9Ijk3IiB4Mj0iMTMyIiBzdHJva2U9ImJsYWNrIiB5MT0iMTMwIi8+PGxpbmUgeTI9IjEzOCIgZmlsbD0ibm9uZSIgeDE9IjEzMiIgeDI9IjEzMiIgc3Ryb2tlPSJibGFjayIgeTE9IjEzMCIvPjxsaW5lIHkyPSIxMzgiIGZpbGw9Im5vbmUiIHgxPSI5NyIgeDI9IjEzMiIgc3Ryb2tlPSJibGFjayIgeTE9IjEzOCIvPjxwYXRoIGZpbGw9ImJsYWNrIiBkPSJNMTAxIDEzNSBMOTcgMTM4IEwxMDEgMTQxIFoiIHN0cm9rZT0ibm9uZSIvPjx0ZXh0IGZpbGw9ImJsYWNrIiB4PSIxMDIiIHhtbDpzcGFjZT0icHJlc2VydmUiIHk9IjE1NSIgc3Ryb2tlPSJub25lIj4xLjIuMTp0cmFuc2ZlckZvclNpZ25hbDwvdGV4dD48bGluZSB5Mj0iMTYzIiBmaWxsPSJub25lIiB4MT0iOTciIHgyPSIyMTgiIHN0cm9rZT0iYmxhY2siIHkxPSIxNjMiLz48cGF0aCBmaWxsPSJibGFjayIgZD0iTTIxNCAxNjAgTDIxOCAxNjMgTDIxNCAxNjYgWiIgc3Ryb2tlPSJub25lIi8+PC9nPjxnIHRleHQtcmVuZGVyaW5nPSJvcHRpbWl6ZUxlZ2liaWxpdHkiIHN0cm9rZS1taXRlcmxpbWl0PSIxMiIgZm9udC1zaXplPSIxMXB4IiBzdHJva2UtZGFzaGFycmF5PSIxMiw2IiBmb250LWZhbWlseT0ic2Fucy1zZXJpZiIgdHJhbnNmb3JtPSJ0cmFuc2xhdGUoMCwzMCkiPjxsaW5lIHkyPSI1MDQiIGZpbGw9Im5vbmUiIHgxPSIyMjIiIHgyPSIyMjIiIHkxPSIwIi8+PC9nPjxnIGZpbGw9InJnYigyNTUsMjI0LDE2NykiIHRleHQtcmVuZGVyaW5nPSJvcHRpbWl6ZUxlZ2liaWxpdHkiIGZvbnQtc2l6ZT0iMTFweCIgZm9udC1mYW1pbHk9InNhbnMtc2VyaWYiIHRyYW5zZm9ybT0idHJhbnNsYXRlKDAsMzApIiBzdHJva2U9InJnYigyNTUsMjI0LDE2NykiPjxyZWN0IHg9IjIxOCIgd2lkdGg9IjkiIGhlaWdodD0iMjUiIHk9IjgwIiBzdHJva2U9Im5vbmUiLz48cmVjdCBmaWxsPSJub25lIiB4PSIyMTgiIHdpZHRoPSI4IiBoZWlnaHQ9IjI0IiB5PSI4MCIgc3Ryb2tlPSJibGFjayIvPjxyZWN0IHg9IjIxOCIgd2lkdGg9IjkiIGhlaWdodD0iMjczIiB5PSIxNjMiIHN0cm9rZT0ibm9uZSIvPjxyZWN0IGZpbGw9Im5vbmUiIHg9IjIxOCIgd2lkdGg9IjgiIGhlaWdodD0iMjcyIiB5PSIxNjMiIHN0cm9rZT0iYmxhY2siLz48cmVjdCB4PSIyMjEiIHdpZHRoPSI5IiBoZWlnaHQ9IjMzIiB5PSIxODgiIHN0cm9rZT0ibm9uZSIvPjxyZWN0IGZpbGw9Im5vbmUiIHg9IjIyMSIgd2lkdGg9IjgiIGhlaWdodD0iMzIiIHk9IjE4OCIgc3Ryb2tlPSJibGFjayIvPjxyZWN0IHg9IjIyMSIgd2lkdGg9IjkiIGhlaWdodD0iMzMiIHk9IjI1NCIgc3Ryb2tlPSJub25lIi8+PHJlY3QgZmlsbD0ibm9uZSIgeD0iMjIxIiB3aWR0aD0iOCIgaGVpZ2h0PSIzMiIgeT0iMjU0IiBzdHJva2U9ImJsYWNrIi8+PHJlY3QgeD0iMjIxIiB3aWR0aD0iOSIgaGVpZ2h0PSIzMyIgeT0iMzIwIiBzdHJva2U9Im5vbmUiLz48cmVjdCBmaWxsPSJub25lIiB4PSIyMjEiIHdpZHRoPSI4IiBoZWlnaHQ9IjMyIiB5PSIzMjAiIHN0cm9rZT0iYmxhY2siLz48dGV4dCBmaWxsPSJibGFjayIgeD0iMjM1IiB4bWw6c3BhY2U9InByZXNlcnZlIiB5PSIxODAiIHN0cm9rZT0ibm9uZSI+MS4yLjEuMTpjb21wYXJlQW5kU2V0V2FpdFN0YXR1czwvdGV4dD48bGluZSB5Mj0iMTgyIiBmaWxsPSJub25lIiB4MT0iMjM1IiB4Mj0iNDAzIiBzdHJva2U9ImJsYWNrIiB5MT0iMTgyIi8+PGxpbmUgeTI9IjE4OCIgZmlsbD0ibm9uZSIgeDE9IjIzMCIgeDI9IjMxOSIgc3Ryb2tlPSJibGFjayIgeTE9IjE4OCIvPjxsaW5lIHkyPSIxOTYiIGZpbGw9Im5vbmUiIHgxPSIzMTkiIHgyPSIzMTkiIHN0cm9rZT0iYmxhY2siIHkxPSIxODgiLz48bGluZSB5Mj0iMTk2IiBmaWxsPSJub25lIiB4MT0iMjMwIiB4Mj0iMzE5IiBzdHJva2U9ImJsYWNrIiB5MT0iMTk2Ii8+PHBhdGggZmlsbD0iYmxhY2siIGQ9Ik0yMzQgMTkzIEwyMzAgMTk2IEwyMzQgMTk5IFoiIHN0cm9rZT0ibm9uZSIvPjx0ZXh0IGZpbGw9ImJsYWNrIiB4PSIyMzUiIHhtbDpzcGFjZT0icHJlc2VydmUiIHk9IjI0NiIgc3Ryb2tlPSJub25lIj4xLjIuMS4yOmVucTwvdGV4dD48bGluZSB5Mj0iMjU0IiBmaWxsPSJub25lIiB4MT0iMjMwIiB4Mj0iMjYyIiBzdHJva2U9ImJsYWNrIiB5MT0iMjU0Ii8+PGxpbmUgeTI9IjI2MiIgZmlsbD0ibm9uZSIgeDE9IjI2MiIgeDI9IjI2MiIgc3Ryb2tlPSJibGFjayIgeTE9IjI1NCIvPjxsaW5lIHkyPSIyNjIiIGZpbGw9Im5vbmUiIHgxPSIyMzAiIHgyPSIyNjIiIHN0cm9rZT0iYmxhY2siIHkxPSIyNjIiLz48cGF0aCBmaWxsPSJibGFjayIgZD0iTTIzNCAyNTkgTDIzMCAyNjIgTDIzNCAyNjUgWiIgc3Ryb2tlPSJub25lIi8+PHRleHQgZmlsbD0iYmxhY2siIHg9IjIzNSIgeG1sOnNwYWNlPSJwcmVzZXJ2ZSIgeT0iMzEyIiBzdHJva2U9Im5vbmUiPjEuMi4xLjM6Y29tcGFyZUFuZFNldFdhaXRTdGF0dXM8L3RleHQ+PGxpbmUgeTI9IjMxNCIgZmlsbD0ibm9uZSIgeDE9IjIzNSIgeDI9IjQwMyIgc3Ryb2tlPSJibGFjayIgeTE9IjMxNCIvPjxsaW5lIHkyPSIzMjAiIGZpbGw9Im5vbmUiIHgxPSIyMzAiIHgyPSIzMTkiIHN0cm9rZT0iYmxhY2siIHkxPSIzMjAiLz48bGluZSB5Mj0iMzI4IiBmaWxsPSJub25lIiB4MT0iMzE5IiB4Mj0iMzE5IiBzdHJva2U9ImJsYWNrIiB5MT0iMzIwIi8+PGxpbmUgeTI9IjMyOCIgZmlsbD0ibm9uZSIgeDE9IjIzMCIgeDI9IjMxOSIgc3Ryb2tlPSJibGFjayIgeTE9IjMyOCIvPjxwYXRoIGZpbGw9ImJsYWNrIiBkPSJNMjM0IDMyNSBMMjMwIDMyOCBMMjM0IDMzMSBaIiBzdHJva2U9Im5vbmUiLz48dGV4dCBmaWxsPSJibGFjayIgeD0iMzMzIiB4bWw6c3BhY2U9InByZXNlcnZlIiB5PSIzNzgiIHN0cm9rZT0ibm9uZSI+MS4yLjEuNDp1bnBhcms8L3RleHQ+PGxpbmUgeTI9IjM4MCIgZmlsbD0ibm9uZSIgeDE9IjMzMyIgeDI9IjQwMyIgc3Ryb2tlPSJibGFjayIgeTE9IjM4MCIvPjwvZz48ZyB0ZXh0LXJlbmRlcmluZz0ib3B0aW1pemVMZWdpYmlsaXR5IiBzdHJva2UtbWl0ZXJsaW1pdD0iNiIgZm9udC1zaXplPSIxMXB4IiBzdHJva2UtZGFzaGFycmF5PSI2LDMiIGZvbnQtZmFtaWx5PSJzYW5zLXNlcmlmIiB0cmFuc2Zvcm09InRyYW5zbGF0ZSgwLDMwKSI+PGxpbmUgeTI9IjM4NiIgZmlsbD0ibm9uZSIgeDE9IjIyNyIgeDI9IjQwOCIgeTE9IjM4NiIvPjxwYXRoIHN0cm9rZS1taXRlcmxpbWl0PSIxMCIgc3Ryb2tlLWRhc2hhcnJheT0ibm9uZSIgZD0iTTQwNCAzODMgTDQwOCAzODYgTDQwNCAzODkgWiIgc3Ryb2tlPSJub25lIi8+PGxpbmUgZmlsbD0ibm9uZSIgeDE9IjIxOCIgeDI9Ijk0IiB5MT0iMTA1IiB5Mj0iMTA1IiBzdHJva2UtZGFzaGFycmF5PSIxMCw1IiBzdHJva2UtbWl0ZXJsaW1pdD0iMTAiLz48bGluZSBmaWxsPSJub25lIiB4MT0iOTgiIHgyPSI5NCIgeTE9IjEwMiIgeTI9IjEwNSIgc3Ryb2tlLWRhc2hhcnJheT0ibm9uZSIgc3Ryb2tlLW1pdGVybGltaXQ9IjEwIi8+PGxpbmUgZmlsbD0ibm9uZSIgeDE9Ijk4IiB4Mj0iOTQiIHkxPSIxMDgiIHkyPSIxMDUiIHN0cm9rZS1kYXNoYXJyYXk9Im5vbmUiIHN0cm9rZS1taXRlcmxpbWl0PSIxMCIvPjxsaW5lIGZpbGw9Im5vbmUiIHgxPSIyMTgiIHgyPSI5NyIgeTE9IjQzNiIgeTI9IjQzNiIgc3Ryb2tlLWRhc2hhcnJheT0iMTAsNSIgc3Ryb2tlLW1pdGVybGltaXQ9IjEwIi8+PGxpbmUgZmlsbD0ibm9uZSIgeDE9IjEwMSIgeDI9Ijk3IiB5MT0iNDMzIiB5Mj0iNDM2IiBzdHJva2UtZGFzaGFycmF5PSJub25lIiBzdHJva2UtbWl0ZXJsaW1pdD0iMTAiLz48bGluZSBmaWxsPSJub25lIiB4MT0iMTAxIiB4Mj0iOTciIHkxPSI0MzkiIHkyPSI0MzYiIHN0cm9rZS1kYXNoYXJyYXk9Im5vbmUiIHN0cm9rZS1taXRlcmxpbWl0PSIxMCIvPjxsaW5lIGZpbGw9Im5vbmUiIHgxPSI0MTIiIHgyPSI0MTIiIHkxPSIwIiB5Mj0iNTA0IiBzdHJva2UtZGFzaGFycmF5PSIxMiw2IiBzdHJva2UtbWl0ZXJsaW1pdD0iMTIiLz48L2c+PGcgZmlsbD0icmdiKDI1NSwyMjQsMTY3KSIgdGV4dC1yZW5kZXJpbmc9Im9wdGltaXplTGVnaWJpbGl0eSIgZm9udC1zaXplPSIxMXB4IiBmb250LWZhbWlseT0ic2Fucy1zZXJpZiIgdHJhbnNmb3JtPSJ0cmFuc2xhdGUoMCwzMCkiIHN0cm9rZT0icmdiKDI1NSwyMjQsMTY3KSI+PHJlY3QgeD0iNDA4IiB3aWR0aD0iOSIgaGVpZ2h0PSIyNSIgeT0iMzg2IiBzdHJva2U9Im5vbmUiLz48cmVjdCBmaWxsPSJub25lIiB4PSI0MDgiIHdpZHRoPSI4IiBoZWlnaHQ9IjI0IiB5PSIzODYiIHN0cm9rZT0iYmxhY2siLz48bGluZSBmaWxsPSJub25lIiB4MT0iNDA4IiB4Mj0iMjI3IiB5MT0iNDExIiB5Mj0iNDExIiBzdHJva2UtZGFzaGFycmF5PSIxMCw1IiBzdHJva2U9ImJsYWNrIi8+PGxpbmUgeTI9IjQxMSIgZmlsbD0ibm9uZSIgeDE9IjIzMSIgeDI9IjIyNyIgc3Ryb2tlPSJibGFjayIgeTE9IjQwOCIvPjxsaW5lIHkyPSI0MTEiIGZpbGw9Im5vbmUiIHgxPSIyMzEiIHgyPSIyMjciIHN0cm9rZT0iYmxhY2siIHkxPSI0MTQiLz48L2c+PC9nPjwvc3ZnPg==;imageBorder=default;sketch=1;" parent="1" vertex="1">
                    <mxGeometry x="830" y="873.14" width="350" height="356.86" as="geometry"/>
                </mxCell>
                <mxCell id="39" value="唤醒时机：&lt;br&gt;① ConditionObject#notify将节点移动到阻塞队列&lt;br&gt;② 阻塞队列前面节点release成功时唤醒当前节点" style="rounded=0;whiteSpace=wrap;html=1;fillColor=#ffe6cc;strokeColor=#d79b00;comic=1;sketch=1;align=left;" parent="1" vertex="1">
                    <mxGeometry x="1170" y="560.5" width="160" height="80" as="geometry"/>
                </mxCell>
                <mxCell id="40" value="" style="rounded=0;whiteSpace=wrap;html=1;fillColor=none;strokeColor=#b85450;comic=0;align=left;sketch=0;" parent="1" vertex="1">
                    <mxGeometry x="880" y="932" width="110" height="34" as="geometry"/>
                </mxCell>
                <mxCell id="41" value="&lt;font color=&quot;#6262fc&quot;&gt;&lt;font style=&quot;font-size: 12px&quot;&gt;判断是否是当前线程持有锁，如果没有则抛出异常&lt;/font&gt;&lt;br&gt;&lt;/font&gt;" style="rounded=0;whiteSpace=wrap;html=1;fillColor=none;strokeColor=none;comic=1;align=left;sketch=1;" parent="1" vertex="1">
                    <mxGeometry x="1000" y="927" width="160" height="39" as="geometry"/>
                </mxCell>
                <mxCell id="42" value="" style="rounded=0;whiteSpace=wrap;html=1;fillColor=none;strokeColor=#b85450;comic=0;align=left;sketch=0;" parent="1" vertex="1">
                    <mxGeometry x="880" y="966" width="240" height="224" as="geometry"/>
                </mxCell>
                <mxCell id="43" value="&lt;span&gt;&lt;font color=&quot;#6262fc&quot; style=&quot;font-size: 12px&quot;&gt;获取条件队列中第一个节点：&lt;br&gt;① CAS修改节点状态CONDITION -&amp;gt; 0&lt;br&gt;② 将其放入阻塞队列中&lt;br&gt;③ 修改前驱节点的状态为SIGNAL&lt;br&gt;&lt;/font&gt;&lt;/span&gt;" style="rounded=0;whiteSpace=wrap;html=1;fillColor=none;strokeColor=none;comic=1;align=left;sketch=1;" parent="1" vertex="1">
                    <mxGeometry x="1130" y="990" width="210" height="70" as="geometry"/>
                </mxCell>
                <mxCell id="44" value="&lt;span style=&quot;font-size: 10px&quot;&gt;&lt;font color=&quot;#6262fc&quot;&gt;这个循环的目的是&lt;b&gt;x个signal同时执行&lt;/b&gt;时，能够&lt;b&gt;转移x个节点&lt;/b&gt;到阻塞队列&lt;br&gt;&lt;/font&gt;&lt;/span&gt;" style="rounded=0;whiteSpace=wrap;html=1;fillColor=none;strokeColor=none;comic=1;align=left;sketch=1;" parent="1" vertex="1">
                    <mxGeometry x="160" y="1120" width="150" height="39" as="geometry"/>
                </mxCell>
                <mxCell id="45" value="ConditionObject案例" style="rounded=0;whiteSpace=wrap;html=1;fillColor=#ffe6cc;strokeColor=#d79b00;comic=1;" parent="1" vertex="1">
                    <mxGeometry x="349" y="1280" width="130" height="30" as="geometry"/>
                </mxCell>
                <mxCell id="46" style="edgeStyle=none;sketch=1;html=1;exitX=1;exitY=0.5;exitDx=0;exitDy=0;entryX=0;entryY=0.5;entryDx=0;entryDy=0;" parent="1" source="47" target="48" edge="1">
                    <mxGeometry relative="1" as="geometry"/>
                </mxCell>
                <mxCell id="47" value="初始" style="rounded=0;whiteSpace=wrap;html=1;fillColor=#ffe6cc;strokeColor=#d79b00;comic=1;" parent="1" vertex="1">
                    <mxGeometry x="40" y="1425" width="67.09" height="30" as="geometry"/>
                </mxCell>
                <mxCell id="48" value="" style="rounded=0;whiteSpace=wrap;html=1;fillColor=#dae8fc;strokeColor=#6c8ebf;comic=1;verticalAlign=top;" parent="1" vertex="1">
                    <mxGeometry x="134.94" y="1350" width="644.91" height="180" as="geometry"/>
                </mxCell>
                <mxCell id="49" value="AQS" style="rounded=0;whiteSpace=wrap;html=1;fillColor=#ffe6cc;strokeColor=#d79b00;comic=1;verticalAlign=top;" parent="1" vertex="1">
                    <mxGeometry x="146.19000000000003" y="1360" width="97.5" height="155.25" as="geometry"/>
                </mxCell>
                <mxCell id="50" style="edgeStyle=none;sketch=1;html=1;exitX=1;exitY=0.5;exitDx=0;exitDy=0;entryX=0.003;entryY=0.447;entryDx=0;entryDy=0;entryPerimeter=0;" parent="1" source="51" target="57" edge="1">
                    <mxGeometry relative="1" as="geometry">
                        <mxPoint x="266.19000000000017" y="1442" as="targetPoint"/>
                    </mxGeometry>
                </mxCell>
                <mxCell id="51" value="head" style="rounded=0;whiteSpace=wrap;html=1;comic=1;" parent="1" vertex="1">
                    <mxGeometry x="157.44000000000003" y="1420" width="75" height="24" as="geometry"/>
                </mxCell>
                <mxCell id="52" style="edgeStyle=orthogonalEdgeStyle;sketch=1;html=1;exitX=1;exitY=0.5;exitDx=0;exitDy=0;entryX=0.5;entryY=1;entryDx=0;entryDy=0;" parent="1" source="53" target="71" edge="1">
                    <mxGeometry relative="1" as="geometry">
                        <mxPoint x="568.6" y="1520" as="targetPoint"/>
                        <Array as="points">
                            <mxPoint x="259.85" y="1462"/>
                            <mxPoint x="259.85" y="1510"/>
                            <mxPoint x="720.85" y="1510"/>
                        </Array>
                    </mxGeometry>
                </mxCell>
                <mxCell id="53" value="tail" style="rounded=0;whiteSpace=wrap;html=1;comic=1;" parent="1" vertex="1">
                    <mxGeometry x="157.44000000000003" y="1450" width="75" height="24" as="geometry"/>
                </mxCell>
                <mxCell id="54" value="state&lt;br&gt;1" style="rounded=0;whiteSpace=wrap;html=1;comic=1;" parent="1" vertex="1">
                    <mxGeometry x="157.44000000000003" y="1480" width="75" height="30" as="geometry"/>
                </mxCell>
                <mxCell id="55" value="ex-thread&lt;br&gt;①" style="rounded=0;whiteSpace=wrap;html=1;comic=1;fillColor=#e1d5e7;strokeColor=#9673a6;" parent="1" vertex="1">
                    <mxGeometry x="157.44000000000003" y="1380" width="75" height="34" as="geometry"/>
                </mxCell>
                <mxCell id="56" value="" style="group" parent="1" vertex="1" connectable="0">
                    <mxGeometry x="276.1" y="1387.63" width="97.5" height="100" as="geometry"/>
                </mxCell>
                <mxCell id="57" value="Node(dummy)" style="rounded=0;whiteSpace=wrap;html=1;fillColor=#d5e8d4;strokeColor=#82b366;comic=1;verticalAlign=top;" parent="56" vertex="1">
                    <mxGeometry width="97.5" height="100" as="geometry"/>
                </mxCell>
                <mxCell id="58" value="waitStatus&lt;br&gt;SIGNAL" style="rounded=0;whiteSpace=wrap;html=1;comic=1;" parent="56" vertex="1">
                    <mxGeometry x="11.25" y="24" width="75" height="36" as="geometry"/>
                </mxCell>
                <mxCell id="59" value="thread null" style="rounded=0;whiteSpace=wrap;html=1;comic=1;" parent="56" vertex="1">
                    <mxGeometry x="11.25" y="67.63000000000011" width="75" height="24.75" as="geometry"/>
                </mxCell>
                <mxCell id="60" value="" style="group" parent="1" vertex="1" connectable="0">
                    <mxGeometry x="407.35" y="1387.63" width="97.5" height="100" as="geometry"/>
                </mxCell>
                <mxCell id="61" value="Node" style="rounded=0;whiteSpace=wrap;html=1;fillColor=#d5e8d4;strokeColor=#82b366;comic=1;verticalAlign=top;" parent="60" vertex="1">
                    <mxGeometry width="97.5" height="100" as="geometry"/>
                </mxCell>
                <mxCell id="62" value="waitStatus&lt;br&gt;SIGNAL" style="rounded=0;whiteSpace=wrap;html=1;comic=1;" parent="60" vertex="1">
                    <mxGeometry x="11.25" y="24" width="75" height="36" as="geometry"/>
                </mxCell>
                <mxCell id="63" value="thread ②" style="rounded=0;whiteSpace=wrap;html=1;comic=1;" parent="60" vertex="1">
                    <mxGeometry x="11.25" y="67.63000000000011" width="75" height="24.75" as="geometry"/>
                </mxCell>
                <mxCell id="64" style="edgeStyle=none;html=1;exitX=1;exitY=0.5;exitDx=0;exitDy=0;entryX=0;entryY=0.5;entryDx=0;entryDy=0;sketch=1;startArrow=classic;startFill=1;" parent="1" source="57" target="61" edge="1">
                    <mxGeometry relative="1" as="geometry">
                        <mxPoint x="409.85" y="1450" as="targetPoint"/>
                    </mxGeometry>
                </mxCell>
                <mxCell id="65" value="" style="group" parent="1" vertex="1" connectable="0">
                    <mxGeometry x="539.85" y="1387.63" width="97.5" height="100" as="geometry"/>
                </mxCell>
                <mxCell id="66" value="Node" style="rounded=0;whiteSpace=wrap;html=1;fillColor=#d5e8d4;strokeColor=#82b366;comic=1;verticalAlign=top;" parent="65" vertex="1">
                    <mxGeometry width="97.5" height="100" as="geometry"/>
                </mxCell>
                <mxCell id="67" value="waitStatus&lt;br&gt;SIGNAL" style="rounded=0;whiteSpace=wrap;html=1;comic=1;" parent="65" vertex="1">
                    <mxGeometry x="11.25" y="24" width="75" height="36" as="geometry"/>
                </mxCell>
                <mxCell id="68" value="thread ③" style="rounded=0;whiteSpace=wrap;html=1;comic=1;" parent="65" vertex="1">
                    <mxGeometry x="11.25" y="67.63000000000011" width="75" height="24.75" as="geometry"/>
                </mxCell>
                <mxCell id="69" style="edgeStyle=none;sketch=1;html=1;exitX=1;exitY=0.5;exitDx=0;exitDy=0;entryX=0;entryY=0.5;entryDx=0;entryDy=0;startArrow=classic;startFill=1;" parent="1" source="61" target="66" edge="1">
                    <mxGeometry relative="1" as="geometry"/>
                </mxCell>
                <mxCell id="70" value="" style="group" parent="1" vertex="1" connectable="0">
                    <mxGeometry x="672.35" y="1387.63" width="97.5" height="100" as="geometry"/>
                </mxCell>
                <mxCell id="71" value="Node" style="rounded=0;whiteSpace=wrap;html=1;fillColor=#d5e8d4;strokeColor=#82b366;comic=1;verticalAlign=top;" parent="70" vertex="1">
                    <mxGeometry width="97.5" height="100" as="geometry"/>
                </mxCell>
                <mxCell id="72" value="waitStatus&lt;br&gt;0" style="rounded=0;whiteSpace=wrap;html=1;comic=1;" parent="70" vertex="1">
                    <mxGeometry x="11.25" y="24" width="75" height="36" as="geometry"/>
                </mxCell>
                <mxCell id="73" value="thread ④" style="rounded=0;whiteSpace=wrap;html=1;comic=1;" parent="70" vertex="1">
                    <mxGeometry x="11.25" y="67.63000000000011" width="75" height="24.75" as="geometry"/>
                </mxCell>
                <mxCell id="74" style="edgeStyle=none;sketch=1;html=1;exitX=1;exitY=0.5;exitDx=0;exitDy=0;entryX=0;entryY=0.5;entryDx=0;entryDy=0;startArrow=classic;startFill=1;" parent="1" source="66" target="71" edge="1">
                    <mxGeometry relative="1" as="geometry"/>
                </mxCell>
                <mxCell id="113" style="edgeStyle=none;sketch=1;html=1;exitX=1;exitY=0.5;exitDx=0;exitDy=0;entryX=0;entryY=0.293;entryDx=0;entryDy=0;fontSize=11;fontColor=#000000;startArrow=none;startFill=0;entryPerimeter=0;" parent="1" source="75" target="86" edge="1">
                    <mxGeometry relative="1" as="geometry"/>
                </mxCell>
                <mxCell id="75" value="①线程&lt;br&gt;condition.await" style="rounded=0;whiteSpace=wrap;html=1;fillColor=#ffe6cc;strokeColor=#d79b00;comic=1;" parent="1" vertex="1">
                    <mxGeometry x="28.54" y="1612" width="90" height="40" as="geometry"/>
                </mxCell>
                <mxCell id="76" value="线程状态" style="rounded=0;whiteSpace=wrap;html=1;fillColor=#b0e3e6;strokeColor=#0e8088;comic=1;" parent="1" vertex="1">
                    <mxGeometry x="890" y="1290" width="70" height="30" as="geometry"/>
                </mxCell>
                <mxCell id="80" style="edgeStyle=none;sketch=1;html=1;exitX=1;exitY=0.5;exitDx=0;exitDy=0;entryX=0;entryY=0.5;entryDx=0;entryDy=0;fontColor=#CC0066;startArrow=classic;startFill=1;" parent="1" source="77" target="78" edge="1">
                    <mxGeometry relative="1" as="geometry"/>
                </mxCell>
                <mxCell id="82" value="&lt;font color=&quot;#000000&quot;&gt;Condition&lt;br&gt;#await&lt;/font&gt;" style="edgeStyle=none;sketch=1;html=1;exitX=1;exitY=0.5;exitDx=0;exitDy=0;entryX=0;entryY=0.5;entryDx=0;entryDy=0;fontColor=#CC0066;startArrow=none;startFill=0;" parent="1" source="77" target="79" edge="1">
                    <mxGeometry relative="1" as="geometry"/>
                </mxCell>
                <mxCell id="77" value="执行" style="rounded=0;whiteSpace=wrap;html=1;fillColor=#d5e8d4;strokeColor=#82b366;comic=1;" parent="1" vertex="1">
                    <mxGeometry x="827" y="1400" width="70" height="30" as="geometry"/>
                </mxCell>
                <mxCell id="78" value="阻塞队列" style="rounded=0;whiteSpace=wrap;html=1;fillColor=#e1d5e7;strokeColor=#9673a6;comic=1;" parent="1" vertex="1">
                    <mxGeometry x="960" y="1350" width="70" height="30" as="geometry"/>
                </mxCell>
                <mxCell id="83" value="Condition&lt;br&gt;#signal" style="edgeStyle=none;sketch=1;html=1;exitX=0.5;exitY=0;exitDx=0;exitDy=0;entryX=0.5;entryY=1;entryDx=0;entryDy=0;fontColor=#000000;startArrow=none;startFill=0;" parent="1" source="79" target="78" edge="1">
                    <mxGeometry relative="1" as="geometry"/>
                </mxCell>
                <mxCell id="79" value="条件队列" style="rounded=0;whiteSpace=wrap;html=1;fillColor=#e1d5e7;strokeColor=#9673a6;comic=1;" parent="1" vertex="1">
                    <mxGeometry x="960" y="1450" width="70" height="30" as="geometry"/>
                </mxCell>
                <mxCell id="84" value="&lt;font style=&quot;font-size: 11px&quot;&gt;AQS&lt;br&gt;#release&lt;br&gt;&lt;/font&gt;" style="text;html=1;align=center;verticalAlign=middle;resizable=0;points=[];autosize=1;strokeColor=none;fillColor=none;fontColor=#000000;" parent="1" vertex="1">
                    <mxGeometry x="880" y="1360" width="60" height="30" as="geometry"/>
                </mxCell>
                <mxCell id="85" value="&lt;font style=&quot;font-size: 11px&quot;&gt;AQS&lt;br&gt;#acquire&lt;br&gt;&lt;/font&gt;" style="text;html=1;align=center;verticalAlign=middle;resizable=0;points=[];autosize=1;strokeColor=none;fillColor=none;fontColor=#000000;" parent="1" vertex="1">
                    <mxGeometry x="915" y="1382" width="60" height="30" as="geometry"/>
                </mxCell>
                <mxCell id="86" value="" style="rounded=0;whiteSpace=wrap;html=1;fillColor=#dae8fc;strokeColor=#6c8ebf;comic=1;verticalAlign=top;" parent="1" vertex="1">
                    <mxGeometry x="174.79" y="1550" width="535.21" height="280" as="geometry"/>
                </mxCell>
                <mxCell id="87" value="AQS" style="rounded=0;whiteSpace=wrap;html=1;fillColor=#ffe6cc;strokeColor=#d79b00;comic=1;verticalAlign=top;" parent="1" vertex="1">
                    <mxGeometry x="186.04000000000002" y="1560" width="97.5" height="155.25" as="geometry"/>
                </mxCell>
                <mxCell id="88" style="edgeStyle=none;sketch=1;html=1;exitX=1;exitY=0.5;exitDx=0;exitDy=0;entryX=0.003;entryY=0.447;entryDx=0;entryDy=0;entryPerimeter=0;" parent="1" source="89" target="95" edge="1">
                    <mxGeometry relative="1" as="geometry">
                        <mxPoint x="306.0400000000002" y="1642" as="targetPoint"/>
                    </mxGeometry>
                </mxCell>
                <mxCell id="89" value="head" style="rounded=0;whiteSpace=wrap;html=1;comic=1;" parent="1" vertex="1">
                    <mxGeometry x="197.29000000000002" y="1620" width="75" height="24" as="geometry"/>
                </mxCell>
                <mxCell id="90" style="edgeStyle=orthogonalEdgeStyle;sketch=1;html=1;exitX=1;exitY=0.5;exitDx=0;exitDy=0;entryX=0.5;entryY=1;entryDx=0;entryDy=0;" parent="1" source="91" target="109" edge="1">
                    <mxGeometry relative="1" as="geometry">
                        <mxPoint x="608.45" y="1720" as="targetPoint"/>
                        <Array as="points">
                            <mxPoint x="300" y="1662"/>
                            <mxPoint x="300" y="1700"/>
                            <mxPoint x="631" y="1700"/>
                        </Array>
                    </mxGeometry>
                </mxCell>
                <mxCell id="91" value="tail" style="rounded=0;whiteSpace=wrap;html=1;comic=1;" parent="1" vertex="1">
                    <mxGeometry x="197.29000000000002" y="1650" width="75" height="24" as="geometry"/>
                </mxCell>
                <mxCell id="92" value="state&lt;br&gt;1" style="rounded=0;whiteSpace=wrap;html=1;comic=1;" parent="1" vertex="1">
                    <mxGeometry x="197.29000000000002" y="1680" width="75" height="30" as="geometry"/>
                </mxCell>
                <mxCell id="93" value="ex-thread&lt;br&gt;②" style="rounded=0;whiteSpace=wrap;html=1;comic=1;fillColor=#e1d5e7;strokeColor=#9673a6;" parent="1" vertex="1">
                    <mxGeometry x="197.29000000000002" y="1580" width="75" height="34" as="geometry"/>
                </mxCell>
                <mxCell id="94" value="" style="group" parent="1" vertex="1" connectable="0">
                    <mxGeometry x="315.95000000000005" y="1587.63" width="97.5" height="100" as="geometry"/>
                </mxCell>
                <mxCell id="95" value="Node(dummy)" style="rounded=0;whiteSpace=wrap;html=1;fillColor=#d5e8d4;strokeColor=#82b366;comic=1;verticalAlign=top;" parent="94" vertex="1">
                    <mxGeometry width="97.5" height="100" as="geometry"/>
                </mxCell>
                <mxCell id="96" value="waitStatus&lt;br&gt;SIGNAL" style="rounded=0;whiteSpace=wrap;html=1;comic=1;" parent="94" vertex="1">
                    <mxGeometry x="11.25" y="24" width="75" height="36" as="geometry"/>
                </mxCell>
                <mxCell id="97" value="thread null" style="rounded=0;whiteSpace=wrap;html=1;comic=1;" parent="94" vertex="1">
                    <mxGeometry x="11.25" y="67.63000000000011" width="75" height="24.75" as="geometry"/>
                </mxCell>
                <mxCell id="102" style="edgeStyle=none;html=1;exitX=1;exitY=0.5;exitDx=0;exitDy=0;entryX=0;entryY=0.5;entryDx=0;entryDy=0;sketch=1;startArrow=classic;startFill=1;" parent="1" source="95" target="104" edge="1">
                    <mxGeometry relative="1" as="geometry">
                        <mxPoint x="447.20000000000005" y="1637.63" as="targetPoint"/>
                    </mxGeometry>
                </mxCell>
                <mxCell id="103" value="" style="group" parent="1" vertex="1" connectable="0">
                    <mxGeometry x="448.49000000000007" y="1587.63" width="97.5" height="100" as="geometry"/>
                </mxCell>
                <mxCell id="104" value="Node" style="rounded=0;whiteSpace=wrap;html=1;fillColor=#d5e8d4;strokeColor=#82b366;comic=1;verticalAlign=top;" parent="103" vertex="1">
                    <mxGeometry width="97.5" height="100" as="geometry"/>
                </mxCell>
                <mxCell id="105" value="waitStatus&lt;br&gt;SIGNAL" style="rounded=0;whiteSpace=wrap;html=1;comic=1;" parent="103" vertex="1">
                    <mxGeometry x="11.25" y="24" width="75" height="36" as="geometry"/>
                </mxCell>
                <mxCell id="106" value="thread ③" style="rounded=0;whiteSpace=wrap;html=1;comic=1;" parent="103" vertex="1">
                    <mxGeometry x="11.25" y="67.63000000000011" width="75" height="24.75" as="geometry"/>
                </mxCell>
                <mxCell id="108" value="" style="group" parent="1" vertex="1" connectable="0">
                    <mxGeometry x="582.5" y="1587.63" width="97.5" height="100" as="geometry"/>
                </mxCell>
                <mxCell id="109" value="Node" style="rounded=0;whiteSpace=wrap;html=1;fillColor=#d5e8d4;strokeColor=#82b366;comic=1;verticalAlign=top;" parent="108" vertex="1">
                    <mxGeometry width="97.5" height="100" as="geometry"/>
                </mxCell>
                <mxCell id="110" value="waitStatus&lt;br&gt;0" style="rounded=0;whiteSpace=wrap;html=1;comic=1;" parent="108" vertex="1">
                    <mxGeometry x="11.25" y="24" width="75" height="36" as="geometry"/>
                </mxCell>
                <mxCell id="111" value="thread ④" style="rounded=0;whiteSpace=wrap;html=1;comic=1;" parent="108" vertex="1">
                    <mxGeometry x="11.25" y="67.63000000000011" width="75" height="24.75" as="geometry"/>
                </mxCell>
                <mxCell id="112" style="edgeStyle=none;sketch=1;html=1;exitX=1;exitY=0.5;exitDx=0;exitDy=0;entryX=0;entryY=0.5;entryDx=0;entryDy=0;startArrow=classic;startFill=1;" parent="1" source="104" target="109" edge="1">
                    <mxGeometry relative="1" as="geometry"/>
                </mxCell>
                <mxCell id="114" value="" style="group" parent="1" vertex="1" connectable="0">
                    <mxGeometry x="316.00000000000006" y="1720" width="97.5" height="100" as="geometry"/>
                </mxCell>
                <mxCell id="115" value="Node" style="rounded=0;whiteSpace=wrap;html=1;fillColor=#d5e8d4;strokeColor=#82b366;comic=1;verticalAlign=top;" parent="114" vertex="1">
                    <mxGeometry width="97.5" height="100" as="geometry"/>
                </mxCell>
                <mxCell id="116" value="waitStatus&lt;br&gt;CONDITION" style="rounded=0;whiteSpace=wrap;html=1;comic=1;" parent="114" vertex="1">
                    <mxGeometry x="11.25" y="24" width="75" height="36" as="geometry"/>
                </mxCell>
                <mxCell id="117" value="thread ①" style="rounded=0;whiteSpace=wrap;html=1;comic=1;" parent="114" vertex="1">
                    <mxGeometry x="11.25" y="67.63000000000011" width="75" height="24.75" as="geometry"/>
                </mxCell>
                <mxCell id="169" style="edgeStyle=none;sketch=1;html=1;exitX=0.5;exitY=0;exitDx=0;exitDy=0;entryX=0.5;entryY=1;entryDx=0;entryDy=0;dashed=1;" parent="1" source="119" target="87" edge="1">
                    <mxGeometry relative="1" as="geometry"/>
                </mxCell>
                <mxCell id="119" value="ConditionObject" style="rounded=0;whiteSpace=wrap;html=1;fillColor=#f8cecc;strokeColor=#b85450;comic=1;verticalAlign=top;" parent="1" vertex="1">
                    <mxGeometry x="186.25" y="1730" width="97.5" height="87" as="geometry"/>
                </mxCell>
                <mxCell id="124" style="edgeStyle=none;sketch=1;html=1;exitX=1;exitY=0.5;exitDx=0;exitDy=0;entryX=0;entryY=0.5;entryDx=0;entryDy=0;fontSize=11;fontColor=#000000;startArrow=none;startFill=0;" parent="1" source="120" target="115" edge="1">
                    <mxGeometry relative="1" as="geometry"/>
                </mxCell>
                <mxCell id="120" value="firstWaiter" style="rounded=0;whiteSpace=wrap;html=1;comic=1;" parent="1" vertex="1">
                    <mxGeometry x="197.29000000000002" y="1754" width="75" height="24" as="geometry"/>
                </mxCell>
                <mxCell id="125" style="edgeStyle=none;sketch=1;html=1;exitX=1;exitY=0.5;exitDx=0;exitDy=0;entryX=0;entryY=0.5;entryDx=0;entryDy=0;fontSize=11;fontColor=#000000;startArrow=none;startFill=0;" parent="1" source="121" target="115" edge="1">
                    <mxGeometry relative="1" as="geometry"/>
                </mxCell>
                <mxCell id="121" value="lastWaiter" style="rounded=0;whiteSpace=wrap;html=1;comic=1;" parent="1" vertex="1">
                    <mxGeometry x="197.29000000000002" y="1785" width="75" height="24" as="geometry"/>
                </mxCell>
                <mxCell id="164" style="edgeStyle=none;sketch=1;html=1;exitX=1;exitY=0.5;exitDx=0;exitDy=0;entryX=-0.003;entryY=0.182;entryDx=0;entryDy=0;entryPerimeter=0;fontSize=11;fontColor=#000000;startArrow=none;startFill=0;" parent="1" source="126" target="127" edge="1">
                    <mxGeometry relative="1" as="geometry"/>
                </mxCell>
                <mxCell id="126" value="②线程&lt;br&gt;condition.signal" style="rounded=0;whiteSpace=wrap;html=1;fillColor=#ffe6cc;strokeColor=#d79b00;comic=1;" parent="1" vertex="1">
                    <mxGeometry x="28.54" y="1870" width="90" height="40" as="geometry"/>
                </mxCell>
                <mxCell id="127" value="" style="rounded=0;whiteSpace=wrap;html=1;fillColor=#dae8fc;strokeColor=#6c8ebf;comic=1;verticalAlign=top;" parent="1" vertex="1">
                    <mxGeometry x="174.79" y="1840" width="655.21" height="280" as="geometry"/>
                </mxCell>
                <mxCell id="128" value="AQS" style="rounded=0;whiteSpace=wrap;html=1;fillColor=#ffe6cc;strokeColor=#d79b00;comic=1;verticalAlign=top;" parent="1" vertex="1">
                    <mxGeometry x="186.04000000000002" y="1850" width="97.5" height="155.25" as="geometry"/>
                </mxCell>
                <mxCell id="129" style="edgeStyle=none;sketch=1;html=1;exitX=1;exitY=0.5;exitDx=0;exitDy=0;entryX=0.003;entryY=0.447;entryDx=0;entryDy=0;entryPerimeter=0;" parent="1" source="130" target="136" edge="1">
                    <mxGeometry relative="1" as="geometry">
                        <mxPoint x="306.0400000000002" y="1932" as="targetPoint"/>
                    </mxGeometry>
                </mxCell>
                <mxCell id="130" value="head" style="rounded=0;whiteSpace=wrap;html=1;comic=1;" parent="1" vertex="1">
                    <mxGeometry x="197.29000000000002" y="1910" width="75" height="24" as="geometry"/>
                </mxCell>
                <mxCell id="131" style="edgeStyle=orthogonalEdgeStyle;sketch=1;html=1;exitX=1;exitY=0.5;exitDx=0;exitDy=0;entryX=0.5;entryY=1;entryDx=0;entryDy=0;" parent="1" source="132" target="159" edge="1">
                    <mxGeometry relative="1" as="geometry">
                        <mxPoint x="608.45" y="2010" as="targetPoint"/>
                        <Array as="points">
                            <mxPoint x="300" y="1952"/>
                            <mxPoint x="300" y="1990"/>
                            <mxPoint x="769" y="1990"/>
                        </Array>
                    </mxGeometry>
                </mxCell>
                <mxCell id="132" value="tail" style="rounded=0;whiteSpace=wrap;html=1;comic=1;" parent="1" vertex="1">
                    <mxGeometry x="197.29000000000002" y="1940" width="75" height="24" as="geometry"/>
                </mxCell>
                <mxCell id="133" value="state&lt;br&gt;1" style="rounded=0;whiteSpace=wrap;html=1;comic=1;" parent="1" vertex="1">
                    <mxGeometry x="197.29000000000002" y="1970" width="75" height="30" as="geometry"/>
                </mxCell>
                <mxCell id="134" value="ex-thread&lt;br&gt;②" style="rounded=0;whiteSpace=wrap;html=1;comic=1;fillColor=#e1d5e7;strokeColor=#9673a6;" parent="1" vertex="1">
                    <mxGeometry x="197.29000000000002" y="1870" width="75" height="34" as="geometry"/>
                </mxCell>
                <mxCell id="135" value="" style="group" parent="1" vertex="1" connectable="0">
                    <mxGeometry x="315.95000000000005" y="1877.63" width="97.5" height="100" as="geometry"/>
                </mxCell>
                <mxCell id="136" value="Node(dummy)" style="rounded=0;whiteSpace=wrap;html=1;fillColor=#d5e8d4;strokeColor=#82b366;comic=1;verticalAlign=top;" parent="135" vertex="1">
                    <mxGeometry width="97.5" height="100" as="geometry"/>
                </mxCell>
                <mxCell id="137" value="waitStatus&lt;br&gt;SIGNAL" style="rounded=0;whiteSpace=wrap;html=1;comic=1;" parent="135" vertex="1">
                    <mxGeometry x="11.25" y="24" width="75" height="36" as="geometry"/>
                </mxCell>
                <mxCell id="138" value="thread null" style="rounded=0;whiteSpace=wrap;html=1;comic=1;" parent="135" vertex="1">
                    <mxGeometry x="11.25" y="67.63000000000011" width="75" height="24.75" as="geometry"/>
                </mxCell>
                <mxCell id="139" style="edgeStyle=none;html=1;exitX=1;exitY=0.5;exitDx=0;exitDy=0;entryX=0;entryY=0.5;entryDx=0;entryDy=0;sketch=1;startArrow=classic;startFill=1;" parent="1" source="136" target="141" edge="1">
                    <mxGeometry relative="1" as="geometry">
                        <mxPoint x="447.20000000000005" y="1927.63" as="targetPoint"/>
                    </mxGeometry>
                </mxCell>
                <mxCell id="140" value="" style="group" parent="1" vertex="1" connectable="0">
                    <mxGeometry x="448.49000000000007" y="1877.63" width="97.5" height="100" as="geometry"/>
                </mxCell>
                <mxCell id="141" value="Node" style="rounded=0;whiteSpace=wrap;html=1;fillColor=#d5e8d4;strokeColor=#82b366;comic=1;verticalAlign=top;" parent="140" vertex="1">
                    <mxGeometry width="97.5" height="100" as="geometry"/>
                </mxCell>
                <mxCell id="142" value="waitStatus&lt;br&gt;SIGNAL" style="rounded=0;whiteSpace=wrap;html=1;comic=1;" parent="140" vertex="1">
                    <mxGeometry x="11.25" y="24" width="75" height="36" as="geometry"/>
                </mxCell>
                <mxCell id="143" value="thread ③" style="rounded=0;whiteSpace=wrap;html=1;comic=1;" parent="140" vertex="1">
                    <mxGeometry x="11.25" y="67.63000000000011" width="75" height="24.75" as="geometry"/>
                </mxCell>
                <mxCell id="144" value="" style="group" parent="1" vertex="1" connectable="0">
                    <mxGeometry x="582.5" y="1877.63" width="97.5" height="100" as="geometry"/>
                </mxCell>
                <mxCell id="145" value="Node" style="rounded=0;whiteSpace=wrap;html=1;fillColor=#d5e8d4;strokeColor=#82b366;comic=1;verticalAlign=top;" parent="144" vertex="1">
                    <mxGeometry width="97.5" height="100" as="geometry"/>
                </mxCell>
                <mxCell id="146" value="waitStatus&lt;br&gt;SIGNAL" style="rounded=0;whiteSpace=wrap;html=1;comic=1;" parent="144" vertex="1">
                    <mxGeometry x="11.25" y="24" width="75" height="36" as="geometry"/>
                </mxCell>
                <mxCell id="147" value="thread ④" style="rounded=0;whiteSpace=wrap;html=1;comic=1;" parent="144" vertex="1">
                    <mxGeometry x="11.25" y="67.63000000000011" width="75" height="24.75" as="geometry"/>
                </mxCell>
                <mxCell id="148" style="edgeStyle=none;sketch=1;html=1;exitX=1;exitY=0.5;exitDx=0;exitDy=0;entryX=0;entryY=0.5;entryDx=0;entryDy=0;startArrow=classic;startFill=1;" parent="1" source="141" target="145" edge="1">
                    <mxGeometry relative="1" as="geometry"/>
                </mxCell>
                <mxCell id="170" style="edgeStyle=none;sketch=1;html=1;exitX=0.5;exitY=0;exitDx=0;exitDy=0;entryX=0.5;entryY=1;entryDx=0;entryDy=0;dashed=1;" parent="1" source="153" target="128" edge="1">
                    <mxGeometry relative="1" as="geometry"/>
                </mxCell>
                <mxCell id="153" value="ConditionObject" style="rounded=0;whiteSpace=wrap;html=1;fillColor=#f8cecc;strokeColor=#b85450;comic=1;verticalAlign=top;" parent="1" vertex="1">
                    <mxGeometry x="186.25" y="2020" width="97.5" height="87" as="geometry"/>
                </mxCell>
                <mxCell id="154" style="edgeStyle=none;sketch=1;html=1;exitX=1;exitY=0.5;exitDx=0;exitDy=0;entryX=0;entryY=0.5;entryDx=0;entryDy=0;fontSize=11;fontColor=#000000;startArrow=none;startFill=0;" parent="1" source="155" target="163" edge="1">
                    <mxGeometry relative="1" as="geometry">
                        <mxPoint x="316" y="2060" as="targetPoint"/>
                    </mxGeometry>
                </mxCell>
                <mxCell id="155" value="firstWaiter" style="rounded=0;whiteSpace=wrap;html=1;comic=1;" parent="1" vertex="1">
                    <mxGeometry x="197.29000000000002" y="2044" width="75" height="24" as="geometry"/>
                </mxCell>
                <mxCell id="156" style="edgeStyle=none;sketch=1;html=1;exitX=1;exitY=0.5;exitDx=0;exitDy=0;entryX=0;entryY=0.5;entryDx=0;entryDy=0;fontSize=11;fontColor=#000000;startArrow=none;startFill=0;" parent="1" source="157" target="163" edge="1">
                    <mxGeometry relative="1" as="geometry">
                        <mxPoint x="316" y="2060" as="targetPoint"/>
                    </mxGeometry>
                </mxCell>
                <mxCell id="157" value="lastWaiter" style="rounded=0;whiteSpace=wrap;html=1;comic=1;" parent="1" vertex="1">
                    <mxGeometry x="197.29000000000002" y="2075" width="75" height="24" as="geometry"/>
                </mxCell>
                <mxCell id="158" value="" style="group" parent="1" vertex="1" connectable="0">
                    <mxGeometry x="720" y="1878" width="97.5" height="100" as="geometry"/>
                </mxCell>
                <mxCell id="159" value="Node" style="rounded=0;whiteSpace=wrap;html=1;fillColor=#d5e8d4;strokeColor=#82b366;comic=1;verticalAlign=top;" parent="158" vertex="1">
                    <mxGeometry width="97.5" height="100" as="geometry"/>
                </mxCell>
                <mxCell id="160" value="waitStatus&lt;br&gt;CONDITION" style="rounded=0;whiteSpace=wrap;html=1;comic=1;" parent="158" vertex="1">
                    <mxGeometry x="11.25" y="24" width="75" height="36" as="geometry"/>
                </mxCell>
                <mxCell id="161" value="thread ①" style="rounded=0;whiteSpace=wrap;html=1;comic=1;" parent="158" vertex="1">
                    <mxGeometry x="11.25" y="67.63000000000011" width="75" height="24.75" as="geometry"/>
                </mxCell>
                <mxCell id="162" style="edgeStyle=none;sketch=1;html=1;exitX=1;exitY=0.5;exitDx=0;exitDy=0;entryX=0;entryY=0.5;entryDx=0;entryDy=0;fontSize=11;fontColor=#000000;startArrow=classic;startFill=1;" parent="1" source="145" target="159" edge="1">
                    <mxGeometry relative="1" as="geometry"/>
                </mxCell>
                <mxCell id="163" value="null" style="rounded=0;whiteSpace=wrap;html=1;comic=1;" parent="1" vertex="1">
                    <mxGeometry x="315.95" y="2051" width="54.05" height="24" as="geometry"/>
                </mxCell>
                <mxCell id="167" style="edgeStyle=none;html=1;exitX=0.5;exitY=1;exitDx=0;exitDy=0;entryX=0.5;entryY=0;entryDx=0;entryDy=0;sketch=1;" parent="1" source="165" target="166" edge="1">
                    <mxGeometry relative="1" as="geometry"/>
                </mxCell>
                <mxCell id="165" value="&lt;div style=&quot;text-align: left&quot;&gt;&lt;span&gt;疑问：&lt;/span&gt;&lt;/div&gt;&lt;div style=&quot;text-align: left&quot;&gt;&lt;span&gt;为什么ConditionObject实例能够调用AQS#enq方法将Node插入到AQS阻塞队列中？&lt;/span&gt;&lt;/div&gt;" style="rounded=0;whiteSpace=wrap;html=1;fillColor=#dae8fc;strokeColor=#6c8ebf;comic=1;sketch=1;" parent="1" vertex="1">
                    <mxGeometry x="900.25" y="1859" width="163" height="62" as="geometry"/>
                </mxCell>
                <mxCell id="166" value="&lt;div style=&quot;text-align: left&quot;&gt;因为ConditionObject类是AQS的内部类，使用的ConditionObject也是通过AQS的方法newCondition进行生成的，因此当前condition会有生成它的AQS子类实例(Sync示例)的引用，因此能够找到AQS并添加Node到它的队列中&lt;/div&gt;" style="rounded=0;whiteSpace=wrap;html=1;fillColor=#ffe6cc;strokeColor=#d79b00;comic=1;sketch=1;" parent="1" vertex="1">
                    <mxGeometry x="843.5" y="1955" width="276.5" height="96" as="geometry"/>
                </mxCell>
            </root>
        </mxGraphModel>
    </diagram>
</mxfile>